<svg width="80" height="80" viewBox="0 0 80 80" fill="none" xmlns="http://www.w3.org/2000/svg">
<g clip-path="url(#clip0)">
<path fill-rule="evenodd" clip-rule="evenodd" d="M32.678 63.8584C49.8506 63.8584 63.8555 49.882 63.8555 32.7134C63.8555 15.5448 49.8506 1.56836 32.678 1.56836C15.5054 1.56836 1.50049 15.5586 1.50049 32.7134C1.50049 49.8681 15.4915 63.8584 32.678 63.8584Z" fill="#C7D9B0"/>
<path fill-rule="evenodd" clip-rule="evenodd" d="M32.6779 57.6822C46.4882 57.6822 57.6727 46.5094 57.6727 32.7134C57.6727 18.9174 46.4882 7.74463 32.6779 7.74463C18.8675 7.74463 7.68311 18.9174 7.68311 32.7134C7.68311 46.5233 18.8536 57.6822 32.6779 57.6822Z" fill="#F6F7F7"/>
<path fill-rule="evenodd" clip-rule="evenodd" d="M32.581 40.1666C28.3157 40.7079 24.8561 40.347 22.0357 38.9869C23.2167 38.2652 25.2174 37.8071 26.3983 37.3491C23.3973 35.8085 18.854 30.1736 18.5762 26.9119C23.3 27.3699 27.2042 32.4497 29.9412 36.1694C27.7599 31.6309 28.8436 23.2756 32.581 19.1951C36.3045 23.2756 37.4021 31.6309 35.1236 36.1694C37.8467 32.4497 41.7648 27.3561 46.572 26.9119C46.2941 30.1874 41.7509 35.8085 38.6665 37.3491C39.8474 37.8071 41.8481 38.2513 43.0291 38.9869C40.3059 40.347 36.8603 40.7079 32.581 40.1666Z" fill="#C7D9B0"/>
<path fill-rule="evenodd" clip-rule="evenodd" d="M65.3978 57.8625L57.8535 65.399L69.7604 77.2935C71.3026 78.8341 73.8452 78.8341 75.4013 77.2935L77.3047 75.392C78.8469 73.8514 78.8469 71.3115 77.3047 69.7571L65.3978 57.8625Z" fill="#E3A188"/>
<path d="M72.5806 80.0001C71.094 80.0001 69.7046 79.431 68.6626 78.3901L56.7556 66.4956C56.4639 66.2041 56.311 65.8155 56.311 65.3991C56.311 64.9827 56.4778 64.5941 56.7556 64.3026L64.2999 56.7662C64.8974 56.1694 65.8838 56.1694 66.4812 56.7662L78.3882 68.6607C79.4302 69.7017 79.9998 71.0896 79.9998 72.5747C79.9998 74.0597 79.4302 75.4338 78.3882 76.4747L76.4847 78.3762C75.4427 79.431 74.0533 80.0001 72.5806 80.0001ZM60.0346 65.3991L70.8439 76.1971C71.7747 77.1409 73.3586 77.1271 74.2895 76.1971L76.193 74.2957C77.1238 73.3658 77.1238 71.7835 76.193 70.8536L65.3836 60.0556L60.0346 65.3991Z" fill="#424952"/>
<path d="M66.5784 66.676C66.1754 66.676 65.7725 66.5234 65.4669 66.2041C64.8694 65.5935 64.8833 64.608 65.4947 64.0251L68.5791 61.0272C69.1904 60.4304 70.1629 60.4443 70.7604 61.055C71.3578 61.6656 71.3439 62.6372 70.7326 63.234L67.6482 66.2319C67.3564 66.5234 66.9674 66.676 66.5784 66.676Z" fill="#424952"/>
<path d="M32.5655 65.1756C23.868 65.1756 15.6707 61.7752 9.488 55.5989C-3.16918 42.9549 -3.16918 22.3026 9.488 9.56144C20.6308 -1.56972 38.0813 -3.17971 51.0024 5.74465C51.6971 6.23042 51.8777 7.18809 51.3914 7.89593C50.9052 8.58989 49.9326 8.77032 49.2379 8.28455C37.5672 0.206827 21.7561 1.66415 11.6832 11.7405C0.220889 23.2741 0.220889 41.9695 11.6832 53.4199C17.2824 59.0132 24.7016 62.0944 32.5793 62.0944C32.5932 62.0944 32.621 62.0944 32.6349 62.0944C40.4849 62.0805 47.8624 58.9993 53.3921 53.4199C63.479 43.4268 64.9656 27.6877 56.935 15.9737C56.4487 15.2658 56.6294 14.3081 57.3379 13.8224C58.0326 13.3366 59.0052 13.517 59.4915 14.2249C68.3557 27.1742 66.7162 44.5649 55.5734 55.5989C49.4602 61.7613 41.3046 65.1617 32.6349 65.1756C32.6071 65.1756 32.5932 65.1756 32.5655 65.1756Z" fill="#424952"/>
<path d="M58.4924 60.0416C58.1033 60.0416 57.7004 59.889 57.3948 59.5975L53.3934 55.6003C52.796 55.0035 52.796 54.018 53.3934 53.4212C53.9908 52.8244 54.9773 52.8244 55.5747 53.4212L59.5761 57.4185C60.1735 58.0153 60.1735 59.0007 59.5761 59.5975C59.2843 59.889 58.8814 60.0416 58.4924 60.0416Z" fill="#424952"/>
<path d="M32.5808 47.6059C31.7333 47.6059 31.0386 46.9119 31.0386 46.0653V40.1666C31.0386 39.3061 31.7333 38.626 32.5808 38.626C33.4283 38.626 34.123 39.3199 34.123 40.1666V46.0653C34.123 46.9119 33.4422 47.6059 32.5808 47.6059Z" fill="#424952"/>
<path d="M35.943 41.9294C34.8176 41.9294 33.6366 41.8462 32.3862 41.6796C31.5386 41.5686 30.9412 40.7913 31.0524 39.9447C31.1635 39.0981 31.9138 38.4874 32.7891 38.6123C36.5543 39.0981 39.6387 38.765 42.209 37.5575C42.9871 37.1827 43.9041 37.5297 44.2653 38.307C44.6265 39.0842 44.2931 40.0002 43.515 40.3611C41.2781 41.4159 38.7773 41.9294 35.943 41.9294Z" fill="#424952"/>
<path d="M35.0396 36.891C34.8729 36.891 34.7061 36.8633 34.5394 36.8077C33.7336 36.5301 33.3029 35.6558 33.5808 34.8508C35.1646 30.2706 34.4005 25.4129 31.2466 19.9583C30.8159 19.2227 31.066 18.2789 31.8163 17.8487C32.5665 17.4184 33.4974 17.6683 33.9281 18.4177C37.4988 24.594 38.3741 30.4649 36.4984 35.8501C36.2761 36.4885 35.6787 36.891 35.0396 36.891Z" fill="#424952"/>
<path d="M30.1354 36.891C29.5102 36.891 28.9128 36.5024 28.6766 35.8778C26.7037 30.4649 27.579 24.594 31.2608 18.4039C31.7054 17.6683 32.6502 17.4323 33.3727 17.8626C34.109 18.2928 34.3452 19.2505 33.9145 19.9722C30.6912 25.399 29.927 30.2567 31.5804 34.823C31.8721 35.628 31.4553 36.5163 30.6495 36.8077C30.4828 36.8633 30.3022 36.891 30.1354 36.891Z" fill="#424952"/>
<path d="M29.2325 41.9293C26.3426 41.9293 23.8001 41.4018 21.6466 40.3609C20.8824 39.9862 20.549 39.0701 20.9241 38.3068C21.2992 37.5434 22.2162 37.2103 22.9942 37.5851C25.4395 38.7648 28.6073 39.1118 32.3864 38.626C33.2478 38.4872 34.012 39.1118 34.1231 39.9584C34.2343 40.805 33.6368 41.5823 32.7893 41.6933C31.5528 41.8599 30.3579 41.9293 29.2325 41.9293Z" fill="#424952"/>
<path d="M38.2216 45.8849C37.5964 45.8849 36.9573 45.8849 36.3321 45.7738C35.4846 45.635 34.9149 44.8439 35.0678 43.9973C35.2067 43.1507 35.9848 42.5955 36.8462 42.7204C37.3047 42.8037 37.7493 42.7898 38.2355 42.7898C39.0831 42.7898 39.7777 43.4838 39.7777 44.3304C39.7638 45.1909 39.0692 45.8849 38.2216 45.8849Z" fill="#424952"/>
<path d="M26.8567 45.8851C26.0091 45.8851 25.3145 45.1911 25.3145 44.3445C25.3145 43.484 26.0091 42.8039 26.8567 42.8039C27.3846 42.8039 27.8153 42.8178 28.1905 42.7345C29.0519 42.5957 29.8438 43.1092 30.0105 43.942C30.1773 44.7747 29.6354 45.5936 28.8018 45.7602C28.2599 45.8712 27.6069 45.8851 26.8567 45.8851Z" fill="#424952"/>
<path d="M26.3978 37.9875C26.1755 37.9875 25.9393 37.932 25.717 37.8348C21.3821 35.7252 18.4783 32.186 17.089 27.3421C16.9361 26.8008 17.089 26.2179 17.4919 25.8154C17.8948 25.4268 18.4644 25.2741 19.0202 25.4268C21.535 26.1624 23.6607 27.1895 25.3557 28.508C26.0226 29.0354 26.1477 30.0069 25.6197 30.6731C25.1056 31.3394 24.1331 31.4643 23.4523 30.9507C22.8271 30.465 22.1324 30.0208 21.3405 29.6322C22.6465 32.0194 24.5638 33.8376 27.0786 35.059C27.8427 35.4337 28.1623 36.3636 27.7871 37.127C27.5232 37.6683 26.9674 37.9875 26.3978 37.9875Z" fill="#424952"/>
<path d="M38.6799 37.9878C38.0964 37.9878 37.5545 37.6686 37.2766 37.1134C36.9154 36.35 37.2349 35.4201 38.013 35.0593C40.6111 33.824 42.5423 32.0197 43.8484 29.6047C43.0703 29.9933 42.3617 30.4375 41.7226 30.951C41.0418 31.4784 40.0832 31.3535 39.5552 30.6734C39.0272 30.0072 39.1523 29.0357 39.8192 28.5082C41.5976 27.1342 43.6677 26.121 46.1686 25.427C46.7105 25.2744 47.2801 25.427 47.683 25.8295C48.072 26.232 48.2249 26.8011 48.072 27.3424C46.6827 32.214 43.7511 35.7532 39.3468 37.849C39.1245 37.9323 38.9022 37.9878 38.6799 37.9878Z" fill="#424952"/>
<path d="M32.5947 59.3477C27.3151 59.3477 22.0215 57.7932 17.4227 54.601C16.728 54.1152 16.5474 53.1576 17.0337 52.4497C17.52 51.7419 18.4786 51.5753 19.1872 52.0611C28.5516 58.5566 41.2088 57.4046 49.2949 49.3269C53.7548 44.8716 56.2001 38.9452 56.2001 32.6163C56.2001 26.3012 53.7409 20.3609 49.2949 15.9057C40.0695 6.68985 25.0782 6.68985 15.8527 15.9057C7.79438 23.9556 6.59952 36.6135 13.0323 45.9959C13.5186 46.7037 13.338 47.6614 12.6294 48.1471C11.9208 48.6329 10.9621 48.4386 10.4759 47.7447C3.22334 37.1548 4.55714 22.8453 13.6714 13.7405C24.0917 3.33107 41.0698 3.31719 51.4901 13.7405C56.5335 18.7787 59.3123 25.4823 59.3123 32.6302C59.3123 39.778 56.5335 46.4816 51.4901 51.5198C46.3217 56.6829 39.4721 59.3477 32.5947 59.3477Z" fill="#424952"/>
</g>
<defs>
<clipPath id="clip0">
<rect width="80" height="80" fill="white"/>
</clipPath>
</defs>
</svg>
