<svg width="140" height="140" viewBox="0 0 140 140" fill="none" xmlns="http://www.w3.org/2000/svg">
<path fill-rule="evenodd" clip-rule="evenodd" d="M42.6279 56.09L35.5338 63.2257L45.1852 65.6665L42.6279 56.09Z" fill="#F6F7F7"/>
<path fill-rule="evenodd" clip-rule="evenodd" d="M42.3389 68.4803L48.017 62.8378C49.2451 61.6174 51.2245 61.6174 52.4526 62.7373C53.6807 63.9577 53.6807 65.9247 52.4526 67.1451L46.8756 72.7876C45.6475 74.008 43.6681 74.008 42.44 72.8881C41.2119 71.6821 41.2119 69.7151 42.3389 68.4803Z" fill="#E4E7E7"/>
<path fill-rule="evenodd" clip-rule="evenodd" d="M47.7288 71.9693L55.9498 80.1388C56.99 78.5451 58.2181 77.1381 59.5473 75.8172L51.6009 68.021L47.7288 71.9693Z" fill="#F6F7F7"/>
<path fill-rule="evenodd" clip-rule="evenodd" d="M74.6742 69.9019C62.48 69.9019 52.6553 79.6651 52.6553 91.7829C52.6553 99.0191 56.1517 105.408 61.5409 109.443H87.7209C93.1968 105.408 96.6932 99.0191 96.6932 91.7829C96.6932 84.92 93.5724 78.818 88.5589 74.7835L99.9007 39.9377L88.5589 36.3627L77.5928 70.0886C76.6537 69.9881 75.7145 69.9019 74.6742 69.9019Z" fill="#F6F7F7"/>
<path fill-rule="evenodd" clip-rule="evenodd" d="M103.021 34.3956C104.625 34.9556 105.477 36.7503 105.001 38.344C104.437 39.9376 102.732 40.8852 101.027 40.3109L87.3161 35.9893C85.7123 35.4294 84.8599 33.6347 85.3367 32.041C85.9002 30.4473 87.605 29.4997 89.3099 30.074L103.021 34.3956Z" fill="#E4E7E7"/>
<path fill-rule="evenodd" clip-rule="evenodd" d="M64.936 91.5965C62.5665 92.0703 60.3993 91.8836 58.4199 91.0365C58.4199 91.3237 58.3188 91.5103 58.3188 91.7831C58.3188 96.3919 60.2982 100.613 63.6068 103.714H85.7269C88.8477 100.8 90.7404 96.7652 90.9283 92.4435C90.9283 92.2569 90.9283 91.9697 90.9283 91.7831C90.9283 91.1226 90.9283 90.4622 90.8271 89.8161C82.6061 83.3265 73.0559 90.1894 64.936 91.5965Z" fill="#C7D9B0"/>
<path fill-rule="evenodd" clip-rule="evenodd" d="M67.0165 84.4604C68.7214 84.4604 70.0362 83.1395 70.0362 81.4596C70.0362 79.8659 68.7069 78.545 67.0165 78.545C65.4127 78.545 64.0835 79.8659 64.0835 81.4596C64.0835 83.1395 65.4127 84.4604 67.0165 84.4604Z" fill="#C7D9B0"/>
<path d="M102.039 42.0626C101.533 42.0626 101.027 41.9764 100.536 41.8185L86.8536 37.5112C84.4407 36.6642 83.097 34.008 83.805 31.5959C84.7152 29.0403 87.3448 27.7338 89.8299 28.5521L98.9756 31.4524C99.828 31.7252 100.29 32.6153 100.016 33.4624C99.7413 34.2952 98.8311 34.7546 97.9931 34.4962L88.8185 31.5816C87.8649 31.2657 87.0992 31.8544 86.8536 32.5722C86.6368 33.3045 87.0847 34.209 87.8649 34.4818L101.518 38.7891C102.472 39.1049 103.238 38.5163 103.483 37.8128C103.7 37.0805 103.252 36.176 102.472 35.9032C101.634 35.6017 101.201 34.6972 101.49 33.8644C101.778 33.0317 102.703 32.601 103.541 32.8881C105.911 33.7209 107.254 36.3626 106.532 38.7891C105.824 40.8278 104.004 42.0626 102.039 42.0626Z" fill="#3A3A3A"/>
<path d="M77.5928 71.6823C77.4339 71.6823 77.2605 71.6536 77.1016 71.6105C76.2636 71.3377 75.7868 70.4475 76.0613 69.6004L85.6116 40.1961C85.8861 39.3634 86.7819 38.8896 87.6343 39.1624C88.4723 39.4352 88.9491 40.3254 88.6746 41.1724L79.1243 70.5767C78.9076 71.2516 78.2719 71.6823 77.5928 71.6823Z" fill="#3A3A3A"/>
<path d="M88.5584 76.3772C88.3994 76.3772 88.2261 76.3485 88.0671 76.3054C87.2291 76.0326 86.7668 75.1281 87.0269 74.2954L98.3687 39.4495C98.6432 38.6168 99.539 38.143 100.391 38.4158C101.229 38.6886 101.692 39.5931 101.432 40.4259L90.0899 75.2717C89.8731 75.9465 89.2374 76.3772 88.5584 76.3772Z" fill="#3A3A3A"/>
<path d="M87.7202 111.036H61.5401C61.1933 111.036 60.8466 110.921 60.5721 110.72C54.5183 106.183 51.0508 99.2775 51.0508 91.7828C51.0508 78.8323 61.6557 68.3082 74.6735 68.3082C77.6353 68.3082 80.4672 68.8107 83.0968 69.8301C83.9203 70.146 84.3393 71.0649 84.0214 71.8976C83.7036 72.716 82.7789 73.1324 81.9409 72.8165C79.687 71.9551 77.2308 71.51 74.6735 71.51C63.4184 71.51 54.2582 80.6127 54.2582 91.7972C54.2582 98.1002 57.1045 103.929 62.0891 107.863H87.1856C92.228 103.958 95.1032 98.1432 95.1032 91.7972C95.1032 85.6378 92.358 79.8948 87.5612 76.0326C86.8677 75.4727 86.7666 74.4676 87.3301 73.7928C87.8935 73.1037 88.9049 73.0031 89.584 73.5631C95.1321 78.0283 98.3106 84.6902 98.3106 91.7972C98.3106 99.3206 94.7998 106.227 88.6882 110.735C88.3992 110.921 88.0525 111.036 87.7202 111.036Z" fill="#3A3A3A"/>
<path d="M85.7273 105.307H63.6072C63.2027 105.307 62.7981 105.15 62.5092 104.877C58.7671 101.373 56.7155 96.7216 56.7155 91.7826C56.7155 91.5242 56.7444 91.3088 56.7877 91.0935C56.7877 90.2177 57.5101 89.4711 58.4059 89.4711C59.3017 89.4711 60.0241 90.1602 60.0241 91.036C60.0241 91.2945 59.9952 91.5098 59.9518 91.7252C59.9374 95.6305 61.4689 99.2773 64.2718 102.12H85.0772C87.6634 99.4926 89.166 96.0612 89.3249 92.3713V91.7826C89.3249 91.4093 89.3249 91.036 89.3105 90.6627C84.1958 87.059 78.5177 89.0116 72.5217 91.0647C70.1089 91.8975 67.6093 92.7446 65.2254 93.161C64.3441 93.3045 63.5205 92.7302 63.3616 91.8688C63.2027 90.993 63.795 90.1746 64.6619 90.0167C66.8003 89.6434 69.0686 88.868 71.467 88.0497C77.9109 85.8386 85.2072 83.3404 91.8389 88.5522C92.1568 88.8106 92.3735 89.1695 92.4313 89.5716C92.5324 90.3038 92.5469 91.036 92.5469 91.7683V92.4287C92.3446 97.2241 90.3074 101.618 86.8399 104.862C86.5364 105.15 86.1319 105.307 85.7273 105.307Z" fill="#3A3A3A"/>
<path d="M44.5932 75.3291C43.4229 75.3291 42.2526 74.9128 41.3424 74.08C39.493 72.2422 39.4352 69.2702 41.1545 67.4037C41.169 67.3894 41.1834 67.375 41.1979 67.3607L46.876 61.7181C48.682 59.9234 51.6728 59.866 53.5511 61.5746C54.4902 62.5078 54.9959 63.6995 54.9959 64.963C54.9959 66.2264 54.5046 67.4037 53.6088 68.2939L48.0463 73.9221C47.0927 74.8553 45.8502 75.3291 44.5932 75.3291ZM43.5096 69.5861C42.9606 70.2035 42.9895 71.1798 43.5818 71.7684C44.1598 72.2997 45.1567 72.271 45.749 71.6679L51.3116 66.0398C51.9184 65.4368 51.9184 64.4604 51.326 63.8718C50.7481 63.3405 49.7512 63.3693 49.1588 63.9723L43.5096 69.5861Z" fill="#3A3A3A"/>
<path d="M55.9485 81.7325C55.5295 81.7325 55.1249 81.5746 54.8071 81.2731L50.0825 76.5781C49.4613 75.9607 49.4613 74.9414 50.0825 74.324C50.7038 73.7066 51.7296 73.7066 52.3509 74.324L57.0754 79.0189C57.6967 79.6363 57.6967 80.6557 57.0754 81.2731C56.772 81.5746 56.3675 81.7325 55.9485 81.7325Z" fill="#3A3A3A"/>
<path d="M59.5468 77.4109C59.1422 77.4109 58.7377 77.253 58.4198 76.9515L50.4733 69.1553C49.8376 68.5379 49.8376 67.5186 50.4589 66.9012C51.0802 66.2838 52.106 66.2694 52.7272 66.8868L60.6737 74.683C61.3094 75.3004 61.3095 76.3197 60.6882 76.9371C60.3703 77.253 59.9658 77.4109 59.5468 77.4109Z" fill="#3A3A3A"/>
<path d="M45.1854 67.2601C45.0553 67.2601 44.9253 67.2458 44.7808 67.217L35.1439 64.7763C34.5804 64.6327 34.147 64.2019 33.9881 63.6564C33.8291 63.1108 33.9881 62.5078 34.3926 62.1058L41.4866 54.97C41.8912 54.568 42.4836 54.4101 43.047 54.5537C43.6105 54.6972 44.044 55.128 44.1884 55.6879L45.2287 59.5357C45.4599 60.3828 44.9542 61.2586 44.0873 61.4884C43.2349 61.7324 42.3535 61.2156 42.1224 60.3541L41.8045 59.1912L38.6548 62.3642L45.5755 64.1158C46.4424 64.3312 46.948 65.207 46.7313 66.0541C46.5435 66.7863 45.8933 67.2601 45.1854 67.2601Z" fill="#3A3A3A"/>
<path d="M67.0169 86.054C64.5174 86.054 62.4802 83.9865 62.4802 81.4596C62.4802 78.9757 64.5174 76.9513 67.0169 76.9513C67.8983 76.9513 68.6207 77.6692 68.6207 78.545C68.6207 79.4208 67.8983 80.1387 67.0169 80.1387C66.2945 80.1387 65.6877 80.7417 65.6877 81.4596C65.6877 82.2492 66.2656 82.8666 67.0169 82.8666C67.826 82.8666 68.4328 82.2636 68.4328 81.4596C68.4328 80.5694 69.1552 79.8659 70.0366 79.8659C70.9179 79.8659 71.6403 80.5837 71.6403 81.4596C71.6403 84.0296 69.6176 86.054 67.0169 86.054Z" fill="#3A3A3A"/>
<path d="M67.9554 99.2056H67.7676C66.8863 99.2056 66.1638 98.4877 66.1638 97.6119C66.1638 96.7217 66.8863 96.0182 67.7676 96.0182C68.6489 96.0182 69.4725 96.7361 69.4725 97.6119C69.4725 98.4877 68.8512 99.2056 67.9554 99.2056Z" fill="#3A3A3A"/>
<path d="M77.8808 94.597H77.6929C76.8116 94.597 76.0892 93.8792 76.0892 93.0034C76.0892 92.1132 76.8116 91.4097 77.6929 91.4097C78.5743 91.4097 79.3978 92.1275 79.3978 93.0034C79.3978 93.8935 78.7621 94.597 77.8808 94.597Z" fill="#3A3A3A"/>
<path d="M83.647 99.579H83.358C82.4767 99.579 81.7543 98.8611 81.7543 97.9853C81.7543 97.0951 82.4767 96.3916 83.358 96.3916C84.2394 96.3916 85.1063 97.1095 85.1063 97.9853C85.1207 98.8611 84.5428 99.579 83.647 99.579Z" fill="#3A3A3A"/>
</svg>
