<svg width="140" height="140" viewBox="0 0 140 140" fill="none" xmlns="http://www.w3.org/2000/svg">
<g clip-path="url(#clip0)">
<path fill-rule="evenodd" clip-rule="evenodd" d="M110.401 41.3773C110.401 39.3038 108.616 37.6046 106.542 37.6046H34.4585C32.2981 37.6046 30.5987 39.3038 30.5987 41.3773V94.5123C30.5987 96.5859 32.2981 98.285 34.4585 98.285H106.542C108.616 98.285 110.401 96.5859 110.401 94.5123C110.401 76.8007 110.401 59.089 110.401 41.3773Z" fill="#F3BBA4"/>
<path fill-rule="evenodd" clip-rule="evenodd" d="M30.5987 88.1908V94.4979C30.5987 96.5714 32.2981 98.2706 34.4585 98.2706H106.542C108.616 98.2706 110.401 96.5714 110.401 94.4979V88.1908H30.5987Z" fill="#B9BABA"/>
<path fill-rule="evenodd" clip-rule="evenodd" d="M78.3709 109.387L76.1098 98.2706H64.8904L62.6293 109.387H78.3709Z" fill="#E4E7E7"/>
<path fill-rule="evenodd" clip-rule="evenodd" d="M70.4495 29.5984C77.233 41.0894 78.6444 51.7308 74.7846 61.4362H75.3463C80.4303 54.4667 87.4009 50.4204 96.4455 49.5708C93.5219 55.8779 89.1868 60.5002 83.5412 63.4233C85.7015 64.2729 87.8762 65.3961 90.1374 66.7209C84.9526 69.2696 78.4572 70.0184 70.4495 68.9816C62.5283 70.0184 55.9465 69.2696 50.8481 66.7209C53.0085 65.3961 55.2696 64.2729 57.4443 63.4233C51.7843 60.5002 47.4636 55.8923 44.5399 49.5708C53.5845 50.4204 60.5552 54.4667 65.6392 61.4362H66.1145C62.3555 51.7452 63.7669 41.0894 70.4495 29.5984Z" fill="#C7D9B0"/>
<path d="M106.542 99.8835H34.4584C31.4484 99.8835 29 97.4644 29 94.5124V41.3774C29 38.4111 31.4484 36.0063 34.4584 36.0063H60.08C60.9729 36.0063 61.6786 36.7263 61.6786 37.6047C61.6786 38.4831 60.9585 39.2031 60.08 39.2031H34.4584C33.191 39.2031 32.1973 40.1535 32.1973 41.3774V94.5124C32.1973 95.722 33.191 96.6868 34.4584 96.6868H106.542C107.751 96.6868 108.803 95.6788 108.803 94.5124V41.3774C108.803 40.2255 107.751 39.2031 106.542 39.2031H80.92C80.0271 39.2031 79.3214 38.4831 79.3214 37.6047C79.3214 36.7263 80.0415 36.0063 80.92 36.0063H106.542C109.508 36.0063 112 38.4687 112 41.3774V94.5124C112 97.4212 109.508 99.8835 106.542 99.8835Z" fill="#3A3A3A"/>
<path d="M84.2037 110.986H56.7963C55.9033 110.986 55.1976 110.266 55.1976 109.387C55.1976 108.509 55.9177 107.789 56.7963 107.789H84.2181C85.1111 107.789 85.8168 108.509 85.8168 109.387C85.8168 110.266 85.0967 110.986 84.2037 110.986Z" fill="#3A3A3A"/>
<path d="M62.6436 111C62.5283 111 62.4275 110.986 62.3123 110.971C61.4482 110.784 60.9009 109.934 61.0737 109.071L62.1971 103.699C62.3843 102.835 63.2196 102.288 64.0982 102.461C64.9623 102.648 65.5096 103.498 65.3368 104.362L64.2134 109.733C64.0406 110.482 63.3781 111 62.6436 111Z" fill="#3A3A3A"/>
<path d="M78.3708 111C77.6219 111 76.9594 110.467 76.801 109.718L74.5398 98.6018C74.367 97.7378 74.9287 96.8882 75.7928 96.7154C76.6569 96.5714 77.5067 97.1042 77.6795 97.9682L79.9406 109.085C80.1135 109.949 79.5518 110.798 78.6876 110.971C78.5724 110.986 78.4716 111 78.3708 111Z" fill="#3A3A3A"/>
<path d="M110.401 89.8036H30.5986C29.7201 89.8036 29 89.0837 29 88.1909C29 87.2981 29.7201 86.5925 30.5986 86.5925H110.401C111.294 86.5925 112 87.3125 112 88.1909C112 89.0693 111.294 89.8036 110.401 89.8036Z" fill="#3A3A3A"/>
<path d="M71.1122 94.8868H69.888C68.995 94.8868 68.2893 94.1668 68.2893 93.2884C68.2893 92.3956 69.0094 91.6901 69.888 91.6901H71.1122C72.0051 91.6901 72.7108 92.41 72.7108 93.2884C72.7108 94.1668 72.0051 94.8868 71.1122 94.8868Z" fill="#3A3A3A"/>
<path d="M70.4496 82.6325C69.5567 82.6325 68.851 81.9125 68.851 81.0341V68.9815C68.851 68.0888 69.5711 67.3832 70.4496 67.3832C71.3425 67.3832 72.0483 68.1032 72.0483 68.9815V81.0341C72.0483 81.9269 71.3425 82.6325 70.4496 82.6325Z" fill="#3A3A3A"/>
<path d="M78.7451 66.8217C78.0538 66.8217 77.4201 66.3753 77.2185 65.6841C76.9593 64.8345 77.4345 63.9417 78.2843 63.6825C84.9957 61.6522 90.0077 57.6634 93.5218 51.5292C88.8987 52.4363 84.9525 54.2075 81.7408 56.8427C81.0783 57.4042 80.0557 57.3034 79.4941 56.6267C78.9324 55.9499 79.0332 54.9419 79.7101 54.3803C84.074 50.7948 89.6188 48.606 96.1862 47.9004C96.7623 47.8428 97.324 48.0876 97.6552 48.5628C97.9865 49.0236 98.0585 49.6428 97.8137 50.1612C93.9395 58.6138 87.6745 64.2009 79.206 66.7641C79.0476 66.7929 78.9036 66.8217 78.7451 66.8217ZM73.2867 66.1593C73.0275 66.1593 72.7682 66.0873 72.5234 65.9577C71.7457 65.5401 71.4576 64.5609 71.8753 63.7833C77.2185 53.8907 76.2824 42.6589 69.0813 30.4048C68.6348 29.6416 68.8796 28.6624 69.6429 28.216C70.4063 27.7552 71.3856 28.0144 71.8321 28.7776C79.6525 42.0541 80.603 54.3515 74.6837 65.2953C74.3957 65.8569 73.8484 66.1593 73.2867 66.1593Z" fill="#3A3A3A"/>
<path d="M77.0746 71.0408C74.9287 71.0408 72.6531 70.8824 70.248 70.58C69.3694 70.4648 68.7501 69.6584 68.8654 68.7944C68.9806 67.916 69.7871 67.2825 70.6512 67.4121C78.3708 68.4056 84.5062 67.7145 89.4317 65.2953C90.2239 64.9065 91.1888 65.2377 91.5777 66.0297C91.9665 66.8217 91.6353 67.7864 90.8431 68.1752C86.9257 70.076 82.389 71.0408 77.0746 71.0408Z" fill="#3A3A3A"/>
<path d="M77.8957 75.9511C77.8381 75.9511 77.7949 75.9511 77.7372 75.9511C76.7147 75.8503 75.7929 75.6487 74.972 75.4472C74.1079 75.2312 73.5894 74.3672 73.8054 73.5032C74.0215 72.6392 74.8712 72.1208 75.7497 72.3368C76.441 72.5096 77.2044 72.6824 78.0685 72.7688C78.947 72.8552 79.5951 73.6472 79.5087 74.5256C79.4079 75.332 78.7166 75.9511 77.8957 75.9511Z" fill="#3A3A3A"/>
<path d="M62.2548 66.8215C62.0964 66.8215 61.9524 66.7927 61.7939 66.7495C53.3254 64.1864 47.0605 58.5993 43.1863 50.1466C42.9414 49.6138 43.0134 49.0091 43.3447 48.5483C43.6759 48.0731 44.2376 47.8283 44.8137 47.8859C51.3667 48.5915 56.7532 50.7082 61.2899 54.3514C61.9812 54.8985 62.082 55.9065 61.5347 56.5977C60.9874 57.2889 59.9649 57.4041 59.288 56.8425C55.961 54.1642 52.0724 52.4074 47.4925 51.5146C51.0067 57.6489 56.0042 61.6376 62.7301 63.668C63.5798 63.9272 64.0551 64.82 63.7958 65.6695C63.5798 66.3751 62.9461 66.8215 62.2548 66.8215ZM67.7277 66.1591C67.166 66.1591 66.6043 65.8567 66.3162 65.3239C60.4113 54.3946 61.3331 42.1116 69.0671 28.8063C69.5135 28.0431 70.4929 27.7839 71.2562 28.2303C72.0195 28.6767 72.2788 29.6558 71.8323 30.419C64.7032 42.6876 63.7958 53.9194 69.1247 63.7976C69.5423 64.5752 69.2543 65.5543 68.4766 65.9719C68.2461 66.0871 67.9869 66.1591 67.7277 66.1591Z" fill="#3A3A3A"/>
<path d="M63.9254 71.0263C58.5965 71.0263 53.9734 70.0616 50.1424 68.1464C49.3503 67.7576 49.0335 66.7928 49.4223 66.0008C49.8112 65.2088 50.7905 64.892 51.5682 65.2808C56.3498 67.6712 62.6292 68.3768 70.2479 67.3832C71.1121 67.268 71.933 67.8728 72.0482 68.7656C72.1634 69.644 71.5441 70.4503 70.6656 70.5655C68.3036 70.8823 66.0569 71.0263 63.9254 71.0263Z" fill="#3A3A3A"/>
<path d="M63.1043 75.9512C62.2978 75.9512 61.5921 75.332 61.5201 74.5112C61.4337 73.6328 62.0818 72.8408 62.9603 72.7544C63.8244 72.668 64.5878 72.4952 65.2791 72.3224C66.1432 72.092 67.0073 72.6248 67.2234 73.4888C67.4394 74.3528 66.9209 75.2168 66.0568 75.4328C65.2359 75.6344 64.3141 75.836 63.2916 75.9368C63.2051 75.9512 63.1619 75.9512 63.1043 75.9512Z" fill="#3A3A3A"/>
</g>
<defs>
<clipPath id="clip0">
<rect width="83" height="83" fill="white" transform="translate(29 28)"/>
</clipPath>
</defs>
</svg>
