<svg id="Layer_1" data-name="Layer 1" xmlns="http://www.w3.org/2000/svg" viewBox="0 0 55.14 63.02"><defs><style>.cls-1{fill:#e5a030;}</style></defs><title>home-01-64x64</title><path class="cls-1" d="M56.54,44.54l3-1.29-2.68-1.92a29.67,29.67,0,0,0-13.32-4.74l-.41,0c1.38-1.14,2.79-2.43,4.21-3.85A34.82,34.82,0,0,0,56.24,17l.6-2.8-2.79.6a34.69,34.69,0,0,0-15.71,8.9,2.5,2.5,0,0,0-.23.23c0-.58,0-1.17,0-1.76A35.7,35.7,0,0,0,32.71,3.18L31.2,1l-1.52,2.2a35.84,35.84,0,0,0-5.41,19c0,.59,0,1.18,0,1.76l-.24-.23a34.68,34.68,0,0,0-15.7-8.9l-2.79-.6L6.15,17A34.9,34.9,0,0,0,15,32.71a55.6,55.6,0,0,0,4.19,3.83l-.64.05A21.82,21.82,0,0,0,6.31,41.48L4.43,43.24l2.26,1.23A23.35,23.35,0,0,0,18,46.58a17.58,17.58,0,0,0-3.23,5.15l-1,2.83,3-.36a32.06,32.06,0,0,0,12.54-4.64V64h3.69V49.52a35.15,35.15,0,0,0,12.49,4.67l3.06.46-1-2.92a18,18,0,0,0-3.23-5.15A31.2,31.2,0,0,0,56.54,44.54ZM43,42.79c-1.16-.1-2.29-.25-3.36-.42l-6-1,4.44,4.16a40,40,0,0,1,3.75,4c-2.93-.9-6.8-2.5-9.44-5.15l-1.3-1.31-1.31,1.31a22.84,22.84,0,0,1-9.51,5.25,39.18,39.18,0,0,1,3.82-4.08l4.44-4.16-6,1c-1.07.17-2.2.32-3.36.43a23.32,23.32,0,0,1-7.43-.48,20.07,20.07,0,0,1,7.2-2,43.65,43.65,0,0,1,5.59-.19,1.9,1.9,0,0,0,1-3.54,42.24,42.24,0,0,1-7.92-6.46,31.45,31.45,0,0,1-6.83-10.66,31.33,31.33,0,0,1,10.63,6.84,53.72,53.72,0,0,1,3.61,4l4,4.87-.72-6.25A61.89,61.89,0,0,1,28,22.13,33.32,33.32,0,0,1,31.2,8a33.16,33.16,0,0,1,3.24,14.09,59.39,59.39,0,0,1-.36,6.74l-.71,6.25,4-4.87a53.72,53.72,0,0,1,3.61-4,31.29,31.29,0,0,1,10.64-6.84,31.33,31.33,0,0,1-6.83,10.66,42.54,42.54,0,0,1-7.92,6.45,1.91,1.91,0,0,0,1,3.54,43.82,43.82,0,0,1,5.36.2,25.62,25.62,0,0,1,7.75,2A27.2,27.2,0,0,1,43,42.79Z" transform="translate(-4.43 -0.98)"/></svg>