<svg width="64" height="64" viewBox="0 0 64 64" fill="none" xmlns="http://www.w3.org/2000/svg">
<path d="M50.693 49.1776L53 48.1925L50.9585 46.7328C50.7835 46.6075 46.6106 43.665 40.8125 43.1238C40.7074 43.1143 40.6022 43.1047 40.4977 43.0956C41.5488 42.2317 42.6269 41.2484 43.7061 40.1659C48.9823 34.8752 50.4048 28.4402 50.4629 28.1688L50.9179 26.0389L48.7935 26.4952C48.5229 26.5531 42.1058 27.9795 36.8296 33.2701C36.77 33.3298 36.7109 33.3892 36.6517 33.4489C36.6626 33.0061 36.6681 32.5579 36.6681 32.1045C36.6681 23.7454 32.7125 17.9186 32.5442 17.6747L31.3883 16L30.232 17.6747C30.064 17.9186 26.1084 23.7454 26.1084 32.1045C26.1084 32.5579 26.1139 33.0065 26.1245 33.4489C26.0657 33.3892 26.0065 33.3298 25.947 33.2701C20.6708 27.9795 14.2537 26.5531 13.983 26.4952L11.8586 26.0389L12.3137 28.1692C12.3717 28.4406 13.7939 34.8752 19.0701 40.1659C20.1438 41.2426 21.216 42.2214 22.2616 43.0817C22.1024 43.0948 21.9425 43.1091 21.7814 43.1241C15.884 43.6746 12.5679 46.7207 12.4298 46.85L11 48.1881L12.7205 49.1208C12.867 49.2 16.1396 50.9369 21.3106 50.7333C20.0956 52.1732 19.2717 53.485 18.8495 54.6539L18.0719 56.8069L20.3392 56.5337C20.5904 56.5033 25.6004 55.8665 29.8909 52.9976V64H32.7027V52.9686C36.8756 55.6962 41.9571 56.4894 42.2139 56.5282L44.5476 56.8787L43.7441 54.6539C43.3219 53.485 42.4976 52.1732 41.2826 50.7329C46.4985 50.938 50.5125 49.2545 50.693 49.1776ZM40.3739 47.8479C39.4901 47.7655 38.6289 47.6556 37.8142 47.5212L33.2435 46.7683L36.6254 49.9419C37.7681 51.0142 38.7297 52.0385 39.477 52.9727C37.2448 52.2842 34.303 51.0636 32.2911 49.0461L31.297 48.0493L30.3029 49.0461C28.1675 51.187 25.2458 52.3937 23.0596 53.0448C23.8145 52.0912 24.7958 51.042 25.9682 49.9419L29.3508 46.7679L24.7794 47.5216C23.9675 47.6553 23.1064 47.7651 22.2196 47.8483C19.8969 48.0651 17.9617 47.8149 16.5592 47.4872C17.8612 46.8302 19.7114 46.149 22.0418 45.9315C23.5837 45.7876 25.0179 45.7396 26.3045 45.788C26.9674 45.8147 27.5605 45.3851 27.7478 44.7479C27.9352 44.1107 27.6679 43.4285 27.0978 43.0886C25.2692 42.0006 23.1805 40.3007 21.0583 38.1722C18.2871 35.3934 16.6973 32.2004 15.8606 30.0522C18.0033 30.8916 21.1876 32.4854 23.9584 35.2638C24.969 36.2771 25.894 37.2966 26.7077 38.2931L29.735 42.0017L29.1926 37.2402C29.0115 35.6527 28.9198 33.9246 28.9198 32.1045C28.9198 27.4393 30.3299 23.604 31.3908 21.3782C32.4514 23.5963 33.856 27.4188 33.856 32.1045C33.856 33.9242 33.7643 35.6523 33.5836 37.2402L33.0409 42.0013L36.0681 38.2931C36.8821 37.2963 37.8072 36.2771 38.8174 35.2638C41.5912 32.4824 44.7791 30.8883 46.9211 30.0497C46.0891 32.1924 44.503 35.3795 41.7175 38.1722C39.5989 40.2966 37.5136 41.9951 35.6868 43.0835C35.1189 43.4219 34.8516 44.1019 35.036 44.7373C35.2204 45.3727 35.8099 45.8015 36.4702 45.7825C37.7137 45.7444 39.0869 45.7946 40.5514 45.9315C42.8756 46.1483 44.9226 46.824 46.4536 47.489C44.8328 47.8201 42.7058 48.0654 40.3739 47.8479Z" fill="#8EB360"/>
</svg>
