<svg width="70" height="70" viewBox="0 0 70 70" fill="none" xmlns="http://www.w3.org/2000/svg">
<path fill-rule="evenodd" clip-rule="evenodd" d="M45.2638 24.0485C51.9347 35.3961 52.7788 45.7472 47.7962 55.1137C52.3216 47.0602 59.1449 42.6173 68.1957 41.6912C64.6668 49.4399 58.758 54.2697 50.5513 56.2625C55.6863 55.2661 60.3641 56.1805 64.6668 59.0291C59.7545 61.7957 54.4671 61.5612 48.7927 58.3375C50.3285 59.6387 51.3251 61.1744 51.8644 63.0969C48.9451 62.9445 46.5769 61.5612 45.2638 59.0291C44.0328 61.5612 41.6646 62.9445 38.7454 63.0969C39.2026 61.1744 40.2812 59.6504 41.817 58.3375C36.1427 61.5612 30.8435 61.784 25.943 59.0291C30.2339 56.1922 34.9117 55.2661 40.0584 56.2625C31.8518 54.2697 25.9429 49.4399 22.4141 41.6912C31.4649 42.6173 38.2881 47.0602 42.8136 55.1137C37.8192 45.759 38.6633 35.3961 45.2638 24.0485Z" fill="#8EB360"/>
<path fill-rule="evenodd" clip-rule="evenodd" d="M2.92969 37.7757V24.658C2.92969 21.2115 7.15026 20.2151 9.83502 18.4449L14.5949 20.895L19.3548 18.4449C22.1216 20.2034 26.3305 21.2115 26.3305 24.658V37.7757C26.3305 38.6198 25.6388 39.2294 24.8767 39.2294H21.6527V40.1555C17.0452 41.4567 12.1446 41.4567 7.53716 40.1555V39.2294H4.39517C3.53933 39.2294 2.92969 38.6198 2.92969 37.7757Z" fill="#F6F7F7"/>
<path fill-rule="evenodd" clip-rule="evenodd" d="M14.5833 2.11523C11.7461 2.11523 9.51855 3.9557 9.51855 6.72226C9.51855 9.10198 10.2103 12.0092 12.1212 13.5449V14.9282C12.1212 16.5342 11.1247 17.5306 9.82339 18.4567L14.5833 20.9068L19.3431 18.4567C18.1121 17.5306 17.1156 16.5342 17.1156 14.9282V13.5449C19.0383 12.0913 19.7183 8.86752 19.7183 6.72226C19.7183 3.9557 17.4204 2.11523 14.5833 2.11523Z" fill="#F3BBA4"/>
<path fill-rule="evenodd" clip-rule="evenodd" d="M8.21611 63.7768C12.2022 65.9221 17.0324 65.9221 21.0303 63.7768L21.6399 41.3043V40.1555C17.0324 41.4567 12.2022 41.4567 7.52441 40.1555V41.3043L8.21611 63.7768Z" fill="#649EC8"/>
<path fill-rule="evenodd" clip-rule="evenodd" d="M14.5822 65.1601C14.5822 64.0816 13.738 63.2375 12.7415 63.2375H9.44711C8.45059 63.2375 7.52441 64.0816 7.52441 65.1601V67.0826H14.5822H21.6399V65.1601C21.6399 64.0816 20.7958 63.2375 19.7993 63.2375H16.5049C15.5084 63.2375 14.5822 64.0816 14.5822 65.1601Z" fill="#B9BABA"/>
<path fill-rule="evenodd" clip-rule="evenodd" d="M7.52399 39.2294L3.45621 38.8425C2.91696 40.9175 3.15141 42.6759 4.14784 44.0592C4.99188 45.29 6.14072 45.29 7.59434 44.2116L7.52399 39.2294Z" fill="#F3BBA4"/>
<path fill-rule="evenodd" clip-rule="evenodd" d="M21.6396 39.2294L25.7778 38.8425C26.317 40.9175 26.0826 42.6759 25.0861 44.0592C24.2421 45.29 23.0933 45.29 21.6396 44.2116V39.2294Z" fill="#F3BBA4"/>
<path d="M15.8832 15.3853C15.3439 15.3853 14.8515 15.0571 14.6522 14.5296C14.406 13.8497 14.7578 13.1111 15.4377 12.8649C17.5011 12.1147 18.2632 8.78543 18.2632 6.72223C18.2632 4.45974 16.317 3.42814 14.5116 3.42814C12.6357 3.42814 10.7482 4.44802 10.7482 6.72223C10.7482 8.62131 11.3578 11.1769 12.6826 12.3374C13.2219 12.8063 13.2806 13.6269 12.8116 14.1779C12.3426 14.7171 11.522 14.7875 10.9709 14.3069C8.88409 12.4898 8.14551 9.09022 8.14551 6.72223C8.14551 3.29919 10.8186 0.813965 14.5116 0.813965C18.2046 0.813965 20.8776 3.29919 20.8776 6.72223C20.8776 9.30123 19.9162 14.0138 16.3405 15.315C16.1881 15.3619 16.0357 15.3853 15.8832 15.3853Z" fill="#3A3A3A"/>
<path d="M7.45453 42.6056C6.72772 42.6056 6.15332 42.0195 6.15332 41.3044V25.5842C6.15332 24.8574 6.73944 24.283 7.45453 24.283C8.18134 24.283 8.75576 24.8691 8.75576 25.5842V41.3044C8.75576 42.0312 8.16961 42.6056 7.45453 42.6056Z" fill="#3A3A3A"/>
<path d="M21.558 42.6055C20.8312 42.6055 20.2568 42.0193 20.2568 41.3043V25.5841C20.2568 24.8572 20.843 24.2828 21.558 24.2828C22.2731 24.2828 22.8593 24.869 22.8593 25.5841V41.3043C22.871 42.0311 22.2849 42.6055 21.558 42.6055Z" fill="#3A3A3A"/>
<path d="M14.5115 68.3722C13.7846 68.3722 13.2101 67.786 13.2101 67.0709V65.1602C13.2101 64.8085 12.9522 64.5388 12.5887 64.5388H9.36468C9.01297 64.5388 8.74331 64.7967 8.74331 65.1602V65.7697H11.2757C12.0026 65.7697 12.577 66.3558 12.577 67.0709C12.577 67.786 11.9908 68.3722 11.2757 68.3722H7.44198C6.7151 68.3722 6.14062 67.786 6.14062 67.0709V65.1602C6.14062 63.3549 7.55921 61.9364 9.36468 61.9364H12.5887C14.3942 61.9364 15.8128 63.3549 15.8128 65.1602V67.0709C15.8128 67.7977 15.2266 68.3722 14.5115 68.3722Z" fill="#3A3A3A"/>
<path d="M21.5583 68.3721C20.8314 68.3721 20.257 67.7859 20.257 67.0708V65.16C20.257 64.8084 19.999 64.5387 19.6473 64.5387H16.4233C16.0715 64.5387 15.8136 64.7966 15.8136 65.16C15.8136 65.3828 15.755 65.5938 15.6612 65.7696H18.346C19.0729 65.7696 19.6473 66.3557 19.6473 67.0708C19.6473 67.7859 19.0611 68.3721 18.346 68.3721H14.5123C13.7854 68.3721 13.2109 67.7859 13.2109 67.0708C13.2109 66.6957 13.3751 66.3557 13.633 66.1096C13.3751 65.8634 13.2109 65.5234 13.2109 65.1483C13.2109 63.343 14.6295 61.9246 16.435 61.9246H19.659C21.4645 61.9246 22.8831 63.343 22.8831 65.1483V67.0591C22.8714 67.7977 22.2852 68.3721 21.5583 68.3721Z" fill="#3A3A3A"/>
<path d="M7.45467 40.5423H4.31271C2.8355 40.5423 1.62793 39.3348 1.62793 37.8577V24.3649C1.62793 21.0708 4.54718 19.5703 6.89195 18.3745C9.24845 17.1671 10.6787 16.3231 10.6787 14.7874V13.4862C10.6787 12.7594 11.2649 12.1849 11.9801 12.1849C12.707 12.1849 13.2814 12.7711 13.2814 13.4862V14.7874C13.2814 18.0346 10.3974 19.5117 8.07604 20.6957C5.68438 21.9148 4.23062 22.7823 4.23062 24.3649V37.8577L7.45467 37.9398C8.18155 37.9398 8.75603 38.5259 8.75603 39.241C8.75603 39.9561 8.16983 40.5423 7.45467 40.5423Z" fill="#3A3A3A"/>
<path d="M14.512 42.4414C12.0149 42.4414 9.51766 42.1014 7.10255 41.4098C6.41084 41.2105 6.00052 40.4954 6.19982 39.8038C6.39913 39.1121 7.11427 38.7018 7.80598 38.9011C12.1907 40.1437 16.8216 40.1437 21.2063 38.9011C21.8863 38.6901 22.6132 39.1121 22.8125 39.8038C23.0118 40.4954 22.6015 41.2222 21.9098 41.4098C19.4947 42.1014 16.9975 42.4414 14.512 42.4414Z" fill="#3A3A3A"/>
<path d="M8.06385 65.078C7.36048 65.078 6.77434 64.5153 6.76261 63.8119L6.15304 41.3394C6.12959 40.6244 6.70401 40.0265 7.4191 40.0031C8.12246 40.0031 8.73203 40.554 8.75548 41.2691L9.36506 63.7416C9.3885 64.4567 8.81408 65.0545 8.09899 65.078C8.08727 65.078 8.07557 65.078 8.06385 65.078Z" fill="#3A3A3A"/>
<path d="M20.8781 65.0781C20.8664 65.0781 20.8547 65.0781 20.8429 65.0781C20.1161 65.0547 19.5534 64.4568 19.5769 63.7417L20.2685 41.2692C20.292 40.5541 20.9602 40.0735 21.6049 40.0032C22.3317 40.0266 22.8944 40.6245 22.871 41.3396L22.1793 63.8121C22.1559 64.5154 21.5815 65.0781 20.8781 65.0781Z" fill="#3A3A3A"/>
<path d="M14.5122 61.2448C13.7854 61.2448 13.2109 60.6587 13.2109 59.9436V47.5996C13.2109 46.8728 13.7971 46.2983 14.5122 46.2983C15.239 46.2983 15.8134 46.8845 15.8134 47.5996V59.9436C15.8134 60.6587 15.2273 61.2448 14.5122 61.2448Z" fill="#3A3A3A"/>
<path d="M3.99586 45.3721C3.59728 45.3721 3.18699 45.1845 2.94081 44.8328C1.72164 43.1448 1.41687 40.9643 2.0499 38.526C2.23746 37.8344 2.94081 37.4241 3.64417 37.5882C4.33581 37.7758 4.75783 38.4791 4.58199 39.1825C4.14825 40.8706 4.31238 42.2538 5.06264 43.3089C5.48465 43.895 5.3557 44.7039 4.76957 45.1259C4.53511 45.29 4.26548 45.3721 3.99586 45.3721Z" fill="#3A3A3A"/>
<path d="M24.712 40.5423H21.57C20.8431 40.5423 20.2686 39.9561 20.2686 39.241C20.2686 38.5142 20.8548 37.9398 21.57 37.9398H24.712L24.794 24.3649C24.794 22.7823 23.3285 21.9148 20.9134 20.6957C18.5687 19.5117 15.6611 18.0229 15.6611 14.7874V13.4862C15.6611 12.7594 16.2473 12.1849 16.9625 12.1849C17.6894 12.1849 18.2638 12.7711 18.2638 13.4862V14.7874C18.2638 16.3231 19.7059 17.1671 22.0858 18.3745C24.4423 19.5703 27.385 21.0708 27.385 24.3649V37.8577C27.3967 39.3348 26.1892 40.5423 24.712 40.5423Z" fill="#3A3A3A"/>
<path d="M24.9352 45.3722C24.6539 45.3722 24.3725 45.2784 24.1381 45.1026C23.5754 44.6571 23.4699 43.8365 23.9153 43.2738C24.7242 42.2305 24.8766 40.9058 24.3842 39.2295C24.1732 38.5378 24.5718 37.811 25.2635 37.6117C25.9551 37.4007 26.6819 37.7993 26.8812 38.4909C27.608 40.9644 27.2915 43.1683 25.9668 44.8798C25.7089 45.1963 25.3221 45.3722 24.9352 45.3722Z" fill="#3A3A3A"/>
<path d="M14.4655 21.1413C12.5311 21.1413 10.5967 20.4379 9.08429 19.0194C8.55672 18.5271 8.53327 17.7065 9.02567 17.179C9.51808 16.6515 10.3505 16.628 10.8663 17.1204C12.8828 19.0195 16.0365 19.0195 18.053 17.1204C18.5806 16.628 19.4013 16.6632 19.8937 17.179C20.3861 17.7065 20.3626 18.5271 19.8351 19.0194C18.3344 20.4379 16.4 21.1413 14.4655 21.1413Z" fill="#3A3A3A"/>
<path d="M45.2631 68.3721C44.5363 68.3721 43.9619 67.7859 43.9619 67.0709V58.4781C43.9619 57.7513 44.548 57.1769 45.2631 57.1769C45.9782 57.1769 46.5644 57.763 46.5644 58.4781V67.0709C46.5644 67.7977 45.9782 68.3721 45.2631 68.3721Z" fill="#3A3A3A"/>
<path d="M33.2004 61.6433C30.5859 61.6433 28.0184 60.9751 25.5447 59.627C25.1344 59.4042 24.8764 58.9822 24.8647 58.525C24.853 58.0678 25.0758 57.6224 25.4744 57.3762C27.1978 56.286 28.7336 55.5357 30.1404 55.0903C30.8321 54.8793 31.559 55.2544 31.7818 55.946C31.9928 56.6377 31.6177 57.3645 30.9259 57.5872C30.3398 57.7748 29.7184 58.021 29.0501 58.3492C32.5556 59.5566 36.1548 59.2167 40.0002 57.3176C40.645 57.0011 41.4305 57.259 41.747 57.9155C42.0636 58.5602 41.8057 59.3456 41.1491 59.6621C38.4644 60.9868 35.8031 61.6433 33.2004 61.6433Z" fill="#3A3A3A"/>
<path d="M39.1322 56.8018C39.0267 56.8018 38.9094 56.79 38.7922 56.7549C33.622 55.3833 29.3194 52.7691 26.025 48.9944C25.556 48.4552 25.6029 47.6229 26.1539 47.154C26.6932 46.685 27.5139 46.7319 27.9946 47.2829C30.949 50.6591 34.8061 53.0036 39.4605 54.2345C40.1522 54.422 40.5742 55.1371 40.3867 55.8288C40.2343 56.4149 39.7067 56.8018 39.1322 56.8018ZM36.4474 48.209C36.1543 48.209 35.8613 48.1152 35.6151 47.9042C33.9034 46.4857 31.9572 45.3135 29.8235 44.4226C29.1552 44.1529 28.8387 43.3792 29.12 42.7228C29.4014 42.0546 30.1635 41.738 30.82 42.0194C33.2117 43.0041 35.3806 44.3053 37.2916 45.8996C37.8426 46.3568 37.9247 47.1891 37.4557 47.7401C37.1861 48.0449 36.8109 48.209 36.4474 48.209Z" fill="#3A3A3A"/>
<path d="M42.8134 55.9577C42.3444 55.9577 41.8872 55.6998 41.6645 55.2543C36.612 45.63 37.4443 34.9036 44.1497 23.3919C44.5131 22.7706 45.322 22.5596 45.9316 22.923C46.5529 23.2864 46.7639 24.0836 46.4005 24.7049C40.1757 35.396 39.3669 45.2666 43.9739 54.0469C44.3139 54.6799 44.0677 55.4653 43.4229 55.8053C43.2236 55.8991 43.0126 55.9577 42.8134 55.9577Z" fill="#3A3A3A"/>
<path d="M39.2729 64.4684C38.6516 64.4684 38.0889 64.0112 37.9834 63.3665C37.8662 62.6514 38.3468 61.9832 39.0619 61.866C41.5002 61.4674 43.2235 60.131 44.0323 58.0092C44.2902 57.3293 45.0405 57.001 45.7204 57.2589C46.3886 57.5168 46.7286 58.2671 46.4707 58.947C45.3218 61.948 42.8366 63.9057 39.4839 64.445C39.4136 64.4567 39.3433 64.4684 39.2729 64.4684Z" fill="#3A3A3A"/>
<path d="M57.3981 61.655C54.8071 61.655 52.1576 60.9868 49.4494 59.6504C48.8046 59.3339 48.5349 58.5485 48.8514 57.9037C49.168 57.259 49.9535 57.0011 50.5983 57.3059C54.4671 59.205 58.0547 59.5566 61.5249 58.3257C60.8801 58.0092 60.247 57.763 59.6139 57.5755C58.9222 57.3645 58.5353 56.6377 58.7346 55.946C58.9457 55.2544 59.6725 54.8675 60.3642 55.0668C61.9001 55.524 63.4476 56.286 65.089 57.3762C65.4641 57.6341 65.6869 58.0561 65.6634 58.5133C65.64 58.9705 65.3938 59.3808 64.9952 59.6035C62.5449 60.9751 60.0008 61.655 57.3981 61.655Z" fill="#3A3A3A"/>
<path d="M51.3956 56.8017C50.8211 56.8017 50.2936 56.4149 50.1411 55.8405C49.9536 55.1371 50.3639 54.4337 51.0556 54.2462C57.5506 52.4877 62.3222 48.842 65.5814 43.1096C61.4312 43.8598 57.9492 45.4424 54.9948 47.9159C54.4438 48.3848 53.6231 48.3027 53.1542 47.7518C52.6969 47.2008 52.7673 46.3802 53.3183 45.9113C57.2575 42.6172 61.9705 40.7416 67.7504 40.1671C68.2428 40.1085 68.6765 40.3313 68.9462 40.7064C69.2158 41.0815 69.2627 41.5856 69.0634 42.0076C65.5228 49.6391 59.6961 54.6095 51.7356 56.7548C51.6301 56.7783 51.5128 56.8017 51.3956 56.8017Z" fill="#3A3A3A"/>
<path d="M47.7135 55.9578C47.5025 55.9578 47.2915 55.9109 47.104 55.8054C46.4709 55.4655 46.2248 54.68 46.5647 54.047C51.2421 45.2667 50.4332 35.3961 44.1381 24.7167C43.7747 24.0954 43.974 23.2983 44.5953 22.9349C45.2049 22.5715 46.0137 22.7707 46.3771 23.392C53.1646 34.9038 53.9969 45.6301 48.8624 55.2662C48.6279 55.6999 48.1825 55.9578 47.7135 55.9578Z" fill="#3A3A3A"/>
<path d="M51.3259 64.4684C51.2555 64.4684 51.1852 64.4567 51.1148 64.445C47.7501 63.9058 45.1708 61.9012 44.0454 58.9471C43.7874 58.2789 44.1274 57.5286 44.7957 57.259C45.4639 57.0128 46.226 57.341 46.4839 58.0092C47.2811 60.0959 49.0749 61.4674 51.5369 61.866C52.252 61.9832 52.7327 62.6514 52.6155 63.3665C52.51 64.0113 51.959 64.4684 51.3259 64.4684Z" fill="#3A3A3A"/>
</svg>
