<svg width="70" height="70" viewBox="0 0 70 70" fill="none" xmlns="http://www.w3.org/2000/svg">
<path d="M43.6453 18.937H7.79395V66.7481H43.6453V18.937Z" fill="#E8F5FD"/>
<path d="M31.7917 27.9375H7.79395V58.1197H31.7917V27.9375Z" fill="#F3BBA4"/>
<path d="M46.4188 9.49658H5.00977V18.937H46.4188V9.49658Z" fill="#B9BABA"/>
<path d="M42.7617 4.25195H8.66602V9.48533H42.7617V4.25195Z" fill="#F6F7F7"/>
<path fill-rule="evenodd" clip-rule="evenodd" d="M43.635 26.4598C48.902 35.5393 49.9979 43.7954 47.001 51.3974L47.4371 51.4763C51.3845 45.9384 56.7969 42.848 63.8196 42.1036C61.5495 47.0438 58.1835 50.6643 53.8 52.9539C55.4774 53.6193 57.1659 54.4991 58.9216 55.5367C54.8959 57.5331 49.8525 58.1196 43.635 57.3075C37.4846 58.1196 32.3742 57.5331 28.4155 55.5367C30.0929 54.4991 31.8486 53.6193 33.5372 52.9539C29.1424 50.6643 25.7876 47.055 23.5176 42.1036C30.5402 42.8367 35.9526 45.9384 39.9 51.4763L40.2691 51.3974C37.3504 43.8067 38.4463 35.5393 43.635 26.4598Z" fill="#C5E7A3"/>
<path d="M46.4189 20.1891H19.5695C18.8874 20.1891 18.3283 19.6251 18.3283 18.9371C18.3283 18.2378 18.8874 17.6852 19.5695 17.6852H45.1776V10.7487H38.3786C37.6965 10.7487 37.1373 10.1847 37.1373 9.49671C37.1373 8.79743 37.6965 8.24475 38.3786 8.24475H46.4301C47.1122 8.24475 47.6713 8.8087 47.6713 9.49671V18.9371C47.6601 19.6364 47.101 20.1891 46.4189 20.1891ZM13.0613 20.1891H5.00982C4.32768 20.1891 3.76855 19.6251 3.76855 18.9371V9.49671C3.76855 8.79743 4.32768 8.24475 5.00982 8.24475H31.8592C32.5413 8.24475 33.1004 8.8087 33.1004 9.49671C33.1004 10.196 32.5413 10.7487 31.8592 10.7487H6.25108V17.6852H13.0501C13.7322 17.6852 14.2914 18.2491 14.2914 18.9371C14.3025 19.6364 13.7434 20.1891 13.0613 20.1891Z" fill="#3A3A3A"/>
<path d="M42.7627 10.7486C42.0806 10.7486 41.5214 10.1846 41.5214 9.49663V5.51519H9.90831V9.49663C9.90831 10.1959 9.34918 10.7486 8.66705 10.7486C7.98491 10.7486 7.42578 10.1846 7.42578 9.49663V4.25196C7.42578 3.55267 7.98491 3 8.66705 3H42.7627C43.4448 3 44.004 3.56395 44.004 4.25196V9.49663C44.004 10.1846 43.4448 10.7486 42.7627 10.7486Z" fill="#3A3A3A"/>
<path d="M38.8042 68H7.79498C7.11284 68 6.55371 67.4361 6.55371 66.7481V18.937C6.55371 18.2377 7.11284 17.6851 7.79498 17.6851C8.47711 17.6851 9.03624 18.249 9.03624 18.937V65.4961H38.8042C39.4864 65.4961 40.0455 66.06 40.0455 66.7481C40.0455 67.4361 39.4976 68 38.8042 68ZM43.6351 22.8508C42.953 22.8508 42.3938 22.2868 42.3938 21.5988V18.937C42.3938 18.2377 42.953 17.6851 43.6351 17.6851C44.3172 17.6851 44.8764 18.249 44.8764 18.937V21.5988C44.8764 22.2868 44.3284 22.8508 43.6351 22.8508Z" fill="#3A3A3A"/>
<path d="M24.6136 59.3717H7.79498C7.11284 59.3717 6.55371 58.8078 6.55371 58.1198C6.55371 57.4205 7.11284 56.8678 7.79498 56.8678H24.6247C25.3069 56.8678 25.866 57.4318 25.866 58.1198C25.8548 58.8078 25.3069 59.3717 24.6136 59.3717ZM31.7816 40.8519C31.0995 40.8519 30.5403 40.2879 30.5403 39.5999V29.2008H7.79498C7.11284 29.2008 6.55371 28.6369 6.55371 27.9488C6.55371 27.2496 7.11284 26.6969 7.79498 26.6969H31.7928C32.4749 26.6969 33.034 27.2608 33.034 27.9488V39.6112C33.034 40.2879 32.4749 40.8519 31.7816 40.8519Z" fill="#3A3A3A"/>
<path d="M43.6348 68C42.9527 68 42.3936 67.436 42.3936 66.748V57.3076C42.3936 56.6083 42.9527 56.0557 43.6348 56.0557C44.317 56.0557 44.8761 56.6196 44.8761 57.3076V66.748C44.8761 67.4473 44.3281 68 43.6348 68Z" fill="#3A3A3A"/>
<path d="M50.0751 55.6835C49.5495 55.6835 49.0575 55.3451 48.8898 54.8038C48.6885 54.1383 49.0463 53.439 49.7061 53.2247C54.9284 51.5667 58.8199 48.4199 61.5484 43.6377C58.0036 44.3483 54.9395 45.7694 52.4123 47.8673C51.8755 48.3071 51.0927 48.2282 50.6566 47.6981C50.2205 47.168 50.2988 46.3785 50.8244 45.9386C54.2798 43.0738 58.5851 41.3368 63.6284 40.7841C64.0757 40.7277 64.5118 40.9308 64.769 41.303C65.0262 41.6752 65.0709 42.1489 64.892 42.5549C61.8951 49.1418 57.0419 53.5405 50.4553 55.6271C50.3211 55.661 50.1981 55.6835 50.0751 55.6835ZM45.8257 55.1647C45.6245 55.1647 45.4232 55.1196 45.2443 55.018C44.6404 54.691 44.4167 53.9353 44.7299 53.315C48.9345 45.3859 48.23 36.814 42.5604 27.0916C42.2138 26.4938 42.4151 25.7269 43.0077 25.3772C43.6004 25.0163 44.3608 25.2193 44.7075 25.8171C50.7684 36.2049 51.5177 45.8596 46.9216 54.4992C46.698 54.9278 46.273 55.1647 45.8257 55.1647Z" fill="#3A3A3A"/>
<path d="M48.7783 58.9205C47.1121 58.9205 45.3453 58.7964 43.4778 58.5596C42.7957 58.4694 42.3148 57.8377 42.4043 57.161C42.4937 56.473 43.1199 55.9767 43.8021 56.0782C49.7848 56.8565 54.5597 56.3151 58.3842 54.4203C58.9992 54.1157 59.7484 54.3751 60.0504 54.9955C60.3523 55.6158 60.0951 56.3715 59.4801 56.676C56.4272 58.1648 52.8935 58.9205 48.7783 58.9205Z" fill="#3A3A3A"/>
<path d="M49.4156 62.7667C49.3709 62.7667 49.3373 62.7667 49.2926 62.7667C48.4316 62.6764 47.7159 62.5862 47.0002 62.3268C46.3628 62.0786 46.0273 61.3568 46.2733 60.7139C46.5193 60.071 47.2238 59.7439 47.8724 59.9808C48.2974 60.1387 48.8341 60.2064 49.5386 60.274C50.2208 60.3417 50.724 60.962 50.6569 61.65C50.5898 62.2817 50.053 62.7667 49.4156 62.7667Z" fill="#3A3A3A"/>
<path d="M37.2715 55.6835C37.1485 55.6835 37.0255 55.6609 36.9025 55.6271C30.3159 53.5405 25.4627 49.1418 22.4658 42.5549C22.2757 42.1376 22.3204 41.6639 22.5888 41.303C22.846 40.942 23.2933 40.739 23.7294 40.7841C28.6833 41.3255 32.9774 43.0512 36.5223 45.9273C37.059 46.3559 37.1373 47.1454 36.7124 47.6868C36.2874 48.2282 35.5047 48.3184 34.9679 47.8785C32.3288 45.7356 29.3207 44.337 25.8206 43.6377C28.5379 48.4312 32.4295 51.578 37.6629 53.236C38.3227 53.439 38.6805 54.1496 38.4792 54.815C38.2891 55.3451 37.7971 55.6835 37.2715 55.6835ZM41.5209 55.1647C41.0736 55.1647 40.6486 54.9278 40.425 54.4992C35.8513 45.8822 36.567 36.2387 42.572 25.8284C42.9187 25.2306 43.6791 25.0276 44.2718 25.3772C44.8645 25.7269 45.0658 26.4938 44.7191 27.0916C39.1054 36.8365 38.4233 45.4085 42.6168 53.3149C42.9411 53.924 42.7174 54.6797 42.1024 55.018C41.9123 55.1195 41.711 55.1647 41.5209 55.1647Z" fill="#3A3A3A"/>
<path d="M38.5693 58.9093C34.4318 58.9093 30.8422 58.1536 27.8676 56.6535C27.2526 56.349 27.0066 55.5933 27.3085 54.973C27.6104 54.3526 28.3596 54.0932 28.9747 54.409C32.6873 56.2813 37.5629 56.834 43.4785 56.0557C44.1606 55.9655 44.7868 56.4505 44.8763 57.1385C44.9658 57.8265 44.4849 58.4581 43.8028 58.5484C41.9688 58.7965 40.2244 58.9093 38.5693 58.9093Z" fill="#3A3A3A"/>
<path d="M37.932 62.7667C37.3057 62.7667 36.7578 62.2817 36.6907 61.6388C36.6236 60.9508 37.1156 60.3304 37.8089 60.2628C38.5134 60.1951 39.039 60.1274 39.4751 59.9695C40.1237 59.7327 40.8282 60.0598 41.0743 60.7027C41.3203 61.3456 40.9848 62.0674 40.3474 62.3155C39.6429 62.5862 38.9272 62.6765 38.055 62.7554C38.0102 62.7667 37.9767 62.7667 37.932 62.7667Z" fill="#3A3A3A"/>
<path d="M25.854 37.6035H13.6426C12.9605 37.6035 12.4014 37.0396 12.4014 36.3516C12.4014 35.6523 12.9605 35.0996 13.6426 35.0996H25.8652C26.5473 35.0996 27.1064 35.6635 27.1064 36.3516C27.1064 37.0396 26.5473 37.6035 25.854 37.6035Z" fill="#3A3A3A"/>
<path d="M19.055 44.3146H13.6426C12.9605 44.3146 12.4014 43.7506 12.4014 43.0626C12.4014 42.3633 12.9605 41.8107 13.6426 41.8107H19.055C19.7371 41.8107 20.2963 42.3746 20.2963 43.0626C20.2963 43.7619 19.7371 44.3146 19.055 44.3146Z" fill="#3A3A3A"/>
<path d="M21.6158 51.0368H13.6426C12.9605 51.0368 12.4014 50.4728 12.4014 49.7848C12.4014 49.0855 12.9605 48.5328 13.6426 48.5328H21.6158C22.2979 48.5328 22.8571 49.0968 22.8571 49.7848C22.8571 50.4728 22.2979 51.0368 21.6158 51.0368Z" fill="#3A3A3A"/>
</svg>
