<svg width="120" height="120" viewBox="0 0 120 120" fill="none" xmlns="http://www.w3.org/2000/svg">
<path d="M60.1612 119C91.8112 119 117.469 92.5848 117.469 60C117.469 27.4152 91.8112 1 60.1612 1C28.5112 1 2.85376 27.4152 2.85376 60C2.85376 92.5848 28.5112 119 60.1612 119Z" fill="#B6B6B6"/>
<path d="M60.1612 116.76C29.7746 116.76 5.1106 91.2845 5.1106 60.0833C5.1106 28.8821 29.7746 3.32373 60.1612 3.32373C90.5478 3.32373 115.212 28.7992 115.212 60.0003C115.212 91.2015 90.5478 116.76 60.1612 116.76ZM60.1612 4.98337C30.6612 4.98337 6.72262 29.629 6.72262 60.0003C6.72262 90.3717 30.7418 115.017 60.1612 115.017C89.5806 115.017 113.6 90.2887 113.6 60.0003C113.6 29.712 89.6612 4.98337 60.1612 4.98337Z" fill="#F8F8F8"/>
<path d="M60.161 113.938C89.0956 113.938 112.552 89.7892 112.552 60C112.552 30.2107 89.0956 6.06177 60.161 6.06177C31.2264 6.06177 7.77026 30.2107 7.77026 60C7.77026 89.7892 31.2264 113.938 60.161 113.938Z" fill="#F8F8F8"/>
<path d="M23.0038 77.1772L23.568 79.0029H25.4218L23.8904 80.1646L24.4546 81.9902L23.0038 80.8285L21.4723 81.9902L22.0366 80.1646L20.5051 79.0029H22.359L23.0038 77.1772Z" fill="#B6B6B6"/>
<path d="M97.3181 77.1772L97.8823 79.0029H99.8167L98.2853 80.1646L98.8495 81.9902L97.3181 80.8285L95.8673 81.9902L96.4315 80.1646L94.9001 79.0029H96.7539L97.3181 77.1772Z" fill="#B6B6B6"/>
<path d="M26.1477 31.2053L35.9004 39.2546L34.9332 40.5823L25.0999 32.533L26.1477 31.2053Z" fill="#B6B6B6"/>
<path d="M35.9004 36.0182C36.7064 35.8523 37.7543 35.4374 38.6409 34.7735C39.9305 33.6948 40.0917 32.367 39.2857 31.3713C38.5603 30.4585 37.5931 30.3755 35.9004 30.9564C33.8854 31.7032 32.1928 31.7862 31.0644 30.3755C29.7748 28.8818 30.0972 26.6413 31.951 25.0646C32.9182 24.2348 33.8048 23.8199 34.4496 23.7369L34.9332 25.0646C34.4496 25.1476 33.563 25.3966 32.757 26.1434C31.4674 27.3052 31.6286 28.5499 32.1928 29.2137C32.9182 30.1265 33.8854 30.0436 35.6586 29.4627C37.8349 28.7158 39.2857 28.7988 40.4947 30.2095C41.7037 31.7032 41.7037 33.9437 39.4469 35.9353C38.5603 36.7651 37.2707 37.346 36.4646 37.4289L35.9004 36.0182Z" fill="#B6B6B6"/>
<path d="M51.1339 21.7455C52.7459 25.8116 51.2145 29.0479 48.2322 30.2926C45.1694 31.5373 42.0259 30.0437 40.6557 26.3925C39.2049 22.5753 40.4945 19.173 43.5574 17.8453C46.7008 16.5176 49.6831 18.1772 51.1339 21.7455ZM42.1871 25.6456C43.1543 28.2181 45.4112 29.8777 47.7486 28.9649C50.0861 27.9691 50.5697 25.1477 49.5219 22.4923C48.5547 20.0858 46.3784 18.1772 43.8798 19.173C41.4617 20.1688 41.1393 23.0732 42.1871 25.6456Z" fill="#B6B6B6"/>
<path d="M58.7102 26.3095C59.0326 26.3925 59.4356 26.3095 59.9998 26.3095C60.967 26.2265 61.8536 25.8946 62.579 25.2307C63.385 24.5669 64.0298 23.4881 64.3522 21.9944H64.2716C63.5462 22.8243 62.579 23.2392 61.37 23.1562C59.1938 23.0732 57.9042 21.2476 57.9848 19.1731C58.0654 16.8496 59.8386 14.858 62.3372 15.024C64.8358 15.1899 66.2061 17.2645 66.0449 20.5008C65.8837 23.2392 64.9164 25.0648 63.7074 26.2265C62.7402 27.1393 61.4506 27.6372 60.161 27.7202C59.5968 27.8032 59.0326 27.8032 58.6296 27.7202L58.7102 26.3095ZM59.6774 19.256C59.5968 20.8327 60.4834 21.9115 61.8536 21.9944C62.982 22.0774 63.788 21.5795 64.2716 20.8327C64.3522 20.6667 64.4328 20.5008 64.4328 20.2518C64.5134 18.0943 63.8686 16.4347 62.176 16.3517C60.8058 16.2687 59.758 17.5134 59.6774 19.256Z" fill="#B6B6B6"/>
<path d="M75.9591 24.7329C74.6695 28.716 72.4933 30.4586 69.9141 29.5458C67.6572 28.799 66.8512 26.0606 68.1409 22.1604C69.4305 18.1773 71.7679 16.6006 74.1053 17.4304C76.6039 18.2603 77.2487 20.9987 75.9591 24.7329ZM69.7529 22.7413C68.7857 25.8116 69.1081 27.8862 70.4783 28.3011C72.0903 28.882 73.4605 27.2223 74.4277 24.235C75.3949 21.3306 75.3143 19.1731 73.7023 18.6752C72.3321 18.1773 70.8007 19.505 69.7529 22.7413Z" fill="#B6B6B6"/>
<path d="M84.7445 30.5413C82.4071 34.0265 79.9084 35.0223 77.6516 33.4457C75.7172 32.035 75.6366 29.2966 77.8934 25.8943C80.1502 22.4921 82.8907 21.5793 84.9057 22.99C87.0013 24.4836 86.9207 27.222 84.7445 30.5413ZM79.2636 26.8071C77.4904 29.4626 77.2486 31.5371 78.4576 32.3669C79.8278 33.3627 81.6011 32.118 83.3743 29.5455C85.0669 27.0561 85.5505 24.8986 84.1803 23.9858C82.9713 23.1559 81.1174 24.0687 79.2636 26.8071Z" fill="#B6B6B6"/>
<path d="M92.0795 32.1183L89.8227 31.2055L90.5481 30.1267L93.2885 31.2884L94.1751 32.3672L84.906 40.3334L83.8582 39.0887L92.0795 32.1183Z" fill="#B6B6B6"/>
<path d="M119 46.6399H1V73.36H119V46.6399Z" fill="#B6B6B6"/>
<path d="M77.0877 70.0408C79.9087 66.3067 81.6013 61.5767 81.6013 56.5148C81.6013 44.3165 72.0098 34.4417 60.1615 34.4417C48.3131 34.4417 38.7216 44.3995 38.7216 56.5148C38.7216 61.6597 40.4142 66.3067 43.2352 70.0408L32.6765 85.8074L44.7667 83.069L46.7817 93.6906L57.0986 78.339C58.0658 78.505 59.1136 78.588 60.1615 78.588C61.2093 78.588 62.2571 78.505 63.3049 78.339L73.7024 93.6906L75.6369 83.152L87.727 85.8904L77.0877 70.0408Z" fill="#F8F8F8"/>
<path d="M79.0221 56.5147C79.0221 67.3023 70.559 76.0154 60.0809 76.0154C49.6028 76.0154 41.1396 67.3023 41.1396 56.5147C41.1396 45.727 49.6028 37.0139 60.0809 37.0139C70.559 37.0969 79.0221 45.81 79.0221 56.5147Z" fill="#B6B6B6"/>
<path d="M57.985 70.7873C57.2596 70.7873 56.6148 70.4554 56.1312 69.8745L45.6531 56.3485C44.847 55.3527 45.0082 53.7761 46.0561 52.9463C47.0233 52.1164 48.5547 52.2824 49.3607 53.3612L57.985 64.4807L70.9618 46.9716C71.7679 45.8928 73.2187 45.7268 74.2665 46.5567C75.3143 47.3865 75.4755 48.8801 74.6695 49.9589L59.8389 69.8745C59.3553 70.4554 58.7105 70.7873 57.985 70.7873Z" fill="#F8F8F8"/>
<path d="M45.6537 71.0365C45.6537 71.0365 50.9734 75.6005 55.2453 76.5133L48.0718 87.135L46.7016 79.9985L38.3997 81.9071L45.6537 71.0365Z" fill="#B6B6B6"/>
<path d="M74.6704 71.0365C74.6704 71.0365 69.3507 75.6005 65.0789 76.5133L72.2523 87.135L73.6226 79.9985L81.9245 81.9071L74.6704 71.0365Z" fill="#B6B6B6"/>
<path d="M31.8703 56.8468L32.5958 59.2533H35.0944L33.0794 60.747L33.8048 63.1535L31.8703 61.6598L29.8553 63.1535L30.5807 60.747L28.5657 59.2533H31.0643L31.8703 56.8468Z" fill="#F8F8F8"/>
<path d="M23.4072 57.3448L24.052 59.4194H26.1476L24.455 60.6641L25.0998 62.7387L23.4072 61.411L21.7146 62.7387L22.3594 60.6641L20.6667 59.4194H22.7624L23.4072 57.3448Z" fill="#F8F8F8"/>
<path d="M14.9441 57.7596L15.5083 59.5022H17.2816L15.8307 60.581L16.3949 62.2406L14.9441 61.1619L13.5739 62.2406L14.1381 60.581L12.6873 59.5022H14.4605L14.9441 57.7596Z" fill="#F8F8F8"/>
<path d="M6.56156 58.2574L6.96457 59.5852H8.33479L7.20637 60.415L7.68998 61.7427L6.56156 60.9129L5.43314 61.7427L5.83615 60.415L4.78833 59.5852H6.15855L6.56156 58.2574Z" fill="#F8F8F8"/>
<path d="M87.3242 56.8468L86.5987 59.2533H84.1001L86.1151 60.747L85.3897 63.1535L87.3242 61.6598L89.3392 63.1535L88.6138 60.747L90.5482 59.2533H88.1302L87.3242 56.8468Z" fill="#F8F8F8"/>
<path d="M95.7871 57.3448L95.1423 59.4194H93.0466L94.7393 60.6641L94.0945 62.7387L95.7871 61.411L97.4797 62.7387L96.8349 60.6641L98.5275 59.4194H96.4319L95.7871 57.3448Z" fill="#F8F8F8"/>
<path d="M104.17 57.7596L103.686 59.5022H101.913L103.364 60.581L102.799 62.2406L104.17 61.1619L105.621 62.2406L105.056 60.581L106.507 59.5022H104.734L104.17 57.7596Z" fill="#F8F8F8"/>
<path d="M112.632 58.2574L112.229 59.5852H110.859L111.988 60.415L111.504 61.7427L112.632 60.9129L113.761 61.7427L113.358 60.415L114.406 59.5852H113.035L112.632 58.2574Z" fill="#F8F8F8"/>
<path d="M30.7417 97.5077C30.2581 97.3418 29.4521 96.9269 28.6461 96.097C26.7116 94.2714 26.4698 91.616 28.4849 89.3755C30.4999 87.218 33.2403 87.135 35.3359 89.1266C36.1419 89.9564 36.5449 90.6202 36.6255 90.9522L35.7389 91.4501C35.5777 90.9522 35.1747 90.3713 34.6105 89.8734C32.9985 88.3797 31.0641 88.3797 29.3715 90.2053C27.84 91.865 27.7594 93.9395 29.4521 95.5162C30.0163 96.0141 30.6611 96.429 31.1447 96.5949L30.7417 97.5077Z" fill="#B6B6B6"/>
<path d="M39.6075 98.5035L36.5446 96.5949L34.7714 99.4992L38.1567 101.657L37.5925 102.57L33.1594 99.7482L37.9955 91.699L42.2673 94.4374L41.7031 95.3502L38.4791 93.2756L36.9477 95.8481L40.0105 97.7566L39.6075 98.5035Z" fill="#B6B6B6"/>
<path d="M43.8803 95.2673C44.5251 95.3503 45.3311 95.5993 46.0565 95.9312C47.2655 96.4291 47.9103 96.927 48.3133 97.6738C48.6357 98.2547 48.6357 98.9185 48.3939 99.6654C47.9909 100.827 46.9431 101.325 45.8953 101.242C46.4595 101.74 46.6207 102.57 46.4595 103.566C46.2983 104.893 46.1371 105.889 46.2177 106.304L45.0893 105.806C45.0087 105.474 45.1699 104.644 45.3311 103.483C45.5729 102.155 45.2505 101.491 44.2833 101.076L43.2355 100.661L41.7847 104.478L40.6562 104.063L43.8803 95.2673ZM43.4773 99.7484L44.6057 100.163C45.8147 100.661 46.7819 100.246 47.1849 99.2505C47.5879 98.0887 47.0237 97.2589 45.8147 96.761C45.2505 96.5121 44.8475 96.4291 44.6863 96.4291L43.4773 99.7484Z" fill="#B6B6B6"/>
<path d="M52.5839 99.0844L49.8435 98.5865L50.0047 97.5907L56.6945 98.8354L56.5333 99.8312L53.7929 99.3333L52.3421 107.632L51.1331 107.383L52.5839 99.0844Z" fill="#B6B6B6"/>
<path d="M59.1938 98.7524L58.8714 108.212L57.6624 108.129L57.9847 98.6694L59.1938 98.7524Z" fill="#B6B6B6"/>
<path d="M61.4507 98.8354L66.3673 98.3375L66.4479 99.3333L62.6597 99.7482L62.9821 102.901L66.4479 102.57L66.5285 103.565L63.0627 103.897L63.4657 108.212L62.2567 108.378L61.4507 98.8354Z" fill="#B6B6B6"/>
<path d="M69.4297 97.5079L71.606 106.719L70.4775 107.051L68.3013 97.8399L69.4297 97.5079Z" fill="#B6B6B6"/>
<path d="M77.8933 99.8313L74.5886 101.159L75.7977 104.312L79.5053 102.819L79.9083 103.814L75.0722 105.806L71.687 96.9269L76.3619 95.0183L76.7649 96.0141L73.2184 97.4248L74.2662 100.246L77.5709 98.9185L77.8933 99.8313Z" fill="#B6B6B6"/>
<path d="M77.9736 94.4374C78.5378 93.9395 79.1826 93.3586 79.9886 92.8607C81.4394 91.8649 82.6484 91.533 83.7768 91.699C84.9053 91.8649 85.8725 92.5288 86.6785 93.7735C87.4845 95.1012 87.8069 96.4289 87.5651 97.5907C87.3233 98.8354 86.3561 99.9971 84.9053 101.076C84.1799 101.574 83.6157 101.906 83.0515 102.238L77.9736 94.4374ZM83.4545 100.744C83.7769 100.578 84.0993 100.412 84.5023 100.08C86.5979 98.6694 87.0009 96.5949 85.6307 94.5203C84.4217 92.6118 82.6484 92.1968 80.5528 93.6075C80.0692 93.9395 79.6662 94.2714 79.4244 94.5203L83.4545 100.744Z" fill="#B6B6B6"/>
</svg>
