<svg width="70" height="69" viewBox="0 0 70 69" fill="none" xmlns="http://www.w3.org/2000/svg">
<path fill-rule="evenodd" clip-rule="evenodd" d="M17.4668 27.4623L12.9844 31.9476L19.0827 33.4818L17.4668 27.4623Z" fill="#F6F7F7"/>
<path fill-rule="evenodd" clip-rule="evenodd" d="M17.2841 35.2506L20.8719 31.7039C21.6479 30.9368 22.8986 30.9368 23.6746 31.6407C24.4506 32.4078 24.4506 33.6442 23.6746 34.4113L20.1507 37.958C19.3747 38.7251 18.124 38.7251 17.348 38.0212C16.5721 37.2631 16.5721 36.0267 17.2841 35.2506Z" fill="#E4E7E7"/>
<path fill-rule="evenodd" clip-rule="evenodd" d="M20.6895 37.4437L25.884 42.5787C26.5413 41.577 27.3173 40.6926 28.1572 39.8623L23.1361 34.9619L20.6895 37.4437Z" fill="#F6F7F7"/>
<path fill-rule="evenodd" clip-rule="evenodd" d="M37.7157 36.1441C30.0106 36.1441 23.8027 42.2809 23.8027 49.8978C23.8027 54.4463 26.012 58.4623 29.4172 60.9982H45.9595C49.4195 58.4623 51.6287 54.4463 51.6287 49.8978C51.6287 45.584 49.6568 41.7484 46.489 39.2125L53.6554 17.3094L46.489 15.0622L39.5599 36.2614C38.9665 36.1982 38.373 36.1441 37.7157 36.1441Z" fill="#F6F7F7"/>
<path fill-rule="evenodd" clip-rule="evenodd" d="M55.6267 13.8259C56.64 14.1778 57.1786 15.3059 56.8774 16.3077C56.5213 17.3094 55.4441 17.905 54.3668 17.5441L45.7031 14.8276C44.6898 14.4756 44.1512 13.3475 44.4524 12.3458C44.8085 11.3441 45.8857 10.7484 46.963 11.1094L55.6267 13.8259Z" fill="#E4E7E7"/>
<path fill-rule="evenodd" clip-rule="evenodd" d="M31.5621 49.7805C30.0649 50.0783 28.6955 49.961 27.4448 49.4285C27.4448 49.609 27.3809 49.7263 27.3809 49.8978C27.3809 52.7947 28.6316 55.448 30.7222 57.3974H44.6991C46.671 55.5653 47.8669 53.0294 47.9856 50.3129C47.9856 50.1956 47.9856 50.0151 47.9856 49.8978C47.9856 49.4827 47.9856 49.0675 47.9217 48.6614C42.7272 44.5822 36.6927 48.896 31.5621 49.7805Z" fill="#C7D9B0"/>
<path fill-rule="evenodd" clip-rule="evenodd" d="M32.8767 45.2951C33.9539 45.2951 34.7847 44.4648 34.7847 43.409C34.7847 42.4072 33.9448 41.5769 32.8767 41.5769C31.8633 41.5769 31.0234 42.4072 31.0234 43.409C31.0234 44.4648 31.8633 45.2951 32.8767 45.2951Z" fill="#C7D9B0"/>
<path d="M55.0055 18.6451C54.686 18.6451 54.3665 18.5909 54.0561 18.4916L45.4107 15.7842C43.8861 15.2518 43.0371 13.5822 43.4844 12.066C44.0596 10.4596 45.7211 9.63836 47.2913 10.1528L53.0701 11.9758C53.6088 12.1472 53.9009 12.7068 53.7274 13.2392C53.554 13.7627 52.9788 14.0515 52.4493 13.889L46.6523 12.057C46.0497 11.8585 45.5659 12.2285 45.4107 12.6797C45.2737 13.14 45.5568 13.7085 46.0497 13.88L54.6769 16.5874C55.2794 16.786 55.7633 16.416 55.9185 15.9737C56.0554 15.5135 55.7724 14.9449 55.2794 14.7734C54.7499 14.5839 54.476 14.0154 54.6586 13.4919C54.8412 12.9685 55.4255 12.6978 55.955 12.8783C57.4522 13.4017 58.3012 15.0622 57.8447 16.5874C57.3974 17.8689 56.2471 18.6451 55.0055 18.6451Z" fill="#3A3A3A"/>
<path d="M39.5598 37.2632C39.4594 37.2632 39.3499 37.2451 39.2494 37.218C38.7199 37.0466 38.4187 36.487 38.5921 35.9546L44.6266 17.4719C44.8 16.9484 45.366 16.6506 45.9047 16.8221C46.4342 16.9936 46.7354 17.5531 46.562 18.0856L40.5275 36.5683C40.3906 36.9924 39.9889 37.2632 39.5598 37.2632Z" fill="#3A3A3A"/>
<path d="M46.488 40.2142C46.3876 40.2142 46.2781 40.1962 46.1777 40.1691C45.6482 39.9977 45.356 39.4291 45.5203 38.9057L52.6868 17.0026C52.8603 16.4791 53.4263 16.1813 53.9649 16.3528C54.4944 16.5243 54.7866 17.0928 54.6222 17.6163L47.4558 39.5193C47.3188 39.9435 46.9171 40.2142 46.488 40.2142Z" fill="#3A3A3A"/>
<path d="M45.9591 62H29.4169C29.1978 62 28.9787 61.9278 28.8053 61.8014C24.9801 58.9496 22.7891 54.6087 22.7891 49.8978C22.7891 41.7574 29.4899 35.1423 37.7154 35.1423C39.5869 35.1423 41.3763 35.4582 43.0378 36.0989C43.5582 36.2975 43.8229 36.8751 43.6221 37.3985C43.4212 37.9129 42.8369 38.1746 42.3074 37.9761C40.8833 37.4346 39.3313 37.1548 37.7154 37.1548C30.6037 37.1548 24.8158 42.8765 24.8158 49.9068C24.8158 53.8687 26.6142 57.5327 29.7638 60.0055H45.6214C48.8075 57.5508 50.6242 53.8957 50.6242 49.9068C50.6242 46.0352 48.8896 42.4253 45.8587 39.9976C45.4205 39.6457 45.3566 39.0139 45.7127 38.5898C46.0687 38.1566 46.7078 38.0934 47.1368 38.4454C50.6425 41.2521 52.6509 45.4395 52.6509 49.9068C52.6509 54.6358 50.4325 58.9767 46.5708 61.8105C46.3882 61.9278 46.1691 62 45.9591 62Z" fill="#3A3A3A"/>
<path d="M44.6987 58.3991H30.7218C30.4662 58.3991 30.2106 58.2999 30.028 58.1284C27.6635 55.9263 26.3672 53.0023 26.3672 49.8978C26.3672 49.7354 26.3854 49.6 26.4128 49.4646C26.4128 48.9141 26.8693 48.4448 27.4353 48.4448C28.0013 48.4448 28.4578 48.878 28.4578 49.4285C28.4578 49.591 28.4395 49.7263 28.4121 49.8617C28.403 52.3164 29.3707 54.6087 31.1418 56.3956H44.2879C45.9221 54.7441 46.8715 52.5872 46.9719 50.2678V49.8978C46.9719 49.6632 46.9719 49.4285 46.9628 49.1939C43.7311 46.9287 40.1432 48.156 36.3546 49.4466C34.83 49.97 33.2506 50.5025 31.7443 50.7642C31.1874 50.8544 30.6671 50.4934 30.5667 49.9519C30.4662 49.4014 30.8405 48.887 31.3883 48.7878C32.7394 48.5531 34.1727 48.0658 35.6882 47.5514C39.7598 46.1615 44.3701 44.5912 48.5604 47.8672C48.7613 48.0297 48.8982 48.2553 48.9347 48.508C48.9986 48.9682 49.0078 49.4285 49.0078 49.8888V50.3039C48.88 53.3182 47.5927 56.0798 45.4017 58.1193C45.21 58.2998 44.9544 58.3991 44.6987 58.3991Z" fill="#3A3A3A"/>
<path d="M18.7081 39.5555C17.9686 39.5555 17.2291 39.2937 16.654 38.7703C15.4854 37.6151 15.4489 35.747 16.5353 34.5738C16.5444 34.5648 16.5536 34.5557 16.5627 34.5467L20.1505 31C21.2917 29.8719 23.1814 29.8358 24.3682 30.9097C24.9616 31.4963 25.2811 32.2454 25.2811 33.0396C25.2811 33.8338 24.9707 34.5738 24.4047 35.1333L20.89 38.671C20.2874 39.2576 19.5023 39.5555 18.7081 39.5555ZM18.0234 35.9456C17.6765 36.3336 17.6947 36.9473 18.069 37.3173C18.4342 37.6512 19.0641 37.6332 19.4384 37.2541L22.9532 33.7164C23.3366 33.3374 23.3366 32.7237 22.9623 32.3537C22.5971 32.0198 21.9672 32.0378 21.5929 32.4169L18.0234 35.9456Z" fill="#3A3A3A"/>
<path d="M25.8837 43.5804C25.619 43.5804 25.3633 43.4812 25.1625 43.2916L22.1772 40.3405C21.7847 39.9525 21.7847 39.3117 22.1772 38.9236C22.5698 38.5356 23.218 38.5356 23.6105 38.9236L26.5958 41.8747C26.9884 42.2628 26.9884 42.9036 26.5958 43.2916C26.4041 43.4812 26.1485 43.5804 25.8837 43.5804Z" fill="#3A3A3A"/>
<path d="M28.1567 40.864C27.9011 40.864 27.6454 40.7647 27.4446 40.5752L22.4235 35.6747C22.0218 35.2867 22.0218 34.6459 22.4144 34.2579C22.8069 33.8698 23.4551 33.8608 23.8477 34.2488L28.8688 39.1493C29.2705 39.5373 29.2705 40.1781 28.8779 40.5661C28.6771 40.7647 28.4214 40.864 28.1567 40.864Z" fill="#3A3A3A"/>
<path d="M19.0823 34.4835C19.0002 34.4835 18.918 34.4745 18.8267 34.4564L12.7375 32.9222C12.3815 32.832 12.1076 32.5612 12.0072 32.2183C11.9067 31.8754 12.0072 31.4963 12.2628 31.2436L16.7452 26.7583C17.0009 26.5056 17.3752 26.4064 17.7312 26.4966C18.0872 26.5869 18.3611 26.8576 18.4524 27.2096L19.1097 29.6282C19.2558 30.1607 18.9363 30.7112 18.3885 30.8556C17.8499 31.009 17.293 30.6841 17.1469 30.1426L16.9461 29.4116L14.9559 31.4061L19.3288 32.5071C19.8766 32.6425 20.1961 33.193 20.0592 33.7254C19.9405 34.1857 19.5297 34.4835 19.0823 34.4835Z" fill="#3A3A3A"/>
<path d="M32.8764 46.2969C31.297 46.2969 30.0098 44.9974 30.0098 43.409C30.0098 41.8477 31.297 40.5753 32.8764 40.5753C33.4332 40.5753 33.8897 41.0265 33.8897 41.577C33.8897 42.1275 33.4332 42.5787 32.8764 42.5787C32.4199 42.5787 32.0365 42.9578 32.0365 43.409C32.0365 43.9054 32.4016 44.2935 32.8764 44.2935C33.3876 44.2935 33.771 43.9144 33.771 43.409C33.771 42.8495 34.2275 42.4073 34.7844 42.4073C35.3413 42.4073 35.7977 42.8585 35.7977 43.409C35.7977 45.0245 34.5196 46.2969 32.8764 46.2969Z" fill="#3A3A3A"/>
<path d="M33.4699 54.5636H33.3512C32.7944 54.5636 32.3379 54.1124 32.3379 53.5619C32.3379 53.0023 32.7944 52.5601 33.3512 52.5601C33.9081 52.5601 34.4285 53.0114 34.4285 53.5619C34.4285 54.1124 34.0359 54.5636 33.4699 54.5636Z" fill="#3A3A3A"/>
<path d="M39.7414 51.6667H39.6227C39.0658 51.6667 38.6094 51.2154 38.6094 50.6649C38.6094 50.1054 39.0658 49.6632 39.6227 49.6632C40.1796 49.6632 40.7 50.1144 40.7 50.6649C40.7 51.2245 40.2983 51.6667 39.7414 51.6667Z" fill="#3A3A3A"/>
<path d="M43.3854 54.7983H43.2028C42.6459 54.7983 42.1895 54.347 42.1895 53.7965C42.1895 53.237 42.6459 52.7948 43.2028 52.7948C43.7597 52.7948 44.3074 53.246 44.3074 53.7965C44.3166 54.347 43.9514 54.7983 43.3854 54.7983Z" fill="#3A3A3A"/>
</svg>
