<svg width="70" height="69" viewBox="0 0 70 69" fill="none" xmlns="http://www.w3.org/2000/svg">
<g clip-path="url(#clip0)">
<g clip-path="url(#clip1)">
<path d="M55.8565 23.2729C55.8565 21.852 55.3783 20.5452 54.5756 19.5039C54.5807 19.3923 54.5845 19.2808 54.5845 19.1692C54.5845 14.6359 50.9402 10.9618 46.4436 10.9618C41.9471 10.9618 38.3027 14.6359 38.3027 19.1692C38.3027 21.0171 38.9082 22.7215 39.9309 24.0936C38.9426 24.8426 38.3027 26.0339 38.3027 27.3766C38.3027 29.6426 40.1255 31.4803 42.3732 31.4803C40.6878 31.4803 39.3203 32.8589 39.3203 34.5581C39.3203 36.2573 40.6878 37.6359 42.3732 37.6359H42.9191C43.6231 38.8621 44.9373 39.6877 46.4436 39.6877C45.3197 39.6877 44.4084 40.6064 44.4084 41.7396C44.4084 42.8727 45.3197 43.7914 46.4436 43.7914H49.7509C51.4369 43.7914 52.8037 42.4135 52.8037 40.7136C52.8037 39.0138 51.4369 37.6359 49.7509 37.6359C51.9985 37.6359 53.8213 35.7982 53.8213 33.5322C53.8213 31.2661 51.9985 29.4284 49.7509 29.4284C53.123 29.4284 55.8565 26.6726 55.8565 23.2729Z" fill="#EEEEEE"/>
<path d="M53.8217 33.5321C53.8217 31.3396 52.1151 29.5482 49.9684 29.4343C51.064 30.1698 51.7865 31.4259 51.7865 32.8521C51.7865 35.1181 49.9637 36.9558 47.716 36.9558C49.4021 36.9558 50.7688 38.3337 50.7688 40.0335C50.7688 41.7334 49.4021 43.1113 47.716 43.1113H44.9336C45.306 43.5278 45.8438 43.7913 46.444 43.7913H49.7512C51.4373 43.7913 52.8041 42.4133 52.8041 40.7135C52.8041 39.0136 51.4373 37.6357 49.7512 37.6357C51.9989 37.6358 53.8217 35.7981 53.8217 33.5321Z" fill="#B9BABA"/>
<path d="M54.5748 19.5039C54.5799 19.3924 54.5837 19.2808 54.5837 19.1692C54.5837 15.1625 51.7362 11.829 47.9703 11.1082C50.6808 12.4402 52.5485 15.2442 52.5485 18.4892C52.5485 18.6007 52.5447 18.7123 52.5396 18.8239C53.3422 19.8652 53.8205 21.172 53.8205 22.5929C53.8205 25.9925 51.087 28.7484 47.7148 28.7484C48.5405 28.7484 49.3084 28.9971 49.9502 29.4234C53.2294 29.3167 55.8557 26.6049 55.8557 23.2729C55.8557 21.852 55.3775 20.5453 54.5748 19.5039Z" fill="#B9BABA"/>
<path d="M33.4688 35.5841C34.5928 35.5841 35.504 34.6654 35.504 33.5322C35.504 32.399 34.5928 31.4803 33.4688 31.4803C32.3448 31.4803 31.4336 32.399 31.4336 33.5322C31.4336 34.6654 32.3448 35.5841 33.4688 35.5841Z" fill="#E4EAF1"/>
<path d="M33.4688 31.4803C33.0976 31.4803 32.7507 31.582 32.4512 31.7571C33.0589 32.1121 33.4688 32.7731 33.4688 33.5322C33.4688 34.2913 33.0589 34.9523 32.4512 35.3073C32.7507 35.4824 33.0976 35.5841 33.4688 35.5841C34.5929 35.5841 35.504 34.6653 35.504 33.5322C35.504 32.3991 34.5929 31.4803 33.4688 31.4803Z" fill="#B9BABA"/>
<path d="M57.8907 39.6877C59.0147 39.6877 59.9259 38.769 59.9259 37.6358C59.9259 36.5026 59.0147 35.584 57.8907 35.584C56.7667 35.584 55.8555 36.5026 55.8555 37.6358C55.8555 38.769 56.7667 39.6877 57.8907 39.6877Z" fill="#E4EAF1"/>
<path d="M57.8926 35.584C57.5214 35.584 57.1746 35.6857 56.875 35.8607C57.4828 36.2157 57.8926 36.8768 57.8926 37.6358C57.8926 38.3949 57.4828 39.056 56.875 39.4109C57.1746 39.586 57.5214 39.6877 57.8926 39.6877C59.0167 39.6877 59.9278 38.769 59.9278 37.6358C59.9278 36.5027 59.0167 35.584 57.8926 35.584Z" fill="#B9BABA"/>
<path d="M61.963 33.5321C63.649 33.5321 65.0158 32.1542 65.0158 30.4544C65.0158 28.7546 63.649 27.3766 61.963 27.3766C60.277 27.3766 58.9102 28.7546 58.9102 30.4544C58.9102 32.1542 60.277 33.5321 61.963 33.5321Z" fill="#E4EAF1"/>
<path d="M61.9629 27.3766C61.606 27.3766 61.2637 27.4389 60.9453 27.5524C62.1308 27.975 62.9805 29.1144 62.9805 30.4544C62.9805 31.7943 62.1308 32.9338 60.9453 33.3563C61.2637 33.4698 61.606 33.5321 61.9629 33.5321C63.649 33.5321 65.0158 32.1542 65.0158 30.4544C65.0158 28.7545 63.649 27.3766 61.9629 27.3766Z" fill="#B9BABA"/>
<path d="M47.7148 26.3507C47.7148 25.8195 48.1455 25.3889 48.6766 25.3889H48.7883C49.3195 25.3889 49.7501 25.8195 49.7501 26.3507C49.7501 26.8819 49.3195 27.3125 48.7883 27.3125H48.6766C48.1455 27.3125 47.7148 26.8819 47.7148 26.3507Z" fill="#BDBDBD"/>
<path d="M42.6264 50.9729L38.5559 53.0247L1.92188 50.8678V46.7641L38.5559 44.8173L42.6264 46.8692V50.9729Z" fill="#F6F7F7"/>
<path d="M42.6271 46.8692V50.9729L38.5566 53.0247V44.8173L42.6271 46.8692Z" fill="#E2497D"/>
<path d="M38.5559 50.9729L1.92188 48.816V50.8678L38.5559 53.0247" fill="#B9BABA"/>
<path d="M38.5566 50.9729V53.0247L42.6271 50.9729V48.921L38.5566 50.9729Z" fill="#DC3C76"/>
<path d="M12.098 51.4666L1.92188 50.8677V46.764L12.098 46.2228V51.4666Z" fill="#F3BBA4"/>
<path d="M12.098 51.4666L1.92188 50.8677V48.8159L12.098 49.4147V51.4666Z" fill="#F3BBA4"/>
<path d="M53.3434 17.1501C52.5511 16.6756 51.6598 16.3523 50.7086 16.2211C50.1824 16.1486 49.7498 16.5862 49.7498 17.1174C49.7498 17.6485 50.1845 18.0697 50.7063 18.1689C53.0915 18.6222 54.9015 20.7385 54.9015 23.2729C54.9015 24.428 54.5178 25.5437 53.8274 26.4464C53.5077 26.8644 53.4657 27.4617 53.8151 27.8553C54.1685 28.2533 54.7844 28.2906 55.1274 27.8836C56.2055 26.6043 56.8095 24.9697 56.8095 23.2729C56.8095 21.7609 56.3379 20.3586 55.5375 19.2046V19.1692C55.5375 14.1133 51.4575 10 46.4426 10C41.4276 10 37.3477 14.1133 37.3477 19.1692C37.3477 20.8562 37.815 22.5155 38.6795 23.946C37.8534 24.8491 37.3477 26.0542 37.3477 27.3766C37.3477 29.1498 38.2569 30.7121 39.6291 31.6174C38.8519 32.3547 38.3653 33.3998 38.3653 34.5581C38.3653 36.7855 40.1628 38.5977 42.3721 38.5977C42.6531 38.5977 42.8809 38.3699 42.8809 38.0889V37.1829C42.8809 36.9019 42.6531 36.6741 42.3721 36.6741C41.2148 36.6741 40.2733 35.7248 40.2733 34.5581C40.2733 33.727 40.751 33.0063 41.4441 32.6604C41.9194 32.4232 42.3721 32.0115 42.3721 31.4803C42.3721 30.9491 41.9312 30.5332 41.4256 30.3704C40.1685 29.9655 39.2557 28.7765 39.2557 27.3766C39.2557 25.9768 40.1685 24.7877 41.4256 24.3828C41.9312 24.22 42.3721 23.8041 42.3721 23.2729C42.3721 22.7417 41.9375 22.3014 41.4162 22.4033C40.9973 22.4851 40.5967 22.6197 40.2215 22.7996C39.5879 21.7032 39.2557 20.4667 39.2557 19.1692C39.2557 15.174 42.4797 11.9236 46.4426 11.9236C49.7104 11.9236 52.4738 14.1346 53.3434 17.1501Z" fill="#424952"/>
<path d="M54.7745 33.5322C54.7745 31.0686 53.0209 29.0101 50.7062 28.5587C50.1848 28.457 49.75 28.8973 49.75 29.4285C49.75 29.9597 50.1909 30.3756 50.6965 30.5384C51.9536 30.9433 52.8664 32.1323 52.8664 33.5322C52.8664 34.932 51.9536 36.121 50.6965 36.526C50.1909 36.6888 49.75 37.1047 49.75 37.6359C49.75 38.1671 50.2027 38.5788 50.678 38.816C51.3711 39.1619 51.8488 39.8826 51.8488 40.7137C51.8488 41.5447 51.3711 42.2654 50.678 42.6113C50.2027 42.8485 49.75 43.2602 49.75 43.7914C49.75 44.3226 50.187 44.7651 50.7027 44.6379C52.4537 44.2057 53.7568 42.6102 53.7568 40.7137C53.7568 39.5555 53.2702 38.5102 52.493 37.773C53.8652 36.8677 54.7745 35.3054 54.7745 33.5322Z" fill="#424952"/>
<path d="M43.4531 41.7395C43.4531 43.0684 44.3107 44.1991 45.4971 44.5988C46.0005 44.7684 46.4424 44.3226 46.4424 43.7914C46.4424 43.2602 45.9376 42.8401 45.6038 42.4269C45.4522 42.2393 45.3611 41.9999 45.3611 41.7395C45.3611 41.4792 45.4522 41.2398 45.6038 41.0522C45.9376 40.639 46.4424 40.2189 46.4424 39.6877C46.4424 39.1565 46.0005 38.7107 45.4971 38.8803C44.3107 39.2799 43.4531 40.4107 43.4531 41.7395Z" fill="#424952"/>
<path d="M33.4697 36.5458C35.118 36.5458 36.4589 35.1939 36.4589 33.5321C36.4589 31.8704 35.118 30.5185 33.4697 30.5185C31.8214 30.5185 30.4805 31.8704 30.4805 33.5321C30.4805 35.1939 31.8214 36.5458 33.4697 36.5458ZM33.4697 32.4421C34.0659 32.4421 34.5509 32.9311 34.5509 33.5321C34.5509 34.1332 34.0659 34.6222 33.4697 34.6222C32.8735 34.6222 32.3885 34.1332 32.3885 33.5321C32.3885 32.9311 32.8735 32.4421 33.4697 32.4421Z" fill="#424952"/>
<path d="M57.8916 34.6222C56.2433 34.6222 54.9023 35.9741 54.9023 37.6358C54.9023 39.2976 56.2433 40.6495 57.8916 40.6495C59.5399 40.6495 60.8808 39.2976 60.8808 37.6358C60.8808 35.9741 59.5399 34.6222 57.8916 34.6222ZM57.8916 38.7259C57.2954 38.7259 56.8104 38.2369 56.8104 37.6358C56.8104 37.0348 57.2954 36.5458 57.8916 36.5458C58.4878 36.5458 58.9728 37.0348 58.9728 37.6358C58.9728 38.2369 58.4878 38.7259 57.8916 38.7259Z" fill="#424952"/>
<path d="M61.9619 26.4148C59.7526 26.4148 57.9551 28.227 57.9551 30.4544C57.9551 32.6818 59.7526 34.494 61.9619 34.494C64.1713 34.494 65.9688 32.6818 65.9688 30.4544C65.9688 28.227 64.1713 26.4148 61.9619 26.4148ZM61.9619 32.5703C60.8046 32.5703 59.8631 31.6211 59.8631 30.4544C59.8631 29.2876 60.8046 28.3384 61.9619 28.3384C63.1192 28.3384 64.0608 29.2876 64.0608 30.4544C64.0608 31.6211 63.1192 32.5703 61.9619 32.5703Z" fill="#424952"/>
<path d="M43.6445 26.3507C43.6445 25.8195 44.0751 25.3889 44.6063 25.3889H44.718C45.2491 25.3889 45.6798 25.8195 45.6798 26.3507C45.6798 26.8818 45.2491 27.3125 44.718 27.3125H44.6063C44.0751 27.3125 43.6445 26.8818 43.6445 26.3507Z" fill="#424952"/>
<path d="M1.91569 45.8012C1.38477 45.8295 0.96875 46.2682 0.96875 46.7998V50.8321C0.96875 51.3616 1.38143 51.7993 1.90998 51.8304L24.3112 53.1493C24.8418 53.1806 25.2972 52.7754 25.3279 52.2448C25.3586 51.7148 24.9541 51.2602 24.4242 51.229L13.9941 50.6151C13.4656 50.584 13.0529 50.1463 13.0529 49.6168V48.084C13.0529 47.5524 13.4689 47.1137 13.9998 47.0854L36.5497 45.8871C37.1221 45.8567 37.6028 46.3126 37.6028 46.8857V50.9446C37.6028 51.52 37.1184 51.9767 36.544 51.9428L28.3798 51.4621C27.8491 51.4309 27.3937 51.836 27.363 52.3667C27.3323 52.8966 27.7368 53.3512 28.2667 53.3824L38.487 53.9842C38.663 53.9945 38.8385 53.9582 38.9959 53.8788L43.0314 51.8444C43.3686 51.6745 43.5813 51.3291 43.5813 50.9515V46.8904C43.5813 46.5128 43.3686 46.1674 43.0314 45.9975L38.9957 43.9632C38.8401 43.8847 38.6666 43.8483 38.4925 43.8576L1.91569 45.8012ZM11.1449 49.3867C11.1449 49.9621 10.6605 50.4188 10.0861 50.385L3.818 50.0159C3.28946 49.9848 2.87677 49.5471 2.87677 49.0177V48.6248C2.87677 48.0932 3.29279 47.6544 3.82371 47.6262L10.0918 47.2932C10.6641 47.2627 11.1449 47.7186 11.1449 48.2918V49.3867ZM41.6733 49.7627C41.6733 50.1403 41.4606 50.4857 41.1234 50.6556L40.961 50.7375C40.2959 51.0728 39.5108 50.5894 39.5108 49.8446V47.9976C39.5108 47.2528 40.2959 46.7694 40.961 47.1046L41.1234 47.1865C41.4606 47.3565 41.6733 47.7019 41.6733 48.0795V49.7627Z" fill="#424952"/>
</g>
</g>
<defs>
<clipPath id="clip0">
<rect width="69" height="69" fill="white" transform="translate(0.96875)"/>
</clipPath>
<clipPath id="clip1">
<rect width="65" height="65" fill="white" transform="translate(0.96875)"/>
</clipPath>
</defs>
</svg>
