<svg width="70" height="69" viewBox="0 0 70 69" fill="none" xmlns="http://www.w3.org/2000/svg">
<path fill-rule="evenodd" clip-rule="evenodd" d="M34.9379 22.7002C32.3264 23.052 30.1141 22.7633 28.4136 21.8702C29.151 21.4012 30.4004 21.1035 31.1378 20.8689C29.2117 19.8045 26.4267 16.2052 26.2012 14.0853C29.2118 14.383 31.6497 17.6305 33.3502 20.0481C31.9881 17.1524 32.6128 11.6678 34.9379 9.01569C37.2631 11.6678 37.9485 17.1614 36.5864 20.0481C38.2869 17.6305 40.7335 14.383 43.7354 14.0853C43.5098 16.2142 40.6728 19.8135 38.7988 20.8689C39.5362 21.1035 40.7856 21.4012 41.523 21.8702C39.8225 22.7633 37.6102 23.052 34.9379 22.7002Z" fill="#C5E7A3"/>
<path d="M59.0055 25.3513H10.9316V30.3669H59.0055V25.3513Z" fill="#E4E7E7"/>
<path d="M56.6194 30.3668H13.3086V58.9896H56.6194V30.3668Z" fill="#F6F7F7"/>
<path d="M51.9605 34.6246H32.4395V54.9845H51.9605V34.6246Z" fill="#EEEEEE"/>
<path d="M27.1565 39.1079H17.2832V58.9987H27.1565V39.1079Z" fill="#E3A188"/>
<path d="M34.9377 27.4802C34.3997 27.4802 33.9746 27.0291 33.9746 26.4789V22.645C33.9746 22.0948 34.4084 21.6437 34.9377 21.6437C35.4756 21.6437 35.9007 22.0948 35.9007 22.645V26.4789C35.9007 27.0291 35.4756 27.4802 34.9377 27.4802Z" fill="#3A3A3A"/>
<path d="M37.1516 23.7997C36.4142 23.7997 35.642 23.7456 34.8178 23.6283C34.2885 23.5561 33.9155 23.051 33.9849 22.5007C34.0543 21.9504 34.5575 21.5806 35.0694 21.6347C37.5334 21.9685 39.4681 21.752 40.9864 20.9672C41.4636 20.7236 42.0449 20.9221 42.2792 21.4182C42.5134 21.9144 42.3226 22.5187 41.8454 22.7623C40.5093 23.4569 38.9649 23.7997 37.1516 23.7997Z" fill="#3A3A3A"/>
<path d="M36.4733 20.5162C36.3605 20.5162 36.2477 20.4981 36.1349 20.453C35.6317 20.2636 35.3801 19.6863 35.5623 19.1631C36.5947 16.2674 36.1002 13.0199 34.1047 9.51989C33.8358 9.04179 33.9833 8.42838 34.4431 8.14874C34.9029 7.86909 35.4929 8.02245 35.7618 8.50055C38.0697 12.5509 38.6163 16.3757 37.3669 19.8667C37.2281 20.2636 36.8637 20.5162 36.4733 20.5162Z" fill="#3A3A3A"/>
<path d="M33.4628 20.5162C33.0723 20.5162 32.6993 20.2636 32.5605 19.8576C31.3285 16.3937 31.849 12.5689 34.1048 8.50053C34.3737 8.02243 34.9637 7.86006 35.4236 8.13068C35.8834 8.41032 36.0395 9.02374 35.7793 9.50183C33.8185 13.0289 33.35 16.2764 34.3737 19.154C34.5559 19.6772 34.3043 20.2455 33.8011 20.444C33.6883 20.4981 33.5755 20.5162 33.4628 20.5162Z" fill="#3A3A3A"/>
<path d="M32.76 23.7998C30.9554 23.7998 29.4198 23.457 28.0923 22.7714C27.6151 22.5278 27.4243 21.9235 27.6585 21.4273C27.8928 20.9312 28.4827 20.7327 28.9512 20.9763C30.4522 21.7611 32.3696 21.9776 34.8076 21.6438C35.3281 21.5807 35.8227 21.9595 35.8921 22.5098C35.9615 23.0601 35.5884 23.5652 35.0592 23.6374C34.2523 23.7456 33.4801 23.7998 32.76 23.7998Z" fill="#3A3A3A"/>
<path d="M38.5117 26.4157C38.0432 26.4157 37.6354 26.3435 37.2971 26.2804C36.7765 26.1722 36.4381 25.6399 36.5423 25.0987C36.6464 24.5574 37.1583 24.2056 37.6788 24.3139C37.9131 24.359 38.1907 24.4131 38.5117 24.4131C39.0496 24.4131 39.4748 24.8641 39.4748 25.4144C39.4748 25.9647 39.0496 26.4157 38.5117 26.4157Z" fill="#3A3A3A"/>
<path d="M31.4162 26.4157C30.8782 26.4157 30.4531 25.9646 30.4531 25.4144C30.4531 24.8641 30.8869 24.4131 31.4162 24.4131C31.7025 24.4131 31.9888 24.3589 32.2838 24.3138C32.7956 24.2236 33.3075 24.5935 33.3943 25.1347C33.4811 25.685 33.1253 26.1992 32.5961 26.2894C32.2057 26.3525 31.8152 26.4157 31.4162 26.4157Z" fill="#3A3A3A"/>
<path d="M31.1375 21.2829C30.99 21.2829 30.8425 21.2468 30.7037 21.1746C27.9708 19.7494 26.1401 17.4581 25.2725 14.364C25.1771 14.0212 25.2638 13.6513 25.4981 13.3897C25.7323 13.1281 26.0881 13.0199 26.4178 13.1101C27.9534 13.498 29.2635 14.1294 30.4174 15.0676C30.8338 15.4104 30.9119 16.0418 30.5909 16.4748C30.2612 16.9078 29.6539 16.989 29.2375 16.6462C28.821 16.3034 28.3699 16.0148 27.8927 15.7712C28.7082 17.3408 29.9229 18.5316 31.5626 19.3885C32.0398 19.6321 32.2307 20.2365 31.9964 20.7326C31.8316 21.0844 31.4845 21.2829 31.1375 21.2829Z" fill="#3A3A3A"/>
<path d="M38.7987 21.2829C38.443 21.2829 38.1046 21.0754 37.9398 20.7326C37.7055 20.2365 37.8964 19.6321 38.3736 19.3885C40.022 18.5316 41.2367 17.3318 42.0609 15.7532C41.549 16.0058 41.0718 16.3125 40.6467 16.6552C40.2302 16.998 39.6229 16.9169 39.2932 16.4839C38.9635 16.0418 39.0416 15.4194 39.4667 15.0766C40.5859 14.1745 41.9481 13.516 43.5271 13.1191C43.8568 13.0379 44.2125 13.1462 44.4468 13.3988C44.6811 13.6604 44.7678 14.0302 44.6724 14.373C43.8048 17.4671 41.9741 19.7584 39.2412 21.1837C39.0937 21.2468 38.9462 21.2829 38.7987 21.2829Z" fill="#3A3A3A"/>
<path d="M59.0057 31.3771H10.9318C10.3939 31.3771 9.96875 30.9261 9.96875 30.3758V25.3603C9.96875 24.81 10.4026 24.359 10.9318 24.359H26.2016C26.7395 24.359 27.1646 24.81 27.1646 25.3603C27.1646 25.9106 26.7309 26.3616 26.2016 26.3616H11.8948V29.3745H58.0427V26.3616H43.7359C43.198 26.3616 42.7729 25.9106 42.7729 25.3603C42.7729 24.81 43.2066 24.359 43.7359 24.359H59.0057C59.5436 24.359 59.9687 24.81 59.9687 25.3603V30.3758C59.9687 30.9261 59.5349 31.3771 59.0057 31.3771Z" fill="#3A3A3A"/>
<path d="M59.0057 60H10.9318C10.3939 60 9.96875 59.549 9.96875 58.9987C9.96875 58.4484 10.4026 57.9974 10.9318 57.9974H59.0057C59.5436 57.9974 59.9687 58.4484 59.9687 58.9987C59.9687 59.549 59.5349 60 59.0057 60Z" fill="#3A3A3A"/>
<path d="M13.3185 59.9999C12.7806 59.9999 12.3555 59.5489 12.3555 58.9986V30.3758C12.3555 29.8255 12.7893 29.3745 13.3185 29.3745C13.8564 29.3745 14.2815 29.8255 14.2815 30.3758V58.9986C14.2815 59.5489 13.8478 59.9999 13.3185 59.9999Z" fill="#3A3A3A"/>
<path d="M56.6193 59.9999C56.0814 59.9999 55.6562 59.5489 55.6562 58.9986V30.3758C55.6562 29.8255 56.09 29.3745 56.6193 29.3745C57.1572 29.3745 57.5823 29.8255 57.5823 30.3758V58.9986C57.5823 59.5489 57.1572 59.9999 56.6193 59.9999Z" fill="#3A3A3A"/>
<path d="M51.9685 55.9858H32.4474C31.9095 55.9858 31.4844 55.5347 31.4844 54.9844V34.6246C31.4844 34.0744 31.9182 33.6233 32.4474 33.6233H35.111C35.6489 33.6233 36.074 34.0744 36.074 34.6246C36.074 35.1749 35.6402 35.6259 35.111 35.6259H33.4105V53.9831H51.0055V35.6259H38.4599C37.922 35.6259 37.4969 35.1749 37.4969 34.6246C37.4969 34.0744 37.9307 33.6233 38.4599 33.6233H51.9685C52.5064 33.6233 52.9315 34.0744 52.9315 34.6246V54.9844C52.9315 55.5347 52.4977 55.9858 51.9685 55.9858Z" fill="#3A3A3A"/>
<path d="M27.1645 59.9999C26.6266 59.9999 26.2015 59.5489 26.2015 58.9986V51.331C26.2015 50.7807 26.6352 50.3297 27.1645 50.3297C27.7024 50.3297 28.1275 50.7807 28.1275 51.331V58.9986C28.1275 59.5489 27.6937 59.9999 27.1645 59.9999ZM17.2912 57.2216C16.7533 57.2216 16.3281 56.7705 16.3281 56.2203V39.1079C16.3281 38.5576 16.7619 38.1066 17.2912 38.1066H27.1645C27.7024 38.1066 28.1275 38.5576 28.1275 39.1079V48.3722C28.1275 48.9225 27.6937 49.3735 27.1645 49.3735C26.6266 49.3735 26.2015 48.9225 26.2015 48.3722V40.1092H18.2542V56.2203C18.2542 56.7705 17.8204 57.2216 17.2912 57.2216Z" fill="#3A3A3A"/>
<path d="M25.5171 35.6259H18.8713C18.3333 35.6259 17.9082 35.1749 17.9082 34.6246C17.9082 34.0744 18.342 33.6233 18.8713 33.6233H25.5171C26.055 33.6233 26.4801 34.0744 26.4801 34.6246C26.4801 35.1749 26.055 35.6259 25.5171 35.6259Z" fill="#3A3A3A"/>
<path d="M37.2113 49.9057C36.9684 49.9057 36.7168 49.8065 36.5259 49.6081C36.1528 49.2202 36.1528 48.5797 36.5259 48.1918L44.6467 39.7484C45.0197 39.3605 45.6357 39.3605 46.0088 39.7484C46.3819 40.1363 46.3819 40.7767 46.0088 41.1646L37.888 49.6081C37.7058 49.8065 37.4542 49.9057 37.2113 49.9057Z" fill="#3A3A3A"/>
<path d="M41.184 50.1402C40.941 50.1402 40.6894 50.041 40.4986 49.8426C40.1255 49.4547 40.1255 48.8142 40.4986 48.4263L44.8713 43.8798C45.2443 43.492 45.8603 43.492 46.2334 43.8798C46.6065 44.2677 46.6065 44.9082 46.2334 45.2961L41.8607 49.8426C41.6785 50.041 41.4269 50.1402 41.184 50.1402Z" fill="#3A3A3A"/>
<path d="M27.1639 49.3735H24.8908C24.3528 49.3735 23.9277 48.9225 23.9277 48.3722C23.9277 47.8219 24.3615 47.3709 24.8908 47.3709H27.1639C27.7018 47.3709 28.1269 47.8219 28.1269 48.3722C28.1269 48.9225 27.6931 49.3735 27.1639 49.3735Z" fill="#3A3A3A"/>
</svg>
