<svg width="70" height="69" viewBox="0 0 70 69" fill="none" xmlns="http://www.w3.org/2000/svg">
<path fill-rule="evenodd" clip-rule="evenodd" d="M43.9645 37.2947C49.356 37.2947 53.679 32.9715 53.679 27.5798C53.679 18.5094 45.7263 14.4554 43.9645 7.8891C42.2027 14.4554 34.25 18.5094 34.25 27.5798C34.25 32.9715 38.6301 37.2947 43.9645 37.2947Z" fill="#F3BBA4"/>
<path fill-rule="evenodd" clip-rule="evenodd" d="M21.3938 22.6205L28.9142 26.9926V35.696L21.3938 40.0191L13.8652 35.696V26.9926L21.3938 22.6205Z" fill="#C7D9B0"/>
<path fill-rule="evenodd" clip-rule="evenodd" d="M28.9149 35.6959L36.4435 40.0191V48.7143L28.9149 53.0864L21.3945 48.7143V40.0191L28.9149 35.6959Z" fill="#C7D9B0"/>
<path fill-rule="evenodd" clip-rule="evenodd" d="M44.0209 35.6959L51.5412 40.0191V48.7143L44.0209 53.0864L36.4434 48.7143V40.0191L44.0209 35.6959Z" fill="#C7D9B0"/>
<path d="M49.9415 35.8509C49.6723 35.8509 49.4032 35.7286 49.2319 35.5083C48.9219 35.1168 48.9872 34.5458 49.3869 34.2359C51.5076 32.5718 52.7229 30.0922 52.7229 27.4249C52.7229 22.3839 50.072 18.9662 47.5027 15.6545C46.165 13.9334 44.8844 12.2775 43.979 10.4422C43.0818 12.2857 41.7931 13.9497 40.4554 15.6871C37.9105 18.9906 35.2678 22.4002 35.2678 27.433C35.2678 30.0922 36.4831 32.58 38.6038 34.244C38.9954 34.554 39.0688 35.125 38.7588 35.5165C38.4489 35.908 37.8779 35.9733 37.4864 35.6715C34.9252 33.6567 33.457 30.655 33.457 27.433C33.457 21.7884 36.4097 17.9629 39.0198 14.5859C40.7817 12.3101 42.4374 10.1567 43.09 7.67702C43.196 7.27733 43.5549 7 43.9627 7C44.3705 7 44.7295 7.27733 44.8355 7.66886C45.5043 10.1404 47.1683 12.2857 48.9301 14.5533C51.5565 17.9384 54.5255 21.7721 54.5255 27.433C54.5255 30.655 53.0573 33.6567 50.4962 35.6715C50.333 35.7857 50.1373 35.8509 49.9415 35.8509Z" fill="#3A3A3A"/>
<path d="M38.4176 31.5278C38.0913 31.5278 37.7814 31.3483 37.6183 31.0465C37.0147 29.9127 36.7129 28.7463 36.7129 27.5798C36.7129 26.7968 36.8026 26.0137 36.9984 25.092C37.1044 24.6026 37.5775 24.2926 38.075 24.3987C38.5644 24.5047 38.8744 24.986 38.7765 25.4754C38.6052 26.2584 38.5318 26.9273 38.5318 27.5798C38.5318 28.4608 38.7602 29.3173 39.2251 30.1982C39.4617 30.6387 39.2904 31.1933 38.8499 31.4217C38.7031 31.4952 38.5563 31.5278 38.4176 31.5278Z" fill="#3A3A3A"/>
<path d="M46.9489 34.089C46.6226 34.089 46.3127 33.9096 46.1495 33.6078C45.913 33.1673 46.0843 32.6126 46.5247 32.3843C47.267 31.9927 47.9114 31.4217 48.4578 30.6795C48.7596 30.2716 49.3225 30.1901 49.7303 30.4837C50.13 30.7773 50.2197 31.3483 49.926 31.748C49.2164 32.7105 48.36 33.4691 47.3812 33.9912C47.2425 34.0564 47.0957 34.089 46.9489 34.089Z" fill="#3A3A3A"/>
<path d="M50.3256 28.9502C49.8199 28.9502 49.4121 28.6157 49.4121 28.11C49.4121 27.9877 49.4284 27.849 49.4447 27.7103C49.4447 27.2128 49.8607 26.7315 50.3583 26.7315C50.864 26.7315 51.2718 27.0659 51.2718 27.5717C51.2718 27.694 51.2555 27.8245 51.2392 27.9632C51.2392 28.4771 50.8232 28.9502 50.3256 28.9502Z" fill="#3A3A3A"/>
<path d="M21.3945 40.9245C21.2395 40.9245 21.0846 40.8838 20.9459 40.8022L13.4255 36.479C13.1482 36.3159 12.9688 36.0141 12.9688 35.696V26.9926C12.9688 26.6663 13.14 26.3726 13.4174 26.2095L20.9378 21.8293C21.2232 21.6661 21.5658 21.6661 21.8513 21.8293L29.3717 26.2095C29.649 26.3726 29.8203 26.6745 29.8203 26.9926V35.696C29.8203 36.0222 29.649 36.3241 29.3635 36.479L21.8431 40.8022C21.7045 40.8838 21.5495 40.9245 21.3945 40.9245ZM14.7714 35.1658L21.3864 38.9669L28.0014 35.1658V27.5146L21.3864 23.6646L14.7714 27.5146V35.1658Z" fill="#3A3A3A"/>
<path d="M43.9646 54C43.8096 54 43.6465 53.9592 43.5078 53.8776L39.8292 51.7405C39.3969 51.4877 39.2501 50.933 39.4948 50.5007C39.7477 50.0684 40.3105 49.9216 40.7346 50.1744L43.9646 52.0424L50.6367 48.1923V40.5493L43.9646 36.7482L36.8928 40.8103C36.4605 41.0632 35.9059 40.9164 35.653 40.4759C35.4002 40.0436 35.5552 39.4889 35.9875 39.236L43.5078 34.9129C43.7852 34.7497 44.1277 34.7497 44.4132 34.9129L51.9907 39.236C52.268 39.3992 52.4475 39.701 52.4475 40.0273V48.7225C52.4475 49.0488 52.2762 49.3424 51.9989 49.5056L44.4214 53.8858C44.2746 53.9592 44.1196 54 43.9646 54Z" fill="#3A3A3A"/>
<path d="M30.1955 48.8775H27.6915C26.3375 48.8775 25.2363 47.7763 25.2363 46.4223V43.9181C25.2363 43.4205 25.6441 43.0127 26.1417 43.0127C26.6393 43.0127 27.0471 43.4205 27.0471 43.9181V46.4223C27.0471 46.773 27.3326 47.0667 27.6915 47.0667H30.1955C30.5463 47.0667 30.8399 46.7812 30.8399 46.4223V45.5169C30.8399 45.1253 30.5626 44.8235 30.1955 44.8235H28.7029C28.1972 44.8235 27.7975 44.4157 27.7975 43.9181C27.7975 43.4205 28.2053 43.0127 28.7029 43.0127H30.1955C31.574 43.0127 32.6507 44.1139 32.6507 45.5169V46.4223C32.6507 47.7763 31.5495 48.8775 30.1955 48.8775Z" fill="#3A3A3A"/>
<path d="M30.1955 44.8153C29.6898 44.8153 29.2902 44.4075 29.2902 43.9099C29.2902 43.4123 29.698 43.0045 30.1955 43.0045C30.5463 43.0045 30.8399 42.719 30.8399 42.3601C30.8399 41.9686 30.5626 41.6668 30.1955 41.6668H27.6915C27.3244 41.6668 27.0471 41.9686 27.0471 42.3601V43.9099C27.0471 44.4075 26.6393 44.8153 26.1417 44.8153C25.6441 44.8153 25.2363 44.4075 25.2363 43.9099V42.3601C25.2363 40.9571 26.313 39.8478 27.6915 39.8478H30.1955C31.574 39.8478 32.6507 40.949 32.6507 42.3601C32.6507 43.7141 31.5495 44.8153 30.1955 44.8153Z" fill="#3A3A3A"/>
<path d="M43.9641 48.8775H42.7325C41.3785 48.8775 40.2773 47.7763 40.2773 46.4223V42.3683C40.2773 40.9653 41.354 39.856 42.7325 39.856H43.9641C46.0196 39.856 47.6999 41.5281 47.6999 43.5918V45.1906C47.6999 47.2543 46.0604 48.8775 43.9641 48.8775ZM42.7406 41.6668C42.3736 41.6668 42.0963 41.9686 42.0963 42.3601V46.4141C42.0963 46.7648 42.3817 47.0585 42.7406 47.0585H43.9723C45.0653 47.0585 45.8973 46.2591 45.8973 45.1906V43.5918C45.8973 42.5151 45.0571 41.6668 43.9723 41.6668H42.7406Z" fill="#3A3A3A"/>
<path d="M21.8177 35.8509C19.7541 35.8509 18.082 34.1788 18.082 32.1151V30.5653C18.082 28.5016 19.7541 26.8294 21.8177 26.8294C22.821 26.8294 23.8161 27.2617 24.4686 27.9795C24.8031 28.3547 24.7786 28.9257 24.4034 29.2602C24.0282 29.6027 23.4572 29.5701 23.1228 29.1949C22.8128 28.8523 22.3153 28.6402 21.8177 28.6402C20.7737 28.6402 19.8928 29.5212 19.8928 30.5653V32.1151C19.8928 33.1592 20.7737 34.0319 21.8177 34.0319C22.3153 34.0319 22.8128 33.8199 23.1228 33.4773C23.4572 33.1102 24.0282 33.0776 24.4034 33.412C24.7786 33.7464 24.8031 34.3174 24.4686 34.6926C23.8161 35.4186 22.821 35.8509 21.8177 35.8509Z" fill="#3A3A3A"/>
<path d="M28.9147 54C28.6047 54 28.2948 53.8369 28.1317 53.5514C27.8788 53.1191 28.0256 52.5644 28.4579 52.3115L35.5297 48.2005V40.5493L32.2997 38.6732C31.8674 38.4203 31.7206 37.8657 31.9734 37.4334C32.2263 37.001 32.7809 36.8542 33.2132 37.1071L36.8919 39.2442C37.1692 39.4073 37.3405 39.7091 37.3405 40.0272V48.7225C37.3405 49.0488 37.1692 49.3424 36.8919 49.5056L29.3715 53.8858C29.2247 53.9592 29.0697 54 28.9147 54Z" fill="#3A3A3A"/>
<path d="M25.0723 51.7568C24.9173 51.7568 24.7623 51.716 24.6155 51.6345L20.9369 49.4974C20.6596 49.3342 20.4883 49.0324 20.4883 48.7143V40.0191C20.4883 39.5215 20.8961 39.1136 21.3937 39.1136C21.8912 39.1136 22.299 39.5215 22.299 40.0191V48.1923L25.529 50.0684C25.9613 50.3212 26.1082 50.8759 25.8635 51.3082C25.6922 51.5937 25.3822 51.7568 25.0723 51.7568Z" fill="#3A3A3A"/>
<path d="M59.062 54C58.9071 54 58.7521 53.9592 58.6053 53.8776L51.0849 49.4974C50.6526 49.2445 50.5058 48.6898 50.7586 48.2575C51.0115 47.8252 51.5661 47.6784 51.9984 47.9312L59.5188 52.3115C59.9511 52.5644 60.0979 53.119 59.8451 53.5513C59.682 53.8368 59.372 54 59.062 54Z" fill="#3A3A3A"/>
<path d="M17.7077 51.7569C17.3977 51.7569 17.0878 51.5937 16.9246 51.3082C16.6718 50.8759 16.8186 50.3212 17.2509 50.0684L20.9295 47.9313C21.3618 47.6866 21.9165 47.8252 22.1693 48.2576C22.4222 48.6899 22.2754 49.2445 21.8431 49.4974L18.1645 51.6345C18.0258 51.7161 17.8627 51.7569 17.7077 51.7569Z" fill="#3A3A3A"/>
<path d="M43.964 36.6014C43.4583 36.6014 43.0586 36.1935 43.0586 35.6959V31.4299C43.0586 30.9323 43.4664 30.5245 43.964 30.5245C44.4615 30.5245 44.8694 30.9323 44.8694 31.4299V35.6959C44.8694 36.1935 44.4697 36.6014 43.964 36.6014Z" fill="#3A3A3A"/>
<path d="M21.3937 23.5259C20.8879 23.5259 20.4883 23.118 20.4883 22.6204V18.3544C20.4883 17.8568 20.8961 17.449 21.3937 17.449C21.8912 17.449 22.299 17.8568 22.299 18.3544V22.6204C22.299 23.118 21.8912 23.5259 21.3937 23.5259Z" fill="#3A3A3A"/>
</svg>
