<svg width="70" height="69" viewBox="0 0 70 69" fill="none" xmlns="http://www.w3.org/2000/svg">
<path fill-rule="evenodd" clip-rule="evenodd" d="M35.4404 9.02838C42.8437 21.7369 43.745 33.2892 38.2638 43.7594C43.2576 34.7413 50.8357 29.7837 60.9429 28.7571C56.9699 37.4144 50.477 42.853 41.3263 45.0358C46.9823 43.8889 52.2152 44.9155 56.9699 48.125C51.4978 51.2143 45.6027 50.9646 39.3398 47.3943C41.0228 48.7817 42.1632 50.5391 42.7702 52.7219C39.5237 52.5369 36.875 50.9646 35.4312 48.125C34.0516 50.9646 31.403 52.5462 28.1474 52.7219C28.69 50.5391 29.8947 48.791 31.5777 47.3943C25.2596 50.9646 19.3645 51.205 13.8924 48.125C18.7023 44.9155 23.9444 43.8889 29.5912 45.0358C20.4497 42.853 13.9476 37.4144 9.97461 28.7571C20.0818 29.7837 27.6047 34.7506 32.6538 43.7594C27.2001 33.2892 28.1014 21.7369 35.4404 9.02838Z" fill="#C7D9B0"/>
<path fill-rule="evenodd" clip-rule="evenodd" d="M35.4404 48.1158C35.2013 52.1115 34.7139 56.0424 33.877 59.9733H37.7304C36.8843 56.0424 36.406 52.1115 36.1669 48.1158H35.4404Z" fill="#C7D9B0"/>
<path d="M37.7302 61H33.8768C33.5641 61 33.279 60.8613 33.0767 60.6208C32.8835 60.3803 32.81 60.0658 32.8743 59.7606C33.6561 56.0979 34.1619 52.2687 34.4194 48.051C34.4562 47.4868 34.9068 47.0891 35.5046 47.0891C36.0656 47.1261 36.4978 47.6163 36.4611 48.1805C36.2311 52.019 35.7897 55.5614 35.1275 58.9467H36.4611C36.3047 58.1882 36.1668 57.4113 36.0472 56.6159C35.9644 56.0517 36.3507 55.5337 36.9025 55.4412C37.4635 55.3487 37.9785 55.7464 38.0613 56.3014C38.236 57.4945 38.4751 58.6229 38.7143 59.7513C38.7786 60.0566 38.7051 60.3711 38.5027 60.6115C38.328 60.8613 38.0337 61 37.7302 61Z" fill="#3A3A3A"/>
<path d="M28.1665 53.7393C27.863 53.7393 27.5688 53.6006 27.3756 53.3601C27.1733 53.1104 27.0997 52.7774 27.1733 52.4629C27.3756 51.6583 27.6607 50.8813 28.0378 50.1599C22.8968 51.982 17.995 51.6028 13.4058 49.013C13.0931 48.8372 12.9 48.5135 12.8816 48.1528C12.8632 47.7921 13.0379 47.4591 13.3414 47.2556C16.3212 45.2763 19.4756 44.0831 22.7773 43.6946C16.735 40.7349 12.1366 35.879 9.06493 29.1825C8.90859 28.8496 8.94537 28.4518 9.1569 28.1559C9.36842 27.8599 9.72709 27.6934 10.095 27.7304C17.7926 28.5166 24.12 31.5781 28.9851 36.8779C26.879 28.0911 28.7367 18.5829 34.5583 8.51042C34.8434 8.02021 35.4688 7.85373 35.9562 8.14045C36.4436 8.42718 36.6091 9.05613 36.324 9.54634C29.123 22.0144 28.2217 33.0487 33.5742 43.2784C33.8317 43.7779 33.6478 44.3883 33.1604 44.6566C32.6637 44.9248 32.0568 44.749 31.7809 44.2588C27.1917 36.0732 20.6252 31.4024 11.7504 30.015C15.6682 37.4699 21.6001 42.0668 29.8404 44.0276C30.383 44.1571 30.7232 44.7028 30.6037 45.2485C30.4841 45.7942 29.9507 46.1364 29.3989 46.0347C24.6534 45.0635 20.1562 45.7387 16.0177 48.0233C20.7264 50.0581 25.665 49.5494 31.0819 46.4879C31.5417 46.2289 32.1303 46.3677 32.4246 46.8024C32.7189 47.2463 32.6362 47.8383 32.2315 48.1805C31.0911 49.1239 30.2358 50.2246 29.6656 51.4548C30.245 51.316 30.8336 51.1125 31.4038 50.8628C31.9188 50.6316 32.5258 50.8721 32.7557 51.39C32.9856 51.908 32.7557 52.5184 32.2315 52.7497C30.9072 53.3416 29.5185 53.6838 28.1941 53.7486C28.1941 53.7393 28.1757 53.7393 28.1665 53.7393Z" fill="#3A3A3A"/>
<path d="M42.7795 53.7393C42.7611 53.7393 42.7427 53.7393 42.7244 53.7393C39.0273 53.5358 36.1119 51.7045 34.5301 48.5782C34.2726 48.0695 34.4749 47.4498 34.9715 47.2001C35.4773 46.9411 36.0935 47.1446 36.351 47.6441C37.3535 49.6234 39.0641 50.9368 41.2437 51.4548C40.6551 50.1876 39.8182 49.1054 38.7054 48.1805C38.2915 47.8383 38.2088 47.2463 38.5122 46.8024C38.8157 46.3584 39.4043 46.2289 39.855 46.4879C45.1523 49.5032 50.1829 50.0119 54.864 48.014C50.7715 45.7387 46.3019 45.0635 41.538 46.0347C40.977 46.1364 40.4528 45.7942 40.3332 45.2485C40.2136 44.7028 40.5539 44.1571 41.0965 44.0276C49.3368 42.0668 55.2779 37.4699 59.1865 30.015C50.2565 31.4024 43.69 36.0825 39.156 44.2588C38.8801 44.749 38.2639 44.9248 37.7765 44.6658C37.2799 44.3976 37.0959 43.7779 37.3627 43.2784C42.6508 33.169 41.7035 21.8201 34.5576 9.54634C34.2725 9.05613 34.4381 8.42718 34.9255 8.14045C35.4129 7.85373 36.0383 8.02021 36.3234 8.51042C42.1725 18.5459 44.0579 28.0449 41.961 36.8317C46.7985 31.5781 53.1259 28.5258 60.8419 27.7396C61.219 27.6934 61.5685 27.8691 61.78 28.1651C61.9915 28.4611 62.0283 28.8588 61.8719 29.1918C58.8002 35.8883 54.2111 40.7441 48.1688 43.7039C51.4704 44.0923 54.6065 45.2855 57.5495 47.2741C57.8438 47.4776 58.0185 47.8106 58.0001 48.1713C57.9817 48.532 57.7886 48.8557 57.4759 49.0315C52.8775 51.6213 47.9849 52.0005 42.8807 50.1784C43.2486 50.8906 43.5429 51.649 43.7636 52.4537C43.8556 52.7682 43.782 53.1196 43.5704 53.3694C43.3865 53.6006 43.0922 53.7393 42.7795 53.7393Z" fill="#3A3A3A"/>
</svg>
