<svg width="73" height="73" viewBox="0 0 73 73" fill="none" xmlns="http://www.w3.org/2000/svg">
<path fill-rule="evenodd" clip-rule="evenodd" d="M62.9599 17.7132C62.9599 16.3639 61.798 15.2582 60.4487 15.2582H13.5512C12.1457 15.2582 11.04 16.3639 11.04 17.7132V52.289C11.04 53.6383 12.1457 54.7439 13.5512 54.7439H60.4487C61.798 54.7439 62.9599 53.6383 62.9599 52.289C62.9599 40.7637 62.9599 29.2385 62.9599 17.7132Z" fill="#F6F7F7"/>
<path fill-rule="evenodd" clip-rule="evenodd" d="M11.04 48.1754V52.2795C11.04 53.6288 12.1457 54.7345 13.5512 54.7345H60.4487C61.798 54.7345 62.9599 53.6288 62.9599 52.2795V48.1754H11.04Z" fill="#B9BABA"/>
<path fill-rule="evenodd" clip-rule="evenodd" d="M42.1209 61.9683L40.6497 54.7346H33.3598L31.8887 61.9683H42.1209Z" fill="#E4E7E7"/>
<path d="M60.4487 55.7746H13.5513C11.5929 55.7746 10 54.2098 10 52.2795V17.7038C10 15.7736 11.5929 14.2087 13.5513 14.2087H30.2207C30.8017 14.2087 31.2608 14.6773 31.2608 15.2488C31.2608 15.8298 30.7923 16.2889 30.2207 16.2889H13.5513C12.7267 16.2889 12.0802 16.9073 12.0802 17.7038V52.2795C12.0802 53.0666 12.7267 53.6944 13.5513 53.6944H60.4487C61.2358 53.6944 61.9198 53.0385 61.9198 52.2795V17.7038C61.9198 16.9542 61.2358 16.2889 60.4487 16.2889H43.7793C43.1983 16.2889 42.7392 15.8204 42.7392 15.2488C42.7392 14.6679 43.2077 14.2087 43.7793 14.2087H60.4487C62.379 14.2087 64 15.811 64 17.7038V52.2795C64 54.1817 62.379 55.7746 60.4487 55.7746Z" fill="#424952"/>
<path d="M45.9257 63.0083H28.085C27.5041 63.0083 27.0449 62.5398 27.0449 61.9682C27.0449 61.3967 27.5134 60.9282 28.085 60.9282H45.9257C46.5067 60.9282 46.9658 61.3967 46.9658 61.9682C46.9658 62.5398 46.4973 63.0083 45.9257 63.0083Z" fill="#424952"/>
<path d="M31.8887 63.0178C31.8138 63.0178 31.7482 63.0084 31.6732 62.999C31.111 62.8772 30.755 62.3244 30.8674 61.7621L31.5983 58.2671C31.7201 57.7049 32.2635 57.3488 32.8351 57.4613C33.3973 57.5831 33.7534 58.1359 33.641 58.6981L32.9101 62.1932C32.7976 62.6711 32.3666 63.0178 31.8887 63.0178Z" fill="#424952"/>
<path d="M42.1212 63.0177C41.6339 63.0177 41.2029 62.671 41.0998 62.1837L39.6287 54.95C39.5163 54.3878 39.8817 53.835 40.4439 53.7225C41.0061 53.6288 41.559 53.9755 41.6714 54.5377L43.1425 61.7715C43.255 62.3337 42.8895 62.8865 42.3273 62.9989C42.2617 63.0083 42.1868 63.0177 42.1212 63.0177Z" fill="#424952"/>
<path d="M62.9599 49.2155H11.0401C10.4591 49.2155 10 48.747 10 48.1754C10 47.5945 10.4685 47.1354 11.0401 47.1354H62.9599C63.5409 47.1354 64 47.6039 64 48.1754C64 48.7564 63.5409 49.2155 62.9599 49.2155Z" fill="#424952"/>
<path d="M37.3981 52.5326H36.6016C36.0206 52.5326 35.5615 52.0641 35.5615 51.4925C35.5615 50.9209 36.03 50.4524 36.6016 50.4524H37.3981C37.979 50.4524 38.4381 50.9209 38.4381 51.4925C38.4381 52.0641 37.979 52.5326 37.3981 52.5326Z" fill="#424952"/>
<path fill-rule="evenodd" clip-rule="evenodd" d="M36.977 10.0485C41.3903 17.5258 42.3086 24.4503 39.7974 30.7658H40.1628C43.4704 26.2307 48.0056 23.5976 53.89 23.0448C51.9879 27.1489 49.1675 30.1567 45.4944 32.0589C46.8999 32.6117 48.3148 33.3426 49.7859 34.2046C46.4127 35.8631 42.1867 36.3504 36.977 35.6757C31.8234 36.3504 27.5413 35.8631 24.2242 34.2046C25.6298 33.3426 27.1008 32.6117 28.5157 32.0589C24.8333 30.1567 22.0223 27.1583 20.1201 23.0448C26.0046 23.5976 30.5397 26.2307 33.8473 30.7658H34.1566C31.7016 24.4597 32.6198 17.5258 36.977 10.0485Z" fill="#8EB360"/>
<path d="M36.9766 44.5586C36.3956 44.5586 35.9365 44.0901 35.9365 43.5185V35.6757C35.9365 35.0948 36.405 34.6356 36.9766 34.6356C37.5482 34.6356 38.0167 35.1041 38.0167 35.6757V43.5185C38.0167 44.0994 37.5482 44.5586 36.9766 44.5586Z" fill="#424952"/>
<path d="M42.3647 34.2608C41.9149 34.2608 41.5027 33.9704 41.3715 33.5206C41.2028 32.9677 41.512 32.3868 42.0649 32.2181C46.4313 30.8969 49.6921 28.3014 51.9784 24.3098C48.9706 24.9001 46.4032 26.0526 44.3137 27.7673C43.8827 28.1328 43.2174 28.0672 42.8519 27.6268C42.4865 27.1864 42.5521 26.5305 42.9925 26.165C45.8316 23.8319 49.4391 22.4076 53.7119 21.9485C54.0867 21.911 54.4521 22.0703 54.6677 22.3795C54.8832 22.6794 54.93 23.0823 54.7707 23.4196C52.2502 28.9199 48.1742 32.5555 42.6645 34.2233C42.5708 34.2515 42.4678 34.2608 42.3647 34.2608ZM38.8134 33.8392C38.6448 33.8392 38.4761 33.7923 38.3168 33.708C37.8108 33.4363 37.6234 32.7991 37.8951 32.2931C41.3715 25.8558 40.7624 18.5471 36.0774 10.5732C35.7869 10.0765 35.9462 9.43937 36.4428 9.1489C36.9394 8.84905 37.5766 9.01772 37.867 9.51433C42.955 18.1536 43.5734 26.1557 39.7223 33.277C39.5443 33.633 39.1789 33.8392 38.8134 33.8392Z" fill="#424952"/>
<path d="M41.2767 37.0062C39.8806 37.0062 38.4001 36.9032 36.8352 36.7064C36.2637 36.6314 35.8608 36.1067 35.9357 35.5445C36.0107 34.9729 36.5354 34.5606 37.0976 34.645C42.12 35.2915 46.1117 34.8417 49.3162 33.2676C49.8316 33.0146 50.4594 33.2301 50.7124 33.7454C50.9654 34.2608 50.7499 34.8886 50.2345 35.1416C47.6952 36.3878 44.7343 37.0062 41.2767 37.0062Z" fill="#424952"/>
<path d="M41.8209 40.2108C41.7834 40.2108 41.7553 40.2108 41.7178 40.2108C41.0526 40.1453 40.4529 40.0141 39.9188 39.8829C39.3566 39.7423 39.0192 39.1801 39.1598 38.6179C39.3003 38.0557 39.8532 37.7184 40.4248 37.8589C40.8745 37.9714 41.3711 38.0838 41.9334 38.1401C42.5049 38.1963 42.9266 38.7116 42.8704 39.2832C42.7954 39.8079 42.3456 40.2108 41.8209 40.2108Z" fill="#424952"/>
<path d="M31.6442 34.2608C31.5411 34.2608 31.4474 34.2421 31.3444 34.214C25.8347 32.5461 21.7587 28.9105 19.2382 23.4102C19.0789 23.0635 19.1257 22.67 19.3412 22.3701C19.5567 22.0609 19.9222 21.9016 20.297 21.9391C24.5604 22.3982 28.0648 23.7757 31.0164 26.1463C31.4662 26.5024 31.5318 27.1583 31.1757 27.608C30.8196 28.0578 30.1543 28.1328 29.714 27.7673C27.5495 26.0245 25.0195 24.8813 22.0398 24.3004C24.3261 28.2921 27.5776 30.8876 31.9534 32.2088C32.5063 32.3774 32.8155 32.9584 32.6468 33.5112C32.4969 33.9703 32.0846 34.2608 31.6442 34.2608ZM35.1955 33.8392C34.83 33.8392 34.4646 33.6424 34.2772 33.2957C30.4354 26.1838 31.0351 18.1911 36.0669 9.53308C36.3574 9.03647 36.9945 8.86781 37.4911 9.15828C37.9878 9.44875 38.1564 10.0859 37.866 10.5825C33.2277 18.5752 32.6281 25.8839 36.1044 32.3025C36.3761 32.8085 36.1887 33.4456 35.6827 33.7174C35.5328 33.7923 35.3641 33.8392 35.1955 33.8392Z" fill="#424952"/>
<path d="M32.7233 37.0063C29.2564 37.0063 26.2486 36.3785 23.7561 35.1322C23.2408 34.8793 23.0346 34.2515 23.2876 33.7361C23.5406 33.2207 24.1778 33.0146 24.6837 33.2676C27.7946 34.823 31.88 35.2822 36.8368 34.6356C37.399 34.5607 37.9331 34.9542 38.0081 35.5352C38.083 36.1067 37.6801 36.6315 37.1085 36.7064C35.5718 36.9032 34.1101 37.0063 32.7233 37.0063Z" fill="#424952"/>
<path d="M32.1881 40.2108C31.6634 40.2108 31.2042 39.8079 31.1574 39.2738C31.1012 38.7022 31.5228 38.1869 32.0944 38.1307C32.6472 38.0744 33.1532 37.962 33.603 37.8496C34.1652 37.6996 34.7274 38.0463 34.8679 38.6085C35.0085 39.1707 34.6712 39.7329 34.109 39.8735C33.5749 40.0047 32.9752 40.1359 32.3099 40.2015C32.263 40.2108 32.2256 40.2108 32.1881 40.2108Z" fill="#424952"/>
</svg>
