<svg width="80" height="80" viewBox="0 0 80 80" fill="none" xmlns="http://www.w3.org/2000/svg">
<path d="M12.3136 32.9488H17.9612C18.6822 32.9488 19.2666 32.3453 19.2666 31.6011C19.2666 30.8569 18.6822 30.2534 17.9612 30.2534H12.3136C11.5927 30.2534 11.0083 30.8569 11.0083 31.6011C11.0083 32.3453 11.5927 32.9488 12.3136 32.9488V32.9488Z" fill="#3A3A3A"/>
<path d="M11.7049 23.5736L17.3525 26.648C17.5467 26.7538 17.7549 26.8039 17.9604 26.8039C18.429 26.8039 18.8822 26.5426 19.1161 26.0848C19.4524 25.4267 19.2081 24.6117 18.5705 24.2647L12.9228 21.1903C12.2854 20.8432 11.4955 21.0952 11.1593 21.7534C10.823 22.4116 11.0673 23.2266 11.7049 23.5736V23.5736Z" fill="#3A3A3A"/>
<path d="M11.1589 41.4483C11.3927 41.9064 11.8459 42.168 12.3149 42.168C12.52 42.168 12.7282 42.118 12.9222 42.0125L18.5698 38.942C19.2075 38.5952 19.4523 37.7804 19.1163 37.1221C18.7803 36.4636 17.9909 36.2112 17.3531 36.5578L11.7055 39.6283C11.0677 39.9751 10.8231 40.79 11.1589 41.4483V41.4483Z" fill="#3A3A3A"/>
<g clip-path="url(#clip0)">
<g clip-path="url(#clip1)">
<path fill-rule="evenodd" clip-rule="evenodd" d="M40.3994 45.1648H16.8147L12.1392 54.3484H15.0738H35.7237L40.3994 45.1648Z" fill="#FFF1D8"/>
<path fill-rule="evenodd" clip-rule="evenodd" d="M63.9845 45.1648H40.3999L45.0754 54.3484H65.7217H68.6601L63.9845 45.1648Z" fill="#FFF1D8"/>
<path fill-rule="evenodd" clip-rule="evenodd" d="M35.7242 54.3484H15.0742V78.6947H40.3998V45.1648L35.7242 54.3484Z" fill="#F3BBA4"/>
<path fill-rule="evenodd" clip-rule="evenodd" d="M65.7217 54.3484H45.0754L40.3999 45.1648V78.6947H65.7217V54.3484Z" fill="#F3BBA4"/>
<path d="M69.8231 53.7562L65.1476 44.5727C64.9248 44.1352 64.4753 43.8596 63.9843 43.8596H40.3997H16.8149C16.3238 43.8596 15.8744 44.1352 15.6516 44.5727L10.976 53.7562C10.7701 54.161 10.7891 54.6435 11.0264 55.0307C11.2637 55.4179 11.6852 55.6537 12.1392 55.6537H13.7685V78.6949C13.7685 79.4157 14.3529 80.0002 15.0738 80.0002H65.7213C66.4422 80.0002 67.0266 79.4157 67.0266 78.6949V55.6539H68.6597C69.1138 55.6539 69.5353 55.4179 69.7725 55.0308C70.01 54.6435 70.0291 54.161 69.8231 53.7562V53.7562ZM63.1841 46.4703L66.5306 53.0431H45.8754L42.5289 46.4703H63.1841ZM17.6152 46.4703H38.2703L34.9239 53.0431H14.2687L17.6152 46.4703ZM64.4162 77.3896H41.705V70.1551C41.705 69.4343 41.1206 68.8498 40.3997 68.8498C39.6788 68.8498 39.0944 69.4343 39.0944 70.1551V77.3896H16.3794V55.6539H35.7242C36.2152 55.6539 36.6647 55.3784 36.8875 54.9408L39.0944 50.6059V58.4334C39.0944 59.1542 39.6788 59.7387 40.3997 59.7387C41.1206 59.7387 41.705 59.1542 41.705 58.4334V50.6059L43.9119 54.9408C44.1348 55.3784 44.5842 55.6539 45.0752 55.6539H64.4162V77.3896Z" fill="#3A3A3A"/>
<path d="M29.2376 70.241H21.8048C21.0839 70.241 20.4995 70.8255 20.4995 71.5463C20.4995 72.2671 21.0839 72.8516 21.8048 72.8516H29.2376C29.9585 72.8516 30.5429 72.2671 30.5429 71.5463C30.5429 70.8255 29.9585 70.241 29.2376 70.241Z" fill="#3A3A3A"/>
<path d="M40.4001 62.989C39.6791 62.989 39.0947 63.5735 39.0947 64.2943V64.3018C39.0947 65.0226 39.6791 65.6034 40.4001 65.6034C41.121 65.6034 41.7054 65.0153 41.7054 64.2945C41.7054 63.5737 41.121 62.989 40.4001 62.989Z" fill="#3A3A3A"/>
<path d="M64.4166 32.7598H70.0643C70.7852 32.7598 71.3696 32.1753 71.3696 31.4545C71.3696 30.7337 70.7852 30.1492 70.0643 30.1492H64.4166C63.6957 30.1492 63.1113 30.7337 63.1113 31.4545C63.1113 32.1753 63.6957 32.7598 64.4166 32.7598Z" fill="#3A3A3A"/>
<path d="M64.4179 26.8066C64.6232 26.8066 64.8316 26.7581 65.0258 26.6556L70.6734 23.677C71.311 23.3408 71.5553 22.5512 71.219 21.9135C70.8826 21.2759 70.0932 21.0314 69.4555 21.3679L63.8079 24.3465C63.1703 24.6828 62.9261 25.4723 63.2623 26.11C63.4962 26.5535 63.9492 26.8066 64.4179 26.8066Z" fill="#3A3A3A"/>
<path d="M63.8086 38.5663L69.4562 41.5412C69.6503 41.6434 69.8583 41.6918 70.0634 41.6918C70.5324 41.6918 70.9856 41.4384 71.2194 40.9945C71.5554 40.3567 71.3106 39.5672 70.6728 39.2313L65.0252 36.2564C64.3873 35.9204 63.598 36.1651 63.262 36.8031C62.926 37.4409 63.1708 38.2303 63.8086 38.5663V38.5663Z" fill="#3A3A3A"/>
</g>
</g>
<path fill-rule="evenodd" clip-rule="evenodd" d="M40.215 0.993896C45.3282 10.028 45.9533 18.2949 42.1422 25.6775C45.606 19.2967 50.8321 15.7589 57.7597 15.0459C55.0946 21.183 50.5456 25.0276 44.2431 26.6161C48.1583 25.7858 51.7957 26.5529 55.0946 28.8001C51.2922 30.9842 47.2555 30.8037 42.8801 28.2676C44.0695 29.2694 44.8681 30.569 45.2675 32.1033C42.993 31.9228 41.1786 30.8037 40.215 28.8001C39.2514 30.8037 37.4283 31.9318 35.2146 32.1033C35.614 30.569 36.404 29.2694 37.602 28.2676C33.2266 30.8037 29.1378 30.9842 25.3875 28.8001C28.6777 26.5529 32.3151 25.7858 36.1783 26.6161C29.8757 25.0276 25.3875 21.192 22.6616 15.0459C29.65 15.7589 34.8761 19.2967 38.3399 25.6775C34.5375 18.2949 35.1626 10.028 40.215 0.993896Z" fill="#C7D9B0"/>
<path d="M40.2146 38.6097C39.685 38.6097 39.251 38.1585 39.251 37.608V28.8723C39.251 28.3218 39.685 27.8706 40.2146 27.8706C40.7441 27.8706 41.1782 28.3218 41.1782 28.8723V37.608C41.1782 38.1585 40.7441 38.6097 40.2146 38.6097Z" fill="#3A3A3A"/>
<path d="M30.8308 31.3812C28.7821 31.3812 26.8114 30.8307 24.9189 29.7386C24.6238 29.5672 24.4415 29.2513 24.4241 28.9083C24.4067 28.5654 24.5717 28.2314 24.8408 28.0329C25.9867 27.2116 27.2194 26.5798 28.4869 26.1376C28.9991 25.9571 29.5373 26.2459 29.711 26.7694C29.8759 27.2928 29.6068 27.8614 29.1033 28.0419C28.5477 28.2314 28.0008 28.4661 27.4712 28.7459C30.1797 29.7567 33.0966 29.513 36.1698 28.0058C36.6559 27.7712 37.2289 27.9878 37.4546 28.4841C37.6803 28.9895 37.472 29.5852 36.9945 29.8199C34.8763 30.8668 32.8188 31.3812 30.8308 31.3812Z" fill="#3A3A3A"/>
<path d="M35.44 27.4465C35.3532 27.4465 35.275 27.4375 35.1882 27.4104C29.0072 25.6866 24.5016 21.6613 21.7844 15.4608C21.6368 15.1359 21.6802 14.7478 21.8799 14.459C22.0796 14.1702 22.4268 14.0077 22.7654 14.0529C27.1581 14.5493 30.9257 16.1107 33.9555 18.7009C34.3635 19.0529 34.4243 19.6847 34.0857 20.1179C33.7471 20.5421 33.1395 20.6053 32.7228 20.2533C30.4049 18.2677 27.6008 16.95 24.3541 16.3182C26.8716 21.0475 30.5959 24.044 35.6917 25.47C36.2039 25.6144 36.5165 26.1649 36.3776 26.6974C36.256 27.1487 35.8654 27.4465 35.44 27.4465Z" fill="#3A3A3A"/>
<path d="M38.3394 26.7423C37.9922 26.7423 37.6623 26.5528 37.4887 26.2098C33.53 18.4665 34.1638 9.81168 39.3812 0.498039C39.6503 0.0197228 40.2406 -0.142724 40.7007 0.137046C41.1608 0.416816 41.3171 1.03051 41.048 1.50882C36.1952 10.1907 35.5701 18.1867 39.1902 25.2712C39.4419 25.7586 39.2596 26.3723 38.7909 26.625C38.6433 26.6972 38.4957 26.7423 38.3394 26.7423Z" fill="#3A3A3A"/>
<path d="M35.5003 33.6462C35.0316 33.6462 34.6235 33.2942 34.5454 32.7978C34.4673 32.2473 34.8232 31.7329 35.3528 31.6516C37.306 31.3358 38.7124 30.2257 39.3027 28.5199C39.485 27.9964 40.0406 27.7257 40.5355 27.9152C41.039 28.1047 41.2994 28.6824 41.1171 29.1968C40.2837 31.5885 38.287 33.204 35.6392 33.6282C35.5958 33.6462 35.5438 33.6462 35.5003 33.6462Z" fill="#3A3A3A"/>
<path d="M49.6509 31.3812C47.6629 31.3812 45.6055 30.8668 43.4959 29.8289C43.0098 29.5942 42.8014 28.9895 43.0358 28.4932C43.2615 27.9878 43.8345 27.7802 44.3206 28.0148C47.4372 29.5401 50.302 29.7928 53.0279 28.7549C52.4897 28.4751 51.9427 28.2405 51.3871 28.0419C50.8836 27.8704 50.6058 27.3019 50.7795 26.7694C50.9444 26.2459 51.4913 25.9571 52.0035 26.1376C53.2796 26.5798 54.5037 27.2116 55.6496 28.0329C55.9274 28.2314 56.0837 28.5563 56.0663 28.9083C56.049 29.2513 55.8666 29.5672 55.5715 29.7386C53.6703 30.8307 51.6997 31.3812 49.6509 31.3812Z" fill="#3A3A3A"/>
<path d="M45.042 27.4464C44.6166 27.4464 44.2259 27.1486 44.1044 26.7064C43.9655 26.1739 44.2694 25.6234 44.7902 25.479C49.8861 24.0531 53.6103 21.0478 56.1279 16.3279C52.8811 16.9596 50.0771 18.2772 47.7592 20.2627C47.3512 20.6146 46.7435 20.5605 46.3963 20.1273C46.0577 19.7031 46.1185 19.0624 46.5265 18.7104C49.5562 16.1203 53.3239 14.55 57.7166 14.0626C58.0464 14.0175 58.4024 14.18 58.602 14.4688C58.8017 14.7576 58.8451 15.1456 58.6975 15.4705C55.9803 21.6705 51.4748 25.6866 45.2937 27.4193C45.2069 27.4374 45.1201 27.4464 45.042 27.4464Z" fill="#3A3A3A"/>
<path d="M42.142 26.7423C41.9857 26.7423 41.8381 26.7062 41.6905 26.625C41.2218 26.3632 41.0394 25.7586 41.2912 25.2712C44.9199 18.1687 44.2775 10.1727 39.3813 1.50882C39.1122 1.03051 39.2685 0.416816 39.7286 0.137046C40.1887 -0.142724 40.779 0.0197228 41.0481 0.498039C46.3089 9.80265 46.9687 18.4575 43.0014 26.2188C42.8191 26.5437 42.4892 26.7423 42.142 26.7423Z" fill="#3A3A3A"/>
<path d="M44.9285 33.6462C44.8764 33.6462 44.833 33.6462 44.7809 33.6372C42.1592 33.222 40.2232 31.6518 39.3117 29.2332C39.1207 28.7188 39.3638 28.1322 39.8586 27.9337C40.3535 27.7261 40.9177 27.9878 41.1087 28.5022C41.7685 30.253 43.1315 31.3449 45.0674 31.6518C45.5969 31.733 45.9529 32.2474 45.8747 32.7979C45.8053 33.2942 45.3973 33.6462 44.9285 33.6462Z" fill="#3A3A3A"/>
<defs>
<clipPath id="clip0">
<rect width="66.7992" height="66.7992" fill="white" transform="translate(7 13.2009)"/>
</clipPath>
<clipPath id="clip1">
<rect width="66.7992" height="66.7992" fill="white" transform="translate(7 13.2009)"/>
</clipPath>
</defs>
</svg>
