<svg width="80" height="80" viewBox="0 0 80 80" fill="none" xmlns="http://www.w3.org/2000/svg">
<g clip-path="url(#clip0)">
<path fill-rule="evenodd" clip-rule="evenodd" d="M52.764 51.5752C61.9398 51.5752 69.2971 44.2192 69.2971 35.045C69.2971 19.6113 55.7624 12.7133 52.764 1.54053C49.7656 12.7133 36.231 19.6113 36.231 35.045C36.231 44.2192 43.6854 51.5752 52.764 51.5752Z" fill="#C7D9B0"/>
<path fill-rule="evenodd" clip-rule="evenodd" d="M14.3394 26.6067L27.1522 34.046V48.8551L14.3394 56.2111L1.54053 48.8551V34.046L14.3394 26.6067Z" fill="#F3BBA4"/>
<path fill-rule="evenodd" clip-rule="evenodd" d="M27.1526 48.855L39.9515 56.211V71.0063L27.1526 78.4455L14.3398 71.0063V56.211L27.1526 48.855Z" fill="#F3BBA4"/>
<path fill-rule="evenodd" clip-rule="evenodd" d="M52.8477 48.855L65.6605 56.211V71.0063L52.8477 78.4455L39.9517 71.0063V56.211L52.8477 48.855Z" fill="#F3BBA4"/>
<path d="M62.9396 49.1187C62.4815 49.1187 62.0234 48.9105 61.7319 48.5357C61.2044 47.8695 61.3154 46.898 61.9956 46.3706C65.6049 43.5392 67.6732 39.3199 67.6732 34.7814C67.6732 26.204 63.1617 20.3886 58.789 14.7536C56.5124 11.8251 54.333 9.00763 52.7921 5.8848C51.2651 9.02151 49.0718 11.8529 46.7952 14.8092C42.4642 20.4303 37.9665 26.2318 37.9665 34.7953C37.9665 39.3199 40.0349 43.5531 43.6441 46.3845C44.3104 46.9119 44.4353 47.8834 43.9078 48.5496C43.3803 49.2158 42.4086 49.3269 41.7423 48.8133C37.3835 45.3851 34.8848 40.2776 34.8848 34.7953C34.8848 25.1908 39.9099 18.6815 44.3521 12.9355C47.3505 9.06315 50.1685 5.39903 51.279 1.17974C51.4456 0.471895 52.0564 0 52.7505 0C53.4445 0 54.0553 0.471894 54.2358 1.1381C55.3741 5.34351 58.206 8.99375 61.2044 12.8522C65.6743 18.6121 70.7272 25.1353 70.7272 34.7675C70.7272 40.2498 68.2285 45.3574 63.8697 48.7856C63.6059 49.0076 63.2728 49.1187 62.9396 49.1187Z" fill="#424952"/>
<path d="M43.3109 41.7625C42.7557 41.7625 42.2282 41.4572 41.9505 40.9437C40.9233 39.0144 40.4097 37.0297 40.4097 35.045C40.4097 33.7126 40.5624 32.3801 40.8955 30.8118C41.076 29.979 41.8811 29.4516 42.7279 29.6321C43.5608 29.8125 44.0883 30.6314 43.9217 31.4641C43.6302 32.7965 43.5053 33.9346 43.5053 35.045C43.5053 36.5439 43.894 38.0012 44.6852 39.5002C45.0878 40.2497 44.7963 41.1935 44.0467 41.5821C43.8107 41.707 43.5608 41.7625 43.3109 41.7625Z" fill="#424952"/>
<path d="M57.845 46.1206C57.2897 46.1206 56.7622 45.8153 56.4846 45.3017C56.082 44.5522 56.3735 43.6085 57.1231 43.2198C58.3864 42.5536 59.483 41.5821 60.4131 40.3191C60.9267 39.6251 61.8845 39.4863 62.5786 39.986C63.2588 40.4856 63.4115 41.4572 62.9118 42.1373C61.7041 43.775 60.2465 45.0658 58.5807 45.954C58.3308 46.0651 58.0948 46.1206 57.845 46.1206Z" fill="#424952"/>
<path d="M63.5782 37.377C62.7175 37.377 62.0234 36.8079 62.0234 35.9474C62.0234 35.7392 62.0512 35.5033 62.079 35.2673C62.079 34.4207 62.7869 33.6018 63.6337 33.6018C64.4944 33.6018 65.1885 34.1709 65.1885 35.0314C65.1885 35.2396 65.1607 35.4616 65.133 35.6976C65.1468 36.572 64.4389 37.377 63.5782 37.377Z" fill="#424952"/>
<path d="M14.3398 57.7518C14.076 57.7518 13.8123 57.6824 13.5763 57.5436L0.777373 50.1876C0.305397 49.91 0 49.3965 0 48.8552V34.046C0 33.4908 0.291515 32.9912 0.763491 32.7136L13.5624 25.2604C14.0482 24.9828 14.6313 24.9828 15.1171 25.2604L27.916 32.7136C28.388 32.9912 28.6795 33.5047 28.6795 34.046V48.8552C28.6795 49.4103 28.388 49.9239 27.9021 50.1876L15.1032 57.5436C14.8811 57.6824 14.6174 57.7518 14.3398 57.7518ZM3.08173 47.953L14.3398 54.4207L25.5978 47.953V34.9343L14.3398 28.3833L3.08173 34.9343V47.953V47.953Z" fill="#424952"/>
<path d="M52.7638 80.0001C52.5001 80.0001 52.2224 79.9307 51.9864 79.7919L45.7258 76.1555C44.9901 75.7253 44.7402 74.7815 45.1567 74.0459C45.587 73.3103 46.5448 73.0605 47.2667 73.4907L52.7638 76.6691L64.119 70.1181V57.1132L52.7638 50.6455L40.7284 57.5573C39.9927 57.9876 39.0487 57.7378 38.6184 56.9883C38.1881 56.2527 38.4518 55.3089 39.1875 54.8786L51.9864 47.5226C52.4584 47.2451 53.0414 47.2451 53.5273 47.5226L66.4234 54.8786C66.8953 55.1562 67.2007 55.6698 67.2007 56.2249V71.0202C67.2007 71.5754 66.9092 72.075 66.4372 72.3526L53.5412 79.8058C53.2913 79.9307 53.0276 80.0001 52.7638 80.0001Z" fill="#424952"/>
<path d="M29.3316 71.2839H25.07C22.7656 71.2839 20.8916 69.4102 20.8916 67.1062V62.8453C20.8916 61.9986 21.5857 61.3047 22.4325 61.3047C23.2931 61.3047 23.9733 61.9986 23.9733 62.8453V67.1062C23.9733 67.703 24.4592 68.2027 25.07 68.2027H29.3316C29.9286 68.2027 30.4283 67.7169 30.4283 67.1062V65.5656C30.4283 64.8994 29.9563 64.3859 29.3316 64.3859H26.7913C25.9306 64.3859 25.2504 63.6919 25.2504 62.8453C25.2504 61.9986 25.9445 61.3047 26.7913 61.3047H29.3316C31.6776 61.3047 33.51 63.1784 33.51 65.5656V67.1062C33.51 69.4102 31.636 71.2839 29.3316 71.2839Z" fill="#424952"/>
<path d="M29.3316 64.3719C28.471 64.3719 27.7908 63.6779 27.7908 62.8313C27.7908 61.9847 28.4849 61.2907 29.3316 61.2907C29.9286 61.2907 30.4283 60.8049 30.4283 60.1943C30.4283 59.528 29.9563 59.0145 29.3316 59.0145H25.07C24.4453 59.0145 23.9733 59.528 23.9733 60.1943V62.8313C23.9733 63.6779 23.2792 64.3719 22.4325 64.3719C21.5718 64.3719 20.8916 63.6779 20.8916 62.8313V60.1943C20.8916 57.807 22.724 55.9194 25.07 55.9194H29.3316C31.6776 55.9194 33.51 57.7931 33.51 60.1943C33.51 62.4982 31.636 64.3719 29.3316 64.3719Z" fill="#424952"/>
<path d="M52.7643 71.2838H50.6681C48.3638 71.2838 46.4897 69.4101 46.4897 67.1061V60.2082C46.4897 57.8209 48.3221 55.9333 50.6681 55.9333H52.7643C56.2624 55.9333 59.1221 58.7786 59.1221 62.29V65.0104C59.1221 68.5218 56.3318 71.2838 52.7643 71.2838ZM50.6681 59.0145C50.0435 59.0145 49.5715 59.5281 49.5715 60.1943V67.0923C49.5715 67.6891 50.0573 68.1887 50.6681 68.1887H52.7643C54.6244 68.1887 56.0403 66.8286 56.0403 65.0104V62.29C56.0403 60.458 54.6105 59.0145 52.7643 59.0145H50.6681V59.0145Z" fill="#424952"/>
<path d="M15.0756 49.1188C11.5635 49.1188 8.71777 46.2735 8.71777 42.7621V40.125C8.71777 36.6136 11.5635 33.7683 15.0756 33.7683C16.783 33.7683 18.4766 34.5039 19.5871 35.7253C20.1563 36.3637 20.1146 37.3353 19.4761 37.9043C18.8375 38.4873 17.8658 38.4317 17.2966 37.7933C16.7691 37.2104 15.9224 36.8495 15.0756 36.8495C13.2987 36.8495 11.7995 38.3485 11.7995 40.125V42.7621C11.7995 44.5386 13.2987 46.0237 15.0756 46.0237C15.9224 46.0237 16.7691 45.6628 17.2966 45.0799C17.8658 44.4553 18.8375 44.3998 19.4761 44.9689C20.1146 45.5379 20.1563 46.5095 19.5871 47.1479C18.4766 48.3832 16.783 49.1188 15.0756 49.1188Z" fill="#424952"/>
<path d="M27.1523 80.0001C26.6248 80.0001 26.0973 79.7225 25.8197 79.2368C25.3894 78.5012 25.6392 77.5574 26.375 77.1271L38.4104 70.132V57.1132L32.9132 53.921C32.1775 53.4907 31.9276 52.5469 32.358 51.8113C32.7883 51.0757 33.7322 50.8259 34.468 51.2562L40.7286 54.8925C41.2006 55.1701 41.4921 55.6837 41.4921 56.2249V71.0202C41.4921 71.5754 41.2006 72.0751 40.7286 72.3526L27.9297 79.8058C27.6798 79.9307 27.4161 80.0001 27.1523 80.0001Z" fill="#424952"/>
<path d="M20.614 76.1833C20.3502 76.1833 20.0865 76.1139 19.8366 75.9751L13.576 72.3387C13.104 72.0611 12.8125 71.5476 12.8125 71.0063V56.211C12.8125 55.3644 13.5066 54.6704 14.3534 54.6704C15.2001 54.6704 15.8942 55.3644 15.8942 56.211V70.118L21.3914 73.3103C22.1271 73.7405 22.377 74.6843 21.9605 75.4199C21.6551 75.9057 21.1415 76.1833 20.614 76.1833Z" fill="#424952"/>
<path d="M78.459 79.9998C78.1953 79.9998 77.9315 79.9304 77.6816 79.7916L64.8828 72.3385C64.147 71.9082 63.8972 70.9644 64.3275 70.2288C64.7578 69.4932 65.7018 69.2434 66.4375 69.6737L79.2364 77.1268C79.9721 77.557 80.222 78.5008 79.7917 79.2364C79.514 79.7222 78.9865 79.9998 78.459 79.9998Z" fill="#424952"/>
<path d="M8.07908 76.1832C7.55158 76.1832 7.02408 75.9056 6.74644 75.4198C6.31611 74.6842 6.56598 73.7404 7.30171 73.3102L13.5623 69.6738C14.2981 69.2575 15.242 69.4934 15.6724 70.229C16.1027 70.9646 15.8528 71.9084 15.1171 72.3386L8.85646 75.975C8.60659 76.1138 8.34283 76.1832 8.07908 76.1832Z" fill="#424952"/>
<path d="M52.7645 50.3957C51.9038 50.3957 51.2236 49.7017 51.2236 48.8551V41.5963C51.2236 40.7496 51.9177 40.0557 52.7645 40.0557C53.6113 40.0557 54.3054 40.7496 54.3054 41.5963V48.8551C54.3054 49.7017 53.6113 50.3957 52.7645 50.3957Z" fill="#424952"/>
<path d="M14.3397 28.1472C13.479 28.1472 12.7988 27.4532 12.7988 26.6066V19.3477C12.7988 18.5011 13.4929 17.8071 14.3397 17.8071C15.1865 17.8071 15.8806 18.5011 15.8806 19.3477V26.6066C15.8806 27.4532 15.2004 28.1472 14.3397 28.1472Z" fill="#424952"/>
</g>
<defs>
<clipPath id="clip0">
<rect width="80" height="80" fill="white"/>
</clipPath>
</defs>
</svg>
