<svg width="140" height="140" viewBox="0 0 140 140" fill="none" xmlns="http://www.w3.org/2000/svg">
<g clip-path="url(#clip0)">
<path fill-rule="evenodd" clip-rule="evenodd" d="M95.586 112.267C99.8874 112.267 103.301 108.69 103.301 104.396V67.2119C103.301 62.6206 100.194 58.6227 95.4942 56.1708C92.7848 54.8434 91.2847 52.1885 91.2847 49.2213V41.4597H78.3655V49.2213C78.3655 52.1885 76.7582 54.8434 74.156 56.1708C69.4567 58.6227 66.3493 62.605 66.3493 67.2119V104.396C66.3493 108.69 69.7475 112.267 73.957 112.267H95.586Z" fill="#B9BABA"/>
<path fill-rule="evenodd" clip-rule="evenodd" d="M95.586 112.266C99.8874 112.266 103.301 108.69 103.301 104.395V67.2117C103.301 64.8692 102.505 62.7141 101.097 60.7776H68.5535C67.1453 62.7141 66.3493 64.8692 66.3493 67.2117V104.395C66.3493 108.69 69.7475 112.266 73.957 112.266H95.586Z" fill="#EEEEEE"/>
<path d="M103.301 69.4606H66.3493V102.147H103.301V69.4606Z" fill="#C7D9B0"/>
<path fill-rule="evenodd" clip-rule="evenodd" d="M38.9035 91.8395C42.0108 94.0883 44.1079 96.8525 44.1079 100.007C44.1079 102.974 41.7047 105.317 38.9035 105.317C35.9951 105.317 33.699 102.974 33.699 100.007C33.699 96.8369 35.7961 94.0727 38.9035 91.8395Z" fill="#C7D9B0"/>
<path fill-rule="evenodd" clip-rule="evenodd" d="M60.3338 50.9702L68.7527 32.8859C69.962 30.434 68.9517 27.4668 66.4567 26.2487C64.0534 25.015 61.0532 26.1394 59.9511 28.5913L51.4403 46.5663L60.3338 50.9702Z" fill="#F3BBA4"/>
<path fill-rule="evenodd" clip-rule="evenodd" d="M54.7313 48.206L49.3279 45.5511L46.9247 50.7672L60.0429 57.2013L62.4461 51.9853L54.7313 48.206Z" fill="#F3BBA4"/>
<path fill-rule="evenodd" clip-rule="evenodd" d="M57.1343 55.7645L45.7151 80.08L38.9034 85.093L38.4136 76.5037L49.8174 52.1882L57.1343 55.7645Z" fill="#C7D9B0"/>
<path fill-rule="evenodd" clip-rule="evenodd" d="M48.9143 73.1306L45.7151 80.0801L38.9034 85.0931L38.4136 76.5039L40.0055 73.1306H48.9143Z" fill="#89A26A"/>
<path d="M38.9035 107.05C35.0308 107.05 32 103.958 32 100.007C32 96.5401 34.0512 93.2293 37.9239 90.4183C38.5209 89.9966 39.3015 89.9966 39.8985 90.4183C43.7712 93.2293 45.8224 96.5401 45.8224 100.007C45.8071 103.896 42.715 107.05 38.9035 107.05ZM38.9035 94.0102C36.5768 95.9467 35.3982 97.9456 35.3982 100.007C35.3982 102.006 36.9442 103.583 38.9035 103.583C40.8016 103.583 42.4089 101.944 42.4089 100.007C42.4089 97.9456 41.2302 95.9467 38.9035 94.0102Z" fill="#3A3A3A"/>
<path d="M60.3335 52.7037C60.0885 52.7037 59.8436 52.6568 59.5987 52.5319C58.7568 52.1259 58.3894 51.0795 58.7874 50.2206L67.2064 32.1363C67.5891 31.3554 67.6503 30.4965 67.3748 29.7C67.0992 28.8723 66.5023 28.2008 65.691 27.8104C64.9409 27.42 64.0837 27.3731 63.2724 27.6698C62.4612 27.9666 61.8029 28.56 61.4662 29.3096L55.1443 42.8182C54.7463 43.6928 53.7208 44.0363 52.8789 43.6459C52.037 43.2399 51.6696 42.1935 52.0829 41.3346L58.3894 27.8416C59.0936 26.2643 60.4712 24.9837 62.155 24.3903C63.8388 23.7812 65.6297 23.8906 67.2064 24.687C68.8136 25.4679 70.0382 26.8578 70.6046 28.5756C71.1709 30.2622 71.0485 32.0582 70.2678 33.6667L61.8795 51.7198C61.5886 52.3445 60.9764 52.7037 60.3335 52.7037Z" fill="#3A3A3A"/>
<path d="M60.0428 58.9348C59.7979 58.9348 59.5377 58.8723 59.3081 58.763L46.1898 52.3289C45.3479 51.9228 44.9958 50.8921 45.3938 50.0176L47.797 44.8015C47.996 44.3799 48.3328 44.0519 48.7614 43.9114C49.1747 43.7552 49.6645 43.7865 50.0625 43.9895L55.4659 46.6443C56.3078 47.066 56.6752 48.0967 56.2619 48.9556C55.8486 49.8146 54.823 50.1894 53.9812 49.7677L50.1237 47.8781L49.1747 49.9395L59.2315 54.8744L60.1959 52.7818L58.2672 51.7979C57.4253 51.3762 57.0885 50.3299 57.5018 49.471C57.9151 48.6121 58.9407 48.2685 59.7826 48.6901L63.1808 50.4236C64.0074 50.8453 64.3594 51.8604 63.9614 52.7193L61.5582 57.9353C61.3592 58.357 61.0072 58.6849 60.5786 58.8255C60.4255 58.9036 60.2265 58.9348 60.0428 58.9348Z" fill="#3A3A3A"/>
<path d="M38.9034 86.8265C38.6585 86.8265 38.4136 86.7796 38.1687 86.6547C37.6023 86.3736 37.2349 85.827 37.2043 85.1867L36.6992 76.613C36.6839 76.3163 36.7451 76.0196 36.8676 75.7541L48.2867 51.4387C48.7 50.5641 49.7103 50.2049 50.5522 50.6266C51.3941 51.0326 51.7615 52.079 51.3482 52.9379L40.128 76.8473L40.4188 81.8291L44.3681 78.94L53.384 59.5282C53.7973 58.6537 54.8076 58.2945 55.6495 58.7005C56.5067 59.1065 56.8588 60.1529 56.4608 61.0118L47.2612 80.8296C47.1387 81.0951 46.955 81.3293 46.7101 81.5011L39.8984 86.4985C39.6076 86.7172 39.2555 86.8265 38.9034 86.8265Z" fill="#3A3A3A"/>
<path d="M95.586 114H73.9569C68.829 114 64.6502 109.69 64.6502 104.396V67.2119C64.6502 62.1052 67.8341 57.5294 73.3906 54.6247C74.5845 54.0156 75.5642 53.0005 76.1306 51.7668C76.5285 50.8923 77.5388 50.5175 78.396 50.9235C79.2532 51.3295 79.6206 52.3602 79.2226 53.2348C78.3348 55.1869 76.8194 56.7798 74.9366 57.7324C70.574 59.9969 68.0637 63.4638 68.0637 67.2119V104.396C68.0637 107.769 70.7118 110.533 73.9722 110.533H95.6013C98.9077 110.533 101.617 107.784 101.617 104.396V67.2119C101.617 63.4638 99.1067 60.0125 94.7288 57.7168C91.5296 56.1395 89.6009 52.9693 89.6009 49.2213V47.5815C89.6009 46.6289 90.3662 45.848 91.3 45.848C92.249 45.848 92.9991 46.6289 92.9991 47.5815V49.2213C92.9991 51.595 94.2084 53.6096 96.2442 54.6091C101.831 57.5294 105.015 62.1052 105.015 67.2119V104.396C105 109.69 100.775 114 95.586 114ZM78.3654 49.3306C77.4164 49.3306 76.6663 48.5497 76.6663 47.5971V41.4597C76.6663 40.507 77.4317 39.7262 78.3654 39.7262H91.2847C92.2337 39.7262 92.9838 40.507 92.9838 41.4597V42.6778C92.9838 43.6304 92.2184 44.4113 91.2847 44.4113C90.5193 44.4113 89.8764 43.8959 89.6621 43.1931H80.0645V47.5815C80.0645 48.5497 79.2991 49.3306 78.3654 49.3306Z" fill="#3A3A3A"/>
<path d="M93.5808 49.3306H76.0541C75.105 49.3306 74.355 48.5498 74.355 47.5971C74.355 46.6445 75.1203 45.8636 76.0541 45.8636H93.5808C94.5299 45.8636 95.2799 46.6445 95.2799 47.5971C95.2799 48.5498 94.5299 49.3306 93.5808 49.3306Z" fill="#3A3A3A"/>
<path d="M98.4944 71.194H66.3493C65.4002 71.194 64.6502 70.4131 64.6502 69.4605C64.6502 68.5079 65.4155 67.7271 66.3493 67.7271H98.4944C99.4434 67.7271 100.193 68.5079 100.193 69.4605C100.193 70.4131 99.4281 71.194 98.4944 71.194Z" fill="#3A3A3A"/>
<path d="M103.301 103.88H71.1559C70.2068 103.88 69.4568 103.099 69.4568 102.147C69.4568 101.194 70.2221 100.413 71.1559 100.413H103.301C104.25 100.413 105 101.194 105 102.147C105 103.099 104.235 103.88 103.301 103.88Z" fill="#3A3A3A"/>
<path d="M84.7639 97.0401C83.8148 97.0401 83.0648 96.2592 83.0648 95.3066V76.3009C83.0648 75.3326 83.8302 74.5674 84.7639 74.5674C85.713 74.5674 86.463 75.3482 86.463 76.3009V95.3066C86.4783 96.2592 85.713 97.0401 84.7639 97.0401Z" fill="#3A3A3A"/>
<path d="M84.7638 91.2149C84.672 91.2149 84.5801 91.2149 84.4883 91.1993L76.3755 89.8719C75.4417 89.7157 74.8141 88.8255 74.9672 87.8885C75.1203 86.9359 76.0081 86.2956 76.9112 86.4518L80.8758 87.0921L76.8959 81.6262C76.3295 80.8609 76.4826 79.7678 77.248 79.1899C77.998 78.6121 79.0695 78.7683 79.6359 79.5491L86.1414 88.4351C86.5547 88.9973 86.6007 89.7626 86.2333 90.3716C85.9118 90.9026 85.3608 91.2149 84.7638 91.2149Z" fill="#3A3A3A"/>
<path d="M84.764 91.2149C84.167 91.2149 83.616 90.9025 83.3098 90.3716C82.9577 89.7625 82.9884 88.9973 83.417 88.4351L90.0297 79.5491C90.596 78.7838 91.6675 78.6277 92.4176 79.2211C93.1676 79.7989 93.3207 80.8921 92.739 81.6573L88.6979 87.092L92.6166 86.4517C93.535 86.3112 94.4228 86.9515 94.5606 87.8885C94.7137 88.8411 94.0708 89.7313 93.1523 89.8718L85.0395 91.1993C84.9477 91.2149 84.8558 91.2149 84.764 91.2149Z" fill="#3A3A3A"/>
<path d="M79.8656 95.1035C79.437 95.1035 78.9931 94.9317 78.6563 94.6037C77.9981 93.9322 77.9981 92.8234 78.6563 92.1519C79.3145 91.4804 80.4473 91.4179 81.1055 92.1051C81.7637 92.7766 81.8249 93.8229 81.1514 94.51L81.0443 94.6194C80.7381 94.9317 80.2942 95.1035 79.8656 95.1035Z" fill="#3A3A3A"/>
<path d="M89.6775 95.1035C89.2489 95.1035 88.805 94.9317 88.4682 94.6037C87.81 93.9322 87.7488 92.7766 88.4223 92.105C89.0958 91.4335 90.1061 91.371 90.7796 92.0582L90.8867 92.1675C91.545 92.839 91.545 93.9478 90.8867 94.6194C90.55 94.9317 90.1214 95.1035 89.6775 95.1035Z" fill="#3A3A3A"/>
</g>
<defs>
<clipPath id="clip0">
<rect width="73" height="90" fill="white" transform="translate(33 24)"/>
</clipPath>
</defs>
</svg>
