<svg width="140" height="140" viewBox="0 0 140 140" fill="none" xmlns="http://www.w3.org/2000/svg">
<g clip-path="url(#clip0)">
<path fill-rule="evenodd" clip-rule="evenodd" d="M51.8919 93.0322C51.8919 100.077 52.1018 111.069 56.8504 113.841C59.4993 115.228 65.2008 116.19 71.4354 116.19C77.783 116.19 83.4846 115.228 86.1173 113.841C90.8659 111.069 91.0758 100.077 91.0758 93.0322H51.8919Z" fill="#F3BBA4"/>
<path fill-rule="evenodd" clip-rule="evenodd" d="M71.4516 97.9411C82.2248 97.9411 91.1082 95.7069 91.1082 93.0324C91.1082 90.26 82.2248 88.0258 71.4516 88.0258C60.6784 88.0258 51.9081 90.26 51.9081 93.0324C51.8919 95.6906 60.6623 97.9411 71.4516 97.9411Z" fill="#F3BBA4"/>
<path fill-rule="evenodd" clip-rule="evenodd" d="M71.4516 25.8103C80.965 42.1347 82.1279 57.073 75.0373 70.413C81.4818 58.8832 91.2051 52.4904 104.094 51.202C99.1356 62.2916 90.6721 69.2388 78.946 72.1091C86.2304 70.6087 92.998 71.9949 99.1356 76.0556C92.0612 80.0022 84.5506 79.676 76.4102 75.0934C78.623 76.9036 80.1089 79.252 80.8519 82.0244C76.6202 81.6982 73.2445 79.676 71.4516 76.0556C69.6588 79.676 66.2669 81.7145 62.1483 82.0244C62.8912 79.252 64.361 76.9036 66.59 75.0934C58.4495 79.676 50.8421 80.0022 43.8646 76.0556C49.986 71.9949 56.7536 70.6087 63.9411 72.1091C52.215 69.2388 43.8646 62.3079 38.7929 51.202C51.795 52.4904 61.5183 58.8832 67.9629 70.413C60.8884 57.073 62.0513 42.1347 71.4516 25.8103Z" fill="#C7D9B0"/>
<path d="M71.4515 93.7824C70.4663 93.7824 69.6587 92.967 69.6587 91.9722V76.1859C69.6587 75.1911 70.4663 74.3757 71.4515 74.3757C72.4368 74.3757 73.2444 75.1911 73.2444 76.1859V91.9722C73.2444 92.967 72.4368 93.7824 71.4515 93.7824Z" fill="#3A3A3A"/>
<path d="M53.9917 80.7195C50.1799 80.7195 46.5135 79.7248 42.9924 77.7515C42.4433 77.4416 42.1041 76.8708 42.0718 76.2511C42.0395 75.6314 42.3463 75.028 42.847 74.6693C44.9791 73.1852 47.2726 72.0437 49.6308 71.2446C50.5837 70.9184 51.5851 71.4403 51.9081 72.3861C52.215 73.332 51.7143 74.3594 50.7775 74.6856C49.7438 75.028 48.7263 75.452 47.741 75.9576C52.7803 77.7841 58.2073 77.3438 63.925 74.6203C64.8295 74.1963 65.8955 74.5877 66.3154 75.4847C66.7354 76.3979 66.3477 77.4742 65.4594 77.8983C61.5184 79.79 57.6904 80.7195 53.9917 80.7195Z" fill="#3A3A3A"/>
<path d="M62.5682 73.6094C62.4067 73.6094 62.2614 73.5931 62.0998 73.5441C50.5998 70.4293 42.2171 63.1559 37.1616 51.9522C36.8871 51.3651 36.9678 50.6639 37.3393 50.142C37.7108 49.6201 38.3569 49.3266 38.9868 49.4081C47.1595 50.3051 54.1694 53.1264 59.8063 57.8068C60.5654 58.4428 60.6785 59.5844 60.0486 60.3672C59.4187 61.1337 58.288 61.2478 57.5128 60.6118C53.2003 57.024 47.9833 54.643 41.9425 53.5015C46.6265 62.0469 53.5556 67.4612 63.0366 70.0379C63.9896 70.2988 64.571 71.2936 64.3126 72.2558C64.0865 73.0712 63.3597 73.6094 62.5682 73.6094Z" fill="#3A3A3A"/>
<path d="M67.9628 72.337C67.3167 72.337 66.7029 71.9946 66.3799 71.3748C59.0147 57.3825 60.1938 41.743 69.901 24.913C70.4017 24.0487 71.5 23.7552 72.356 24.2607C73.2121 24.7663 73.5028 25.8752 73.0021 26.7395C63.9733 42.4279 62.8104 56.8769 69.5456 69.6788C70.014 70.5594 69.6748 71.6684 68.8027 72.125C68.5281 72.2555 68.2535 72.337 67.9628 72.337Z" fill="#3A3A3A"/>
<path d="M62.6814 84.8129C61.8092 84.8129 61.0501 84.1769 60.9047 83.28C60.7594 82.2852 61.4216 81.3556 62.4068 81.2089C66.041 80.6381 68.6575 78.6322 69.7558 75.55C70.095 74.6041 71.1287 74.1148 72.0494 74.4573C72.9862 74.7998 73.4707 75.8435 73.1315 76.7731C71.581 81.0947 67.8661 84.0139 62.9398 84.7803C62.8591 84.8129 62.7622 84.8129 62.6814 84.8129Z" fill="#3A3A3A"/>
<path d="M89.0086 80.7195C85.3099 80.7195 81.482 79.79 77.5571 77.9146C76.6526 77.4906 76.265 76.3979 76.7011 75.501C77.121 74.5877 78.187 74.2126 79.0915 74.6366C84.89 77.3927 90.22 77.8493 95.2916 75.9739C94.2902 75.4684 93.2727 75.0443 92.239 74.6856C91.3022 74.3757 90.7853 73.3483 91.1084 72.3861C91.4152 71.4403 92.4328 70.9184 93.3857 71.2446C95.76 72.0437 98.0374 73.1852 100.169 74.6693C100.686 75.028 100.977 75.6151 100.945 76.2511C100.912 76.8708 100.573 77.4416 100.024 77.7515C96.4869 79.7248 92.8204 80.7195 89.0086 80.7195Z" fill="#3A3A3A"/>
<path d="M80.432 73.6093C79.6406 73.6093 78.9137 73.0712 78.6876 72.2721C78.4292 71.3099 78.9945 70.3151 79.9636 70.0542C89.4446 67.4775 96.3737 62.0469 101.058 53.5177C95.017 54.6593 89.8 57.0403 85.4875 60.6281C84.7283 61.2641 83.5977 61.1662 82.9517 60.3834C82.3217 59.617 82.4348 58.4591 83.1939 57.8231C88.8309 53.1426 95.8407 50.305 104.013 49.4244C104.627 49.3428 105.289 49.6364 105.661 50.1582C106.032 50.6801 106.113 51.3814 105.839 51.9684C100.783 63.1721 92.4004 70.4293 80.9004 73.5604C80.7389 73.593 80.5774 73.6093 80.432 73.6093Z" fill="#3A3A3A"/>
<path d="M75.0374 72.337C74.7467 72.337 74.4721 72.2718 74.1975 72.125C73.3253 71.6521 72.9861 70.5594 73.4545 69.6788C80.2059 56.8443 79.0107 42.3953 69.9011 26.7395C69.4004 25.8752 69.6912 24.7663 70.5472 24.2607C71.4033 23.7552 72.5016 24.0487 73.0023 24.913C82.7902 41.7267 84.0177 57.3662 76.6364 71.3912C76.2972 71.9782 75.6834 72.337 75.0374 72.337Z" fill="#3A3A3A"/>
<path d="M80.2221 84.8129C80.1252 84.8129 80.0444 84.8129 79.9475 84.7966C75.0697 84.0464 71.4679 81.2088 69.7719 76.8382C69.4166 75.9087 69.8689 74.8486 70.7895 74.4899C71.7102 74.1148 72.76 74.5877 73.1154 75.5173C74.3429 78.6811 76.8787 80.6543 80.4805 81.2088C81.4658 81.3556 82.128 82.2851 81.9826 83.2799C81.8534 84.1769 81.0943 84.8129 80.2221 84.8129Z" fill="#3A3A3A"/>
<path d="M71.4518 99.7513C63.5213 99.7513 50.0993 98.3325 50.0993 93.0324C50.0993 86.4929 69.2552 86.3135 71.4518 86.3135C72.437 86.3135 73.2446 87.1289 73.2446 88.1237C73.2446 89.1185 72.437 89.9339 71.4518 89.9339C61.3731 89.9339 55.0255 91.8093 53.8142 93.0161C55.074 94.2229 61.4701 96.1309 71.4518 96.1309C81.4981 96.1309 87.9265 94.2229 89.1863 93.0161C88.3465 92.2007 84.6639 90.6351 77.0241 90.048C76.0389 89.9665 75.2959 89.1022 75.3767 88.1074C75.4574 87.1126 76.3135 86.3624 77.2987 86.4439C83.1295 86.9006 92.9012 88.352 92.9012 93.0487C92.9012 98.3325 79.4146 99.7513 71.4518 99.7513Z" fill="#3A3A3A"/>
<path d="M71.4518 118C65.0396 118 58.9988 117.005 56.0431 115.456C50.8099 112.39 50.0993 102.866 50.0993 93.0322C50.0993 92.0374 50.9068 91.222 51.8921 91.222C52.8774 91.222 53.6849 92.0374 53.6849 93.0322C53.6849 97.6474 53.6849 109.895 57.7552 112.276C59.7095 113.303 64.765 114.38 71.4356 114.38C78.187 114.38 83.2587 113.303 85.2938 112.243C89.2833 109.911 89.2833 97.6637 89.2833 93.0486C89.2833 92.0538 90.0908 91.2384 91.0761 91.2384C92.0613 91.2384 92.8689 92.0538 92.8689 93.0486C92.8689 102.899 92.1583 112.423 87.0059 115.423C83.9694 117.021 78.0255 118 71.4518 118Z" fill="#3A3A3A"/>
</g>
<defs>
<clipPath id="clip0">
<rect width="69" height="94" fill="white" transform="translate(37 24)"/>
</clipPath>
</defs>
</svg>
