<svg width="140" height="140" viewBox="0 0 140 140" fill="none" xmlns="http://www.w3.org/2000/svg">
<path opacity="0.5" fill-rule="evenodd" clip-rule="evenodd" d="M29.2659 65.7905L39.3804 71.5706V83.0405L29.2659 88.8386L19.0411 83.0405V71.5706L29.2659 65.7905Z" fill="#E67849"/>
<path fill-rule="evenodd" clip-rule="evenodd" d="M39.3807 83.0404L49.6055 88.8386V100.417L39.3807 106.197L29.2662 100.417V88.8386L39.3807 83.0404Z" fill="#E67748" fill-opacity="0.5"/>
<path fill-rule="evenodd" clip-rule="evenodd" d="M59.8303 83.0404L69.9448 88.8386V100.417L59.8303 106.197L49.6055 100.417V88.8386L59.8303 83.0404Z" fill="#E67748" fill-opacity="0.5"/>
<path fill-rule="evenodd" clip-rule="evenodd" d="M51.1687 72.5279C49.2378 72.5279 47.5643 70.8661 47.5643 68.9876V39.4369C47.5643 37.5403 49.2562 36.005 51.1687 36.005H117.336C119.267 36.005 120.94 37.5403 120.94 39.4369V68.9876C120.94 70.8842 119.249 72.5279 117.336 72.5279C95.3231 72.5279 73.1816 72.5279 51.1687 72.5279Z" fill="#8EB360" fill-opacity="0.5"/>
<path d="M29.2661 90.8434C28.9167 90.8434 28.5673 90.7531 28.2363 90.5725L18.0298 84.7743C17.4046 84.4131 17 83.7447 17 83.0403V71.5704C17 70.8479 17.3862 70.1796 18.0298 69.8364L28.2547 64.0383C28.8983 63.677 29.6707 63.677 30.3144 64.0383L40.4105 69.8364C41.0357 70.1977 41.4219 70.8479 41.4219 71.5704V83.0403C41.4219 83.7628 41.0357 84.4131 40.4105 84.7743L30.3144 90.5725C29.9833 90.7531 29.6339 90.8434 29.2661 90.8434ZM21.0826 81.8843L29.2661 86.5083L37.3393 81.8843V72.7265L29.2661 68.1024L21.0826 72.7265V81.8843Z" fill="#3A3A3A"/>
<path d="M39.3805 108.202C38.6816 108.202 37.9828 107.841 37.615 107.19C37.0449 106.233 37.3943 105.005 38.369 104.445L47.564 99.2428V89.9946L43.5366 87.7368C42.5619 87.1768 42.2125 85.9666 42.7826 84.9912C43.3343 84.0339 44.5848 83.6907 45.5779 84.2507L50.6351 87.0865C51.2788 87.4478 51.665 88.1161 51.665 88.8386V100.417C51.665 101.139 51.2788 101.808 50.6351 102.151L40.4103 107.949C40.0793 108.13 39.7299 108.202 39.3805 108.202ZM29.266 102.422C28.1442 102.422 27.2247 101.519 27.2247 100.417V88.8386C27.2247 87.7368 28.1442 86.8336 29.266 86.8336C30.3878 86.8336 31.3073 87.7368 31.3073 88.8386V100.417C31.3256 101.519 30.4061 102.422 29.266 102.422Z" fill="#3A3A3A"/>
<path d="M59.8306 108.202C59.4812 108.202 59.1318 108.112 58.8191 107.931L53.7619 105.095C52.7872 104.535 52.4378 103.325 53.0079 102.35C53.5596 101.392 54.8101 101.049 55.8032 101.609L59.8306 103.867L67.9038 99.2428V89.9766L59.8306 85.3525L50.6356 90.5546C49.6609 91.1145 48.4104 90.7894 47.8403 89.814C47.2702 88.8567 47.6196 87.6284 48.5943 87.0685L58.8191 81.2703C59.4628 80.9091 60.2352 80.9091 60.8788 81.2703L70.9749 87.0685C71.6002 87.4297 71.9864 88.08 71.9864 88.8025V100.381C71.9864 101.103 71.6002 101.754 70.9749 102.115L60.8788 107.913C60.5478 108.112 60.18 108.202 59.8306 108.202Z" fill="#3A3A3A"/>
<path d="M80.1695 108.202C79.8201 108.202 79.4707 108.112 79.1396 107.931L68.9148 102.133C67.9401 101.573 67.6091 100.345 68.1608 99.3873C68.7309 98.43 69.9814 98.0868 70.9561 98.6468L80.1695 103.867L89.3645 98.6468C90.3391 98.0868 91.5897 98.43 92.1598 99.3873C92.7299 100.345 92.3804 101.573 91.4058 102.133L81.1809 107.949C80.8683 108.13 80.5189 108.202 80.1695 108.202Z" fill="#3A3A3A"/>
<path d="M100.491 108.202C100.141 108.202 99.7736 108.112 99.461 107.931L89.3464 102.133C88.3718 101.573 88.0407 100.345 88.6108 99.3873C89.1809 98.4299 90.4314 98.0868 91.4061 98.6648L100.491 103.867L109.686 98.6648C110.66 98.1048 111.911 98.448 112.481 99.4053C113.051 100.363 112.702 101.591 111.727 102.151L101.502 107.949C101.208 108.13 100.84 108.202 100.491 108.202Z" fill="#3A3A3A"/>
<path d="M120.94 108.202C120.591 108.202 120.242 108.112 119.929 107.931L109.704 102.133C108.729 101.573 108.398 100.345 108.95 99.3873C109.52 98.43 110.771 98.0868 111.745 98.6468L121.97 104.445C122.945 105.005 123.276 106.233 122.724 107.19C122.338 107.859 121.658 108.202 120.94 108.202Z" fill="#3A3A3A"/>
<path d="M29.266 67.7954C28.1442 67.7954 27.2247 66.8923 27.2247 65.7904V55.1515C27.2247 54.0496 28.1442 53.1465 29.266 53.1465C30.3878 53.1465 31.3073 54.0496 31.3073 55.1515V65.7904C31.3256 66.8923 30.4061 67.7954 29.266 67.7954Z" fill="#3A3A3A"/>
<path d="M59.8304 85.0454C58.7086 85.0454 57.7891 84.1423 57.7891 83.0405V72.5279C57.7891 71.4261 58.7086 70.5229 59.8304 70.5229C60.9521 70.5229 61.8716 71.4261 61.8716 72.5279V83.0405C61.8716 84.1423 60.9521 85.0454 59.8304 85.0454Z" fill="#3A3A3A"/>
<path d="M29.266 114C28.1442 114 27.2247 113.097 27.2247 111.995V101.573L18.0297 96.3708C17.055 95.8109 16.724 94.5826 17.2757 93.6253C17.8458 92.668 19.0963 92.3428 20.071 92.8847L30.2958 98.6648C30.9211 99.0261 31.3257 99.6944 31.3257 100.399V111.977C31.3257 113.097 30.4062 114 29.266 114Z" fill="#3A3A3A"/>
<path d="M64.8875 64.2551C60.3084 64.2551 56.5937 60.5523 56.5937 55.9824V52.5505C56.5937 47.9806 60.3268 44.2777 64.8875 44.2777C67.0759 44.2777 69.1356 45.0725 70.8275 46.5717C71.6734 47.3123 71.7286 48.5766 70.9746 49.4075C70.2206 50.2204 68.9333 50.2926 68.0874 49.552C67.4437 48.974 66.3587 48.2876 64.8875 48.2876C62.5704 48.2876 60.6762 50.2023 60.6762 52.5505V55.9824C60.6762 58.3305 62.5704 60.2452 64.8875 60.2452C66.0829 60.2452 67.1311 59.8117 68.0138 58.9447C68.8046 58.168 70.1103 58.168 70.901 58.9447C71.6918 59.7214 71.6918 61.0038 70.901 61.7805C69.246 63.3881 67.1679 64.2551 64.8875 64.2551Z" fill="#3A3A3A"/>
<path d="M86.6615 64.2552H80.9974C77.8711 64.2552 75.3333 61.7625 75.3333 58.6919V53.255C75.3333 52.1531 76.2527 51.25 77.3745 51.25C78.4963 51.25 79.4158 52.1531 79.4158 53.255V58.6919C79.4158 59.6492 80.225 60.2272 80.979 60.2272H86.6247C87.4522 60.2272 88.0775 59.5589 88.0775 58.6919V56.6869C88.0775 55.9102 87.4339 55.278 86.6247 55.278H83.2593C82.1375 55.278 81.218 54.3749 81.218 53.273C81.218 52.1712 82.1375 51.2681 83.2593 51.2681H86.6247C89.6774 51.2681 92.1601 53.7065 92.1601 56.705V58.7099C92.1969 61.8167 89.7694 64.2552 86.6615 64.2552Z" fill="#3A3A3A"/>
<path d="M86.6613 55.2779C85.5395 55.2779 84.62 54.3748 84.62 53.273C84.62 52.1711 85.5395 51.268 86.6613 51.268C87.4336 51.268 88.1141 50.5455 88.1141 49.7327C88.1141 48.956 87.4704 48.3057 86.6613 48.3057H80.9971C80.1696 48.3057 79.434 48.974 79.434 49.7327V53.273C79.434 54.3748 78.5145 55.2779 77.3927 55.2779C76.2709 55.2779 75.3514 54.3748 75.3514 53.273V49.7146C75.3514 46.7704 77.9444 44.2777 81.0155 44.2777H86.6613C89.714 44.2777 92.1967 46.7162 92.1967 49.7146C92.1967 52.7311 89.6588 55.2779 86.6613 55.2779Z" fill="#3A3A3A"/>
<path d="M103.617 64.2551H100.73C97.6218 64.2551 95.1943 61.8166 95.1943 58.6918V49.7146C95.1943 46.7162 97.677 44.2777 100.73 44.2777H103.617C108.196 44.2777 111.911 47.9806 111.911 52.5505V55.9824C111.929 60.5342 108.196 64.2551 103.617 64.2551ZM100.73 48.3057C99.939 48.3057 99.2769 48.9379 99.2769 49.7327V58.7099C99.2769 59.5769 99.9022 60.2452 100.73 60.2452H103.617C105.934 60.2452 107.828 58.3305 107.828 55.9824V52.5505C107.828 50.2023 105.934 48.2876 103.617 48.2876H100.73V48.3057Z" fill="#3A3A3A"/>
<path d="M117.336 74.5329H66.5611C65.4393 74.5329 64.5198 73.6297 64.5198 72.5279C64.5198 71.4261 65.4393 70.5229 66.5611 70.5229H117.336C118.127 70.5229 118.899 69.7643 118.899 68.9876V39.4369C118.899 38.6963 118.145 38.028 117.336 38.028H51.1686C50.3411 38.028 49.6055 38.6963 49.6055 39.4369V68.9876C49.6055 69.7643 50.3779 70.5229 51.1686 70.5229H52.9709C54.0926 70.5229 55.0121 71.4261 55.0121 72.5279C55.0121 73.6297 54.0926 74.5329 52.9709 74.5329H51.1686C48.0975 74.5329 45.5045 71.986 45.5045 68.9876V39.4369C45.5045 36.4927 48.0975 34 51.1686 34H117.336C120.407 34 123 36.4927 123 39.4369V68.9876C123 71.986 120.407 74.5329 117.336 74.5329Z" fill="#3A3A3A"/>
</svg>
