<svg width="140" height="140" viewBox="0 0 140 140" fill="none" xmlns="http://www.w3.org/2000/svg">
<path d="M89.9109 50.3502H36.0482V111.401H89.9109V50.3502Z" fill="#EEEEEE"/>
<path d="M72.1023 61.8433H36.0482V100.384H72.1023V61.8433Z" fill="#F3BBA4"/>
<path d="M94.0773 38.2958H31.8647V50.3505H94.0773V38.2958Z" fill="#B9BABA"/>
<path d="M88.5836 31.5986H37.3586V38.2813H88.5836V31.5986Z" fill="#F6F7F7"/>
<path fill-rule="evenodd" clip-rule="evenodd" d="M89.8939 59.9565C97.807 71.5503 99.4534 82.0928 94.9509 91.7999L95.6061 91.9007C101.537 84.8292 109.668 80.883 120.219 79.9324C116.808 86.2406 111.751 90.8637 105.166 93.7874C107.686 94.6371 110.223 95.7605 112.86 97.0855C106.812 99.6347 99.235 100.384 89.8939 99.3466C80.6536 100.384 72.9757 99.6347 67.0283 97.0855C69.5484 95.7605 72.1861 94.6371 74.723 93.7874C68.1204 90.8637 63.0802 86.255 59.6697 79.9324C70.2204 80.8686 78.3519 84.8292 84.2825 91.9007L84.8369 91.7999C80.452 82.1072 82.0984 71.5503 89.8939 59.9565Z" fill="#C7D9B0"/>
<path d="M94.0774 51.9491H53.7392C52.7144 51.9491 51.8744 51.229 51.8744 50.3505C51.8744 49.4719 52.7144 48.7518 53.7392 48.7518H92.2126V39.8944H81.9978C80.973 39.8944 80.1329 39.1743 80.1329 38.2958C80.1329 37.4029 80.973 36.6971 81.9978 36.6971H94.0942C95.1191 36.6971 95.9591 37.4173 95.9591 38.2958V50.3505C95.9423 51.229 95.1023 51.9491 94.0774 51.9491ZM43.9613 51.9491H31.8649C30.84 51.9491 30 51.229 30 50.3505V38.2958C30 37.4029 30.84 36.6971 31.8649 36.6971H72.2031C73.2279 36.6971 74.0679 37.4173 74.0679 38.2958C74.0679 39.1887 73.2279 39.8944 72.2031 39.8944H33.7297V48.7518H43.9445C44.9693 48.7518 45.8094 49.4719 45.8094 50.3505C45.8094 51.229 44.9861 51.9491 43.9613 51.9491Z" fill="#3A3A3A"/>
<path d="M88.5837 39.8943C87.5588 39.8943 86.7188 39.1742 86.7188 38.2957V33.1973H39.2236V38.2813C39.2236 39.1742 38.3835 39.8799 37.3587 39.8799C36.3339 39.8799 35.4938 39.1598 35.4938 38.2813V31.5986C35.4938 30.7201 36.3339 30 37.3587 30H88.5837C89.6085 30 90.4485 30.7201 90.4485 31.5986V38.2957C90.4485 39.1742 89.6085 39.8943 88.5837 39.8943Z" fill="#3A3A3A"/>
<path d="M82.6532 113H36.0484C35.0235 113 34.1835 112.28 34.1835 111.401V50.3505C34.1835 49.4575 35.0235 48.7518 36.0484 48.7518C37.0732 48.7518 37.9132 49.4719 37.9132 50.3505V109.803H82.6532C83.678 109.803 84.5181 110.523 84.5181 111.401C84.5181 112.28 83.678 113 82.6532 113ZM89.8942 55.348C88.8694 55.348 88.0294 54.6279 88.0294 53.7494V50.3505C88.0294 49.4575 88.8694 48.7518 89.8942 48.7518C90.9191 48.7518 91.7591 49.4719 91.7591 50.3505V53.7494C91.7759 54.6279 90.9359 55.348 89.8942 55.348Z" fill="#3A3A3A"/>
<path d="M61.3164 101.982H36.0484C35.0235 101.982 34.1835 101.262 34.1835 100.384C34.1835 99.4908 35.0235 98.7851 36.0484 98.7851H61.3332C62.3581 98.7851 63.1981 99.5052 63.1981 100.384C63.1981 101.262 62.3581 101.982 61.3164 101.982ZM72.1024 78.3339C71.0776 78.3339 70.2376 77.6138 70.2376 76.7353V63.4564H36.0484C35.0235 63.4564 34.1835 62.7363 34.1835 61.8578C34.1835 60.9649 35.0235 60.2592 36.0484 60.2592H72.1024C73.1273 60.2592 73.9673 60.9793 73.9673 61.8578V76.7497C73.9673 77.6138 73.1273 78.3339 72.1024 78.3339Z" fill="#3A3A3A"/>
<path d="M89.8942 113C88.8694 113 88.0294 112.28 88.0294 111.401V99.3467C88.0294 98.4538 88.8694 97.748 89.8942 97.748C90.9191 97.748 91.7591 98.4682 91.7591 99.3467V111.401C91.7759 112.294 90.9359 113 89.8942 113Z" fill="#3A3A3A"/>
<path d="M99.5714 97.2727C98.7817 97.2727 98.0425 96.8407 97.7905 96.1494C97.4881 95.2996 98.0257 94.4067 99.0169 94.133C106.863 92.0159 112.709 87.9977 116.809 81.8912C111.483 82.7985 106.88 84.6132 103.083 87.292C102.276 87.8537 101.1 87.7529 100.445 87.076C99.7898 86.399 99.9074 85.3909 100.697 84.8292C105.888 81.171 112.357 78.9531 119.934 78.2474C120.606 78.1754 121.261 78.4346 121.647 78.9099C122.034 79.3708 122.101 79.9901 121.832 80.5085C117.33 88.9194 110.038 94.5363 100.143 97.2007C99.941 97.2439 99.7562 97.2727 99.5714 97.2727ZM93.1871 96.6102C92.8847 96.6102 92.5823 96.5526 92.3135 96.423C91.4063 96.0053 91.0703 95.0404 91.5407 94.2483C97.8577 84.1235 96.7993 73.1778 88.2814 60.7631C87.7606 59.9998 88.063 59.0204 88.9534 58.574C89.8438 58.1131 90.9863 58.3723 91.5071 59.1356C100.613 72.4001 101.739 84.7284 94.8336 95.7605C94.5144 96.3078 93.8592 96.6102 93.1871 96.6102Z" fill="#3A3A3A"/>
<path d="M97.6223 101.392C95.119 101.392 92.4645 101.233 89.6588 100.931C88.634 100.816 87.9116 100.009 88.046 99.1451C88.1804 98.2665 89.1212 97.6328 90.146 97.7624C99.1344 98.7562 106.308 98.0649 112.054 95.6453C112.978 95.2564 114.104 95.5877 114.557 96.3798C115.011 97.172 114.625 98.1369 113.7 98.5258C109.114 100.441 103.822 101.392 97.6223 101.392Z" fill="#3A3A3A"/>
<path d="M98.58 106.317C98.5128 106.317 98.4624 106.317 98.3952 106.317C97.1016 106.202 96.0263 106.087 94.9511 105.756C93.9935 105.439 93.4894 104.517 93.8591 103.696C94.2287 102.875 95.2871 102.458 96.2615 102.76C96.9 102.962 97.7064 103.048 98.7648 103.135C99.7897 103.221 100.546 104.013 100.445 104.892C100.344 105.698 99.5376 106.317 98.58 106.317Z" fill="#3A3A3A"/>
<path d="M80.3345 97.2727C80.1497 97.2727 79.9649 97.2439 79.7801 97.2007C69.8846 94.5363 62.5931 88.9194 58.0906 80.5085C57.805 79.9756 57.8722 79.3707 58.2754 78.9099C58.6618 78.449 59.3338 78.1898 59.989 78.2474C67.4317 78.9387 73.8831 81.1422 79.2089 84.8148C80.0153 85.3621 80.1329 86.3702 79.4945 87.0615C78.8561 87.7528 77.68 87.868 76.8736 87.3064C72.9087 84.5699 68.3893 82.7841 63.1308 81.8911C67.2133 88.0121 73.0599 92.0303 80.9226 94.1474C81.9138 94.4067 82.4514 95.314 82.149 96.1637C81.8634 96.8406 81.141 97.2727 80.3345 97.2727ZM86.7188 96.6102C86.0467 96.6102 85.4083 96.3077 85.0723 95.7605C78.2009 84.7572 79.2761 72.4433 88.298 59.15C88.8188 58.3867 89.9613 58.1275 90.8517 58.5739C91.7421 59.0204 92.0445 59.9997 91.5237 60.7631C83.0898 73.2066 82.0482 84.1523 88.3652 94.2482C88.8524 95.0259 88.5164 95.9909 87.5924 96.423C87.3068 96.5526 87.0044 96.6102 86.7188 96.6102Z" fill="#3A3A3A"/>
<path d="M82.2835 101.392C76.0673 101.392 70.6743 100.427 66.2054 98.5114C65.2813 98.1225 64.9117 97.1576 65.3653 96.3655C65.819 95.5733 66.9446 95.2421 67.8686 95.6453C73.4464 98.0361 80.7715 98.7418 89.659 97.7481C90.6838 97.6329 91.6247 98.2522 91.7591 99.1307C91.8935 100.009 91.1711 100.816 90.1462 100.931C87.3909 101.233 84.77 101.392 82.2835 101.392Z" fill="#3A3A3A"/>
<path d="M81.3259 106.317C80.3851 106.317 79.5618 105.698 79.461 104.877C79.3602 103.999 80.0995 103.207 81.1411 103.12C82.1995 103.034 82.9892 102.947 83.6444 102.746C84.6188 102.443 85.6772 102.861 86.0469 103.682C86.4165 104.503 85.9125 105.424 84.9548 105.741C83.8964 106.087 82.8212 106.202 81.5107 106.303C81.4435 106.317 81.3931 106.317 81.3259 106.317Z" fill="#3A3A3A"/>
<path d="M63.198 74.1861H44.835C43.8101 74.1861 42.9701 73.466 42.9701 72.5874C42.9701 71.7089 43.8101 70.9888 44.835 70.9888H63.198C64.2228 70.9888 65.0629 71.7089 65.0629 72.5874C65.0629 73.466 64.2228 74.1861 63.198 74.1861Z" fill="#3A3A3A"/>
<path d="M52.9664 82.7554H44.835C43.8101 82.7554 42.9701 82.0353 42.9701 81.1568C42.9701 80.2782 43.8101 79.5581 44.835 79.5581H52.9664C53.9913 79.5581 54.8313 80.2782 54.8313 81.1568C54.8313 82.0353 54.0081 82.7554 52.9664 82.7554Z" fill="#3A3A3A"/>
<path d="M56.8138 91.3392H44.835C43.8101 91.3392 42.9701 90.6191 42.9701 89.7406C42.9701 88.8477 43.8101 88.142 44.835 88.142H56.8138C57.8386 88.142 58.6786 88.8621 58.6786 89.7406C58.6786 90.6191 57.8554 91.3392 56.8138 91.3392Z" fill="#3A3A3A"/>
</svg>
