<svg width="70" height="70" viewBox="0 0 70 70" fill="none" xmlns="http://www.w3.org/2000/svg">
<g clip-path="url(#clip0)">
<path fill-rule="evenodd" clip-rule="evenodd" d="M34.8079 68.7578C53.4837 68.7578 68.6464 53.595 68.6464 34.9192C68.6464 16.3287 53.4837 1.16602 34.8079 1.16602C16.2174 1.16602 1.05469 16.3287 1.05469 34.9192C1.05469 53.595 16.2174 68.7578 34.8079 68.7578Z" fill="#F3BBA4"/>
<path fill-rule="evenodd" clip-rule="evenodd" d="M34.8079 11.4615C41.9928 23.6722 42.8711 34.7606 37.5159 44.8244C42.3831 36.2001 49.7266 31.4182 59.461 30.4546C55.7161 38.7495 49.3241 43.9461 40.468 46.0198C45.9695 44.9829 51.0806 45.9344 55.7161 49.0572C50.3731 52.0093 44.7008 51.7653 38.5528 48.3375C40.224 49.6916 41.3463 51.3749 41.9074 53.4487C38.7968 53.2901 36.1619 51.7775 34.8079 49.0572C33.4539 51.7653 30.8922 53.2901 27.7816 53.4487C28.3427 51.3749 29.4527 49.7038 31.1361 48.3375C24.9881 51.7653 19.2426 52.0093 13.9729 49.0572C18.5961 45.9466 23.7073 44.9829 29.1356 46.0198C20.2795 43.9461 13.9729 38.7617 10.1426 30.4546C19.9623 31.4182 27.3058 36.2001 32.173 44.8244C26.8301 34.7606 27.7084 23.6722 34.8079 11.4615Z" fill="#8EB360"/>
<path d="M34.8074 70.1118C15.4484 70.1118 -0.299805 54.327 -0.299805 34.9192C-0.299805 15.5602 15.4484 -0.200195 34.8074 -0.200195C54.2152 -0.200195 70 15.548 70 34.9192C70 54.327 54.2152 70.1118 34.8074 70.1118ZM34.8074 2.52006C16.9366 2.52006 2.40825 17.0484 2.40825 34.9192C2.40825 52.8266 16.9488 67.4037 34.8074 67.4037C52.7148 67.4037 67.2919 52.8266 67.2919 34.9192C67.2919 17.0484 52.7148 2.52006 34.8074 2.52006Z" fill="#4F4F4F"/>
<path d="M34.8072 59.8163C34.0509 59.8163 33.4531 59.2064 33.4531 58.4623V49.0451C33.4531 48.2888 34.0631 47.691 34.8072 47.691C35.5635 47.691 36.1612 48.301 36.1612 49.0451V58.4623C36.1612 59.2064 35.5635 59.8163 34.8072 59.8163Z" fill="#4F4F4F"/>
<path d="M21.6211 52.5095C18.7422 52.5095 15.961 51.7531 13.3017 50.2161C12.8869 49.9844 12.6308 49.5452 12.6186 49.0695C12.6064 48.5937 12.8504 48.1424 13.2529 47.8984C14.9485 46.825 16.6563 46.0077 18.3397 45.4465C19.0594 45.2148 19.8157 45.5929 20.0597 46.3004C20.2914 47.0079 19.9133 47.7764 19.2058 48.0204C18.4617 48.2766 17.7054 48.5815 16.9368 48.9475C20.7428 50.3747 24.7561 50.021 29.1109 47.9106C29.7818 47.5813 30.5991 47.8618 30.9285 48.5328C31.2579 49.2037 30.9773 50.021 30.3064 50.3503C27.3178 51.7897 24.4267 52.5095 21.6211 52.5095Z" fill="#4F4F4F"/>
<path d="M28.1107 47.2153C27.9887 47.2153 27.8667 47.2031 27.7447 47.1665C19.0716 44.7512 12.7406 39.3229 8.92249 31.028C8.71512 30.5888 8.76391 30.0765 9.04448 29.6739C9.32504 29.2836 9.81296 29.0762 10.2765 29.1128C16.4245 29.6983 21.7187 31.7843 26.0125 35.3218C26.5859 35.7976 26.6713 36.6514 26.1955 37.237C25.7198 37.8225 24.8537 37.8957 24.2804 37.4199C20.999 34.7119 17.0467 32.9553 12.521 32.1502C16.0586 38.4934 21.2917 42.5677 28.4644 44.556C29.1842 44.7512 29.6111 45.5075 29.4037 46.2272C29.2451 46.8128 28.6962 47.2153 28.1107 47.2153Z" fill="#4F4F4F"/>
<path d="M32.1727 46.2516C31.697 46.2516 31.2212 45.9954 30.9773 45.5319C28.1472 40.2865 26.964 34.663 27.4641 28.8078C27.5251 28.0514 28.257 27.5025 28.9279 27.5757C29.672 27.6367 30.2331 28.2954 30.1599 29.0395C29.7086 34.3581 30.7821 39.4692 33.356 44.2388C33.7097 44.8975 33.4658 45.7148 32.807 46.0808C32.6119 46.1906 32.3923 46.2516 32.1727 46.2516ZM29.855 24.3065C29.733 24.3065 29.611 24.2943 29.489 24.2577C28.7693 24.0626 28.3424 23.3062 28.5376 22.5865C29.6598 18.561 31.3676 14.5843 33.6243 10.7662C34.0025 10.1197 34.8442 9.91232 35.4785 10.2905C36.125 10.6686 36.3324 11.5103 35.9542 12.1446C33.8073 15.7554 32.1971 19.5125 31.148 23.3062C31.0017 23.9162 30.4527 24.3065 29.855 24.3065Z" fill="#4F4F4F"/>
<path d="M28.1841 55.5103C27.5254 55.5103 26.952 55.0345 26.8422 54.3636C26.7325 53.6195 27.2326 52.9364 27.9767 52.8144C30.7214 52.3875 32.6975 50.8871 33.527 48.5938C33.7832 47.8862 34.5639 47.5203 35.2592 47.7764C35.9667 48.0326 36.3327 48.8133 36.0765 49.5086C34.9054 52.7412 32.112 54.9248 28.3793 55.4981C28.3183 55.4981 28.2451 55.5103 28.1841 55.5103Z" fill="#4F4F4F"/>
<path d="M48.0183 52.4851C45.2004 52.4851 42.3094 51.7654 39.394 50.3381C38.7231 50.0088 38.4425 49.1915 38.7718 48.5206C39.1012 47.8496 39.9063 47.5691 40.5894 47.8984C44.0172 49.5696 47.3718 50.1186 50.519 49.533C51.2631 49.3867 51.9706 49.8746 52.1048 50.6187C52.239 51.3506 51.751 52.0703 51.0191 52.2045C50.031 52.3997 49.0308 52.4851 48.0183 52.4851Z" fill="#4F4F4F"/>
<path d="M41.5893 47.2153C41.0038 47.2153 40.467 46.8372 40.2962 46.2516C40.0767 45.5319 40.4792 44.7756 41.1989 44.556C42.2114 44.2511 43.2117 43.9339 44.2241 43.5436C44.9195 43.2874 45.7124 43.629 45.9807 44.3243C46.2491 45.0196 45.8953 45.8125 45.2 46.0808C44.1388 46.4956 43.0653 46.825 42.004 47.1543C41.8577 47.1909 41.7235 47.2153 41.5893 47.2153ZM49.3353 43.7753C48.884 43.7753 48.4448 43.5436 48.1765 43.1288C47.7861 42.4945 47.9813 41.6528 48.6156 41.2625C52.1044 39.1155 54.971 36.0415 57.1667 32.138C52.6411 32.9309 48.6888 34.6997 45.4074 37.4077C44.8341 37.8835 43.9802 37.8103 43.4922 37.2248C43.0165 36.6514 43.1019 35.7853 43.6752 35.3096C47.9691 31.772 53.2754 29.6861 59.4112 29.1006C59.8992 29.064 60.3627 29.2714 60.6433 29.6617C60.9239 30.0521 60.9727 30.5766 60.7653 31.0157C58.228 36.5172 54.6173 40.7379 50.0306 43.5802C49.8233 43.7143 49.5793 43.7753 49.3353 43.7753Z" fill="#4F4F4F"/>
<path d="M37.5158 46.2516C37.2962 46.2516 37.0888 46.2028 36.8815 46.093C36.2227 45.7514 35.9544 44.922 36.3081 44.2632C37.1742 42.6042 37.8451 41.0062 38.3697 39.3716C38.6014 38.6519 39.3699 38.2616 40.0775 38.4933C40.7972 38.7251 41.1875 39.4814 40.9557 40.2011C40.3824 41.9821 39.6505 43.7265 38.7112 45.5197C38.4795 45.9832 38.0037 46.2516 37.5158 46.2516ZM40.8704 35.3217C40.8338 35.3217 40.785 35.3217 40.7484 35.3217C40.0043 35.2486 39.4554 34.602 39.5163 33.8457C40.1263 27.0268 38.1501 19.7321 33.6367 12.1568C33.2585 11.5103 33.4659 10.6808 34.1124 10.3027C34.7589 9.92453 35.5884 10.1319 35.9788 10.7784C40.785 18.8538 42.8953 26.6974 42.2244 34.1019C42.1634 34.785 41.5657 35.3217 40.8704 35.3217Z" fill="#4F4F4F"/>
<path d="M41.4312 55.5103C41.358 55.5103 41.297 55.5103 41.2238 55.4981C37.5399 54.937 34.8196 52.8144 33.5388 49.5452C33.2704 48.8499 33.6119 48.057 34.3072 47.7886C35.0026 47.5203 35.7955 47.8618 36.0638 48.5571C36.9787 50.9237 38.9061 52.3997 41.6263 52.8144C42.3704 52.9242 42.8706 53.6195 42.7608 54.3636C42.6632 55.0223 42.0899 55.5103 41.4312 55.5103Z" fill="#4F4F4F"/>
</g>
<defs>
<clipPath id="clip0">
<rect width="70" height="70" fill="white"/>
</clipPath>
</defs>
</svg>
