<svg width="120" height="120" viewBox="0 0 120 120" fill="none" xmlns="http://www.w3.org/2000/svg">
<g clip-path="url(#clip0)">
<path d="M82.0621 113.11C111.178 101.141 125.079 67.8353 113.11 38.7193C101.141 9.60321 67.8354 -4.29741 38.7193 7.67137C9.60323 19.6402 -4.29738 52.946 7.6714 82.0621C19.6402 111.178 52.946 125.079 82.0621 113.11Z" fill="#B6B6B6"/>
<path d="M79.8479 107.789C106.021 97.0434 118.528 67.1148 107.782 40.9416C97.037 14.7683 67.1084 2.26158 40.9352 13.007C14.7619 23.7525 2.25516 53.681 13.0006 79.8542C23.746 106.028 53.6746 118.534 79.8479 107.789Z" fill="#F8F8F8"/>
<path d="M60.3958 115.301C30.1721 115.301 5.5603 90.6889 5.5603 60.4653C5.5603 30.2417 30.1721 5.54968 60.3958 5.54968C90.6194 5.54968 115.231 30.1615 115.231 60.3851C115.231 90.6088 90.6996 115.301 60.3958 115.301ZM60.3958 7.15306C31.054 7.15306 7.16368 31.0434 7.16368 60.3851C7.16368 89.7269 31.054 113.697 60.4759 113.697C89.8979 113.697 113.788 89.8071 113.788 60.3851C113.788 30.9632 89.8177 7.15306 60.3958 7.15306Z" fill="#F8F8F8"/>
<path d="M73.3599 92.0664C90.8554 84.9029 99.2312 64.9129 92.0677 47.4175C84.9043 29.922 64.9143 21.5462 47.4188 28.7096C29.9234 35.8731 21.5476 55.8631 28.711 73.3585C35.8744 90.854 55.8644 99.2298 73.3599 92.0664Z" fill="#F8F8F8"/>
<path d="M116.674 96.3809H4.1167V74.6552H116.674V96.3809ZM5.72007 94.7775H115.07V76.2585H5.72007V94.7775Z" fill="#F8F8F8"/>
<path d="M115.872 75.4569H4.91821V95.5793H115.872V75.4569Z" fill="#B6B6B6"/>
<path d="M32.3357 33.4476C32.0952 33.9286 31.6142 34.9708 30.8125 35.8526C29.8505 36.8948 28.8083 37.456 27.6058 37.5362C26.4834 37.6164 25.2809 37.1353 24.2387 36.1733C22.2345 34.3294 22.0741 31.5235 24.1585 29.2788C24.88 28.4771 25.6016 28.0763 26.0024 27.9159L26.4834 28.7978C26.0024 29.0383 25.4412 29.359 24.7999 30.0003C23.2767 31.6037 23.2767 33.6881 25.0404 35.2113C26.7239 36.8147 28.7282 36.7345 30.1712 35.1311C30.7324 34.5699 30.9729 34.0889 31.053 33.7683L29.0488 31.9244L27.7661 33.2872L27.0446 32.6459L29.129 30.4012L32.3357 33.4476Z" fill="#B6B6B6"/>
<path d="M29.6099 24.4685L32.7364 28.8778C33.939 30.5613 35.1415 30.7217 36.1837 30.0803C37.3061 29.2786 37.4664 28.0761 36.344 26.3926L33.2175 21.9833L34.1795 21.2618L37.2259 25.671C38.8293 27.9959 38.2681 29.7597 36.6647 30.9622C35.1415 32.0845 33.3778 32.0044 31.6942 29.6795L28.5677 25.2702L29.6099 24.4685Z" fill="#B6B6B6"/>
<path d="M40.9138 24.7892L41.2345 27.8356L40.1121 28.3166L39.2303 18.6963L40.513 18.1351L47.0868 25.2702L45.9645 25.7512L43.9602 23.4263L40.9138 24.7892ZM43.3189 22.7048L41.3948 20.6204C40.994 20.1394 40.5931 19.7385 40.2725 19.2575C40.3526 19.8187 40.4328 20.3799 40.513 20.9411L40.7535 23.747L43.3189 22.7048Z" fill="#B6B6B6"/>
<path d="M46.2851 16.0509C46.8463 15.8104 47.648 15.4898 48.4497 15.3294C49.6522 15.0088 50.5341 15.0889 51.1754 15.4096C51.7366 15.7303 52.1375 16.2113 52.2978 16.9328C52.5383 18.1353 52.0573 19.0974 51.1754 19.5784C51.897 19.6585 52.4581 20.2197 52.9391 21.1016C53.5003 22.3041 53.9813 23.1058 54.2219 23.4265L53.0193 23.7471C52.7788 23.5066 52.4581 22.7851 51.897 21.7429C51.3358 20.5404 50.7746 20.2197 49.7324 20.4602L48.61 20.7007L49.4919 24.5488L48.3695 24.7893L46.2851 16.0509ZM48.4497 19.8189L49.6522 19.5784C50.8548 19.2577 51.4961 18.456 51.2556 17.4138C51.0151 16.2915 50.0531 15.9708 48.7704 16.2113C48.2092 16.3716 47.8083 16.4518 47.648 16.6121L48.4497 19.8189Z" fill="#B6B6B6"/>
<path d="M56.9477 20.38L56.146 23.3462L54.9435 23.4264L57.6692 14.1268L59.1122 14.0466L62.6397 23.1057L61.357 23.1859L60.1544 20.2196L56.9477 20.38ZM59.9139 19.3378L58.8717 16.7724C58.6312 16.2112 58.4709 15.65 58.3106 15.0888C58.2304 15.65 58.0701 16.2112 57.9097 16.7724L57.108 19.4179L59.9139 19.3378Z" fill="#B6B6B6"/>
<path d="M63.7622 23.1057L65.2854 14.0466L66.5681 14.2871L68.7327 19.3378C69.2137 20.5403 69.6145 21.5825 69.855 22.5445C69.9352 21.342 70.0955 20.2196 70.336 18.7766L70.9774 15.0087L72.0998 15.169L70.5766 24.2281L69.374 24.0677L67.2896 19.0171C66.8086 17.8947 66.4078 16.7724 66.0871 15.7302H66.0069C65.8466 16.8525 65.7664 17.9749 65.4457 19.4981L64.8044 23.3462L63.7622 23.1057Z" fill="#B6B6B6"/>
<path d="M76.9895 17.8147L74.3439 16.8527L74.6646 15.8906L81.0781 18.2155L80.7574 19.1775L78.1119 18.2155L75.306 25.9117L74.1836 25.5109L76.9895 17.8147Z" fill="#B6B6B6"/>
<path d="M85.087 25.9917L81.9604 24.228L80.3571 27.1141L83.8043 29.0381L83.3233 29.92L78.7537 27.3546L83.2431 19.3377L87.5723 21.7428L87.0912 22.6246L83.8043 20.7807L82.3613 23.3461L85.4879 25.1098L85.087 25.9917Z" fill="#B6B6B6"/>
<path d="M90.9391 30.4812L88.1332 28.2365L86.0488 30.8019L89.1754 33.2871L88.5341 34.0888L84.5256 30.8821L90.2978 23.7471L94.1459 26.8736L93.5045 27.6753L90.5383 25.2703L88.6944 27.515L91.5003 29.7597L90.9391 30.4812Z" fill="#B6B6B6"/>
<path d="M35.1445 43.389V56.1358H33.4609V43.389H35.1445Z" fill="#B6B6B6"/>
<path d="M37.7898 54.1314C38.5114 54.6124 39.6337 54.9331 40.7561 54.9331C42.4396 54.9331 43.4016 54.0513 43.4016 52.7686C43.4016 51.566 42.6801 50.9247 40.9966 50.2032C38.9122 49.4816 37.6295 48.3593 37.6295 46.5956C37.6295 44.5913 39.313 43.1483 41.7983 43.1483C43.081 43.1483 44.043 43.469 44.6042 43.7897L44.1232 45.1525C43.7223 44.912 42.8405 44.5112 41.7181 44.5112C39.9544 44.5112 39.313 45.5534 39.313 46.4352C39.313 47.6378 40.1147 48.1989 41.8784 48.9205C44.043 49.7221 45.1654 50.7643 45.1654 52.6884C45.1654 54.6926 43.7223 56.3762 40.6759 56.3762C39.4734 56.3762 38.1105 56.0555 37.389 55.5745L37.7898 54.1314Z" fill="#B6B6B6"/>
<path d="M58.3129 49.642C58.3129 54.0513 55.6674 56.3762 52.3804 56.3762C49.0133 56.3762 46.6083 53.7306 46.6083 49.8825C46.6083 45.7939 49.0935 43.1483 52.5408 43.1483C56.0682 43.1483 58.3129 45.7939 58.3129 49.642ZM48.372 49.8023C48.372 52.5281 49.815 55.0133 52.4606 55.0133C55.1062 55.0133 56.5492 52.6082 56.5492 49.7221C56.5492 47.1567 55.1863 44.5112 52.4606 44.5112C49.7349 44.5112 48.372 46.9964 48.372 49.8023Z" fill="#B6B6B6"/>
<path d="M33.3789 68.8024C33.6194 68.8024 33.9401 68.8024 34.3409 68.7222C35.0624 68.642 35.7038 68.3214 36.265 67.8403C36.9063 67.2792 37.3072 66.4775 37.4675 65.4353H37.3873C36.9063 66.0766 36.1848 66.3973 35.2228 66.3973C33.6194 66.3973 32.497 65.1948 32.497 63.5914C32.497 61.8277 33.7797 60.3846 35.6236 60.3846C37.4675 60.3846 38.67 61.9079 38.67 64.2327C38.67 66.237 38.0287 67.68 37.0667 68.4817C36.3451 69.2032 35.3831 69.6041 34.4211 69.6842C33.9401 69.7644 33.5392 69.7644 33.2987 69.7644V68.8024H33.3789ZM33.8599 63.5112C33.8599 64.6336 34.5814 65.4353 35.6236 65.4353C36.4253 65.4353 37.0667 65.0344 37.3873 64.4733C37.4675 64.3931 37.4675 64.2327 37.4675 63.9922C37.4675 62.469 36.9063 61.2665 35.6236 61.2665C34.5814 61.3467 33.8599 62.2285 33.8599 63.5112Z" fill="#B6B6B6"/>
<path d="M45.9654 65.0344C45.9654 68.161 44.8431 69.8446 42.7587 69.8446C40.995 69.8446 39.7925 68.161 39.7123 65.1146C39.7123 62.0682 40.995 60.3846 42.919 60.3846C44.8431 60.3846 45.9654 62.0682 45.9654 65.0344ZM40.995 65.1146C40.995 67.5197 41.7165 68.8024 42.8389 68.8024C44.1216 68.8024 44.6828 67.3593 44.6828 65.0344C44.6828 62.7897 44.1216 61.3467 42.8389 61.3467C41.7967 61.3467 40.995 62.6294 40.995 65.1146Z" fill="#B6B6B6"/>
<path d="M53.1805 65.0344C53.1805 68.161 52.0581 69.8446 49.9737 69.8446C48.21 69.8446 47.0075 68.161 46.9273 65.1146C46.9273 62.0682 48.21 60.3846 50.1341 60.3846C52.0581 60.3846 53.1805 62.0682 53.1805 65.0344ZM48.21 65.1146C48.21 67.5197 48.9315 68.8024 50.0539 68.8024C51.3366 68.8024 51.8978 67.3593 51.8978 65.0344C51.8978 62.7897 51.3366 61.3467 50.0539 61.3467C49.0117 61.3467 48.21 62.6294 48.21 65.1146Z" fill="#B6B6B6"/>
<path d="M56.9485 61.6673L55.3451 62.5492L55.1046 61.5871L57.1088 60.5449H58.151V69.6842H56.9485V61.6673Z" fill="#B6B6B6"/>
<path d="M76.4288 72.1704C67.7706 72.1704 60.7959 65.1155 60.7959 56.5375C60.7959 47.8792 67.8508 40.9045 76.4288 40.9045C85.087 40.9045 92.0617 47.9594 92.0617 56.5375C92.1419 65.1957 85.087 72.1704 76.4288 72.1704ZM76.4288 41.6261C68.1714 41.6261 61.5174 48.2801 61.5174 56.5375C61.5174 64.7948 68.1714 71.4489 76.4288 71.4489C84.6862 71.4489 91.3402 64.7948 91.3402 56.5375C91.3402 48.2801 84.6862 41.6261 76.4288 41.6261Z" fill="#B6B6B6"/>
<path d="M76.4295 72.1711C76.3493 72.1711 76.3493 72.1711 76.2691 72.1711C76.189 72.1711 66.8092 68.4032 66.8092 56.5382C66.8092 44.6733 76.189 40.9053 76.2691 40.9053C76.3493 40.8252 76.5096 40.9053 76.5898 40.9855C76.67 41.0657 76.7501 41.1458 76.7501 41.3062V71.8505C76.7501 72.0108 76.67 72.091 76.5898 72.1711C76.5898 72.1711 76.5096 72.1711 76.4295 72.1711ZM76.1088 41.8673C74.1847 42.8294 67.6109 46.8378 67.6109 56.5382C67.6109 66.2386 74.1847 70.2471 76.1088 71.2091V41.8673Z" fill="#B6B6B6"/>
<path d="M76.4295 72.1711C76.3493 72.1711 76.269 72.17 76.1889 72.0898C76.1087 72.0096 76.0285 71.9295 76.0285 71.7691V41.2248C76.0285 41.0645 76.1087 40.9843 76.1889 40.9041C76.269 40.824 76.4294 40.824 76.5095 40.824C76.5897 40.824 85.9694 44.5919 85.9694 56.4569C85.9694 68.3219 76.5897 72.0898 76.5095 72.0898C76.5897 72.17 76.5096 72.1711 76.4295 72.1711ZM76.8302 41.8662V71.2079C78.7542 70.2459 85.3281 66.2375 85.3281 56.5371C85.3281 46.8366 78.7542 42.8282 76.8302 41.8662Z" fill="#B6B6B6"/>
<path d="M91.7418 56.9379H61.1975C60.957 56.9379 60.7966 56.7775 60.7966 56.537C60.7966 56.2965 60.957 56.1362 61.1975 56.1362H91.7418C91.9823 56.1362 92.1426 56.2965 92.1426 56.537C92.1426 56.6974 91.9823 56.9379 91.7418 56.9379Z" fill="#B6B6B6"/>
<path d="M67.8515 69.5244C67.7713 69.5244 67.6911 69.5244 67.611 69.4442C67.4506 69.364 67.3704 69.1235 67.5308 68.883C67.6911 68.7227 70.6574 64.3936 76.4295 64.3936C82.2818 64.3936 85.2481 68.6425 85.4084 68.883C85.4886 69.0434 85.4886 69.2839 85.3283 69.4442C85.1679 69.5244 84.9274 69.5244 84.7671 69.3641C84.7671 69.2839 81.881 65.2754 76.4295 65.2754C70.978 65.2754 68.1721 69.3641 68.092 69.3641C68.092 69.4442 67.9316 69.5244 67.8515 69.5244Z" fill="#B6B6B6"/>
<path d="M76.4296 48.6804C70.5773 48.6804 67.611 44.4315 67.5309 44.1909C67.4507 44.0306 67.4507 43.7901 67.611 43.6298C67.7714 43.5496 68.0119 43.5496 68.1722 43.7099C68.1722 43.7901 71.0583 47.7985 76.5098 47.7985C81.9612 47.7985 84.7671 43.7099 84.8473 43.7099C84.9275 43.5496 85.168 43.4694 85.4085 43.6298C85.5688 43.7099 85.649 43.9504 85.4887 44.1909C85.2482 44.4315 82.2819 48.6804 76.4296 48.6804Z" fill="#B6B6B6"/>
<path d="M83.5636 50.3641C83.1627 50.0434 82.6817 49.9633 82.2007 50.0434C81.7197 50.1236 81.3188 50.3641 80.9982 50.765L75.7872 57.5793L72.5805 53.4907C71.9391 52.689 70.8167 52.6088 70.015 53.17C69.6142 53.4907 69.3737 53.8915 69.3737 54.3726C69.2935 54.8536 69.4539 55.3346 69.7745 55.7354L74.4243 61.5877C74.745 61.9886 75.3062 62.2291 75.8674 62.2291C76.4286 62.2291 76.9096 61.9886 77.3104 61.5076L83.8843 52.8493C84.5256 52.1278 84.3653 51.0055 83.5636 50.3641Z" fill="#B6B6B6"/>
<path d="M75.8676 61.5075C75.5469 61.5075 75.2262 61.3472 75.0659 61.1067L70.4161 55.2544C70.0954 54.7734 70.0954 54.132 70.5765 53.8113C71.0575 53.4907 71.6988 53.4907 72.0195 53.9717L75.8676 58.7818L81.6397 51.1658C81.9604 50.6848 82.6819 50.6046 83.0828 51.0054C83.5638 51.3261 83.644 52.0476 83.2431 52.4485L76.7494 61.1067C76.5089 61.3472 76.1883 61.5075 75.8676 61.5075Z" fill="#F8F8F8"/>
<path d="M26.1644 91.0901C25.6032 91.3306 24.4808 91.6513 23.0378 91.6513C19.7509 91.6513 17.2656 89.5669 17.2656 85.7188C17.2656 82.031 19.7509 79.5458 23.3585 79.5458C24.8015 79.5458 25.7635 79.8664 26.1644 80.107L25.8437 81.3095C25.2825 81.069 24.4808 80.8285 23.4386 80.8285C20.7129 80.8285 18.869 82.5922 18.869 85.6386C18.869 88.5247 20.5525 90.3686 23.3585 90.3686C24.3205 90.3686 25.2023 90.2082 25.8437 89.8875L26.1644 91.0901Z" fill="white"/>
<path d="M34.9828 85.9592H30.4132V90.2081H35.4639V91.4908H28.89V79.706H35.2233V80.9887H30.4132V84.6765H34.9828V85.9592Z" fill="white"/>
<path d="M38.3501 79.8663C39.1518 79.706 40.194 79.6258 41.2362 79.6258C42.8396 79.6258 43.8818 79.9465 44.6033 80.5879C45.1645 81.149 45.5653 81.8706 45.5653 82.8326C45.5653 84.3558 44.6033 85.398 43.3206 85.7988V85.879C44.2025 86.1997 44.7636 87.0014 45.0041 88.2841C45.405 89.8874 45.6455 91.09 45.886 91.4908H44.2826C44.1223 91.1701 43.8016 90.1279 43.4809 88.6849C43.1603 87.0815 42.5189 86.4402 41.156 86.4402H39.713V91.4908H38.1898V79.8663H38.3501ZM41.3966 85.2377C42.9999 85.2377 44.0421 84.3558 44.0421 82.9929C44.0421 81.4697 42.9198 80.8284 41.3164 80.8284C40.5949 80.8284 40.0337 80.9085 39.7932 80.9887V85.2377H41.3966Z" fill="white"/>
<path d="M51.0169 80.9887H47.4093V79.706H56.0676V80.9887H52.46V91.4107H50.9368V80.9887H51.0169Z" fill="white"/>
<path d="M59.8352 79.706V91.4107H58.312V79.706H59.8352Z" fill="white"/>
<path d="M63.2824 79.706H69.6157V80.9887H64.8056V84.917H69.2148V86.1997H64.8056V91.4908H63.2824V79.706Z" fill="white"/>
<path d="M74.1856 79.706V91.4107H72.6624V79.706H74.1856Z" fill="white"/>
<path d="M83.8055 85.9592H79.2358V90.2081H84.2865V91.4908H77.7126V79.706H84.046V80.9887H79.2358V84.6765H83.8055V85.9592Z" fill="white"/>
<path d="M87.0929 79.8663C88.0549 79.706 89.0971 79.6258 90.2997 79.6258C92.4642 79.6258 93.9874 80.1069 95.0296 81.0689C96.0718 82.0309 96.7132 83.3938 96.7132 85.3178C96.7132 87.2419 96.152 88.7651 95.0296 89.8874C93.9073 91.0098 92.1436 91.571 89.8187 91.571C88.7765 91.571 87.8144 91.4908 87.0929 91.4107V79.8663ZM88.6161 90.2081C89.017 90.2883 89.5781 90.2883 90.1393 90.2883C93.3461 90.2883 95.1098 88.4444 95.1098 85.3178C95.1098 82.5119 93.5866 80.8284 90.3798 80.8284C89.5781 80.8284 89.017 80.9085 88.6161 80.9887V90.2081Z" fill="white"/>
<path d="M20.6334 40.8246L21.3549 43.0693H23.6798L21.8359 44.5123L22.5574 46.7571L20.6334 45.314L18.7093 46.7571L19.4308 44.5123L17.5068 43.0693H19.9119L20.6334 40.8246Z" fill="#B6B6B6"/>
<path d="M17.9877 55.5757L18.5489 57.0989H20.1523L18.8696 58.0609L19.3506 59.5841L17.9877 58.6221L16.705 59.5841L17.186 58.0609L15.9033 57.0989H17.5067L17.9877 55.5757Z" fill="#B6B6B6"/>
<path d="M19.5111 68.8836L19.8317 69.9258H20.9541L20.0722 70.5672L20.3929 71.6895L19.5111 70.968L18.549 71.6895L18.9499 70.5672L17.9878 69.9258H19.1904L19.5111 68.8836Z" fill="#B6B6B6"/>
<path d="M98.7976 40.8246L98.0761 43.0693H95.7512L97.5951 44.5123L96.8736 46.7571L98.7976 45.314L100.722 46.7571L100 44.5123L101.924 43.0693H99.5191L98.7976 40.8246Z" fill="#B6B6B6"/>
<path d="M102.886 55.5757L102.405 57.0989H100.802L102.085 58.0609L101.604 59.5841L102.886 58.6221L104.249 59.5841L103.768 58.0609L105.051 57.0989H103.448L102.886 55.5757Z" fill="#B6B6B6"/>
<path d="M101.924 68.8836L101.523 69.9258H100.401L101.363 70.5672L100.962 71.6895L101.924 70.968L102.806 71.6895L102.485 70.5672L103.367 69.9258H102.245L101.924 68.8836Z" fill="#B6B6B6"/>
<path d="M60.7977 98.0652L61.7598 101.031H64.8062L62.321 102.795L63.283 105.681L60.7977 103.917L58.3125 105.681L59.2745 102.795L56.7893 101.031H59.8357L60.7977 98.0652Z" fill="#B6B6B6"/>
<path d="M47.3292 98.5462L48.0508 100.791H50.3756L48.4516 102.154L49.1731 104.318L47.3292 102.955L45.4052 104.318L46.1267 102.154L44.2828 100.791H46.6077L47.3292 98.5462Z" fill="#B6B6B6"/>
<path d="M74.2662 98.5462L73.5447 100.791H71.2198L73.1439 102.154L72.4224 104.318L74.2662 102.955L76.1101 104.318L75.4688 102.154L77.3127 100.791H74.9878L74.2662 98.5462Z" fill="#B6B6B6"/>
</g>
<defs>
<clipPath id="clip0">
<rect width="120" height="120" fill="white"/>
</clipPath>
</defs>
</svg>
