<svg id="Layer_1" data-name="Layer 1" xmlns="http://www.w3.org/2000/svg" xmlns:xlink="http://www.w3.org/1999/xlink" viewBox="0 0 170.97 55.31"><defs><style>.cls-1{fill:none;}.cls-2{fill:#5c1600;}.cls-3{clip-path:url(#clip-path);}.cls-4{fill:url(#linear-gradient);}.cls-5{fill:url(#linear-gradient-2);}.cls-6{fill:url(#linear-gradient-3);}.cls-7{fill:url(#linear-gradient-4);}.cls-8{fill:#8eb360;}</style><clipPath id="clip-path"><rect class="cls-1" width="67.04" height="55.31"/></clipPath><linearGradient id="linear-gradient" x1="47.21" y1="80.13" x2="47.21" y2="-18.13" gradientTransform="matrix(1, 0, 0, -1, 0, 58)" gradientUnits="userSpaceOnUse"><stop offset="0.03" stop-color="#ec7e4f"/><stop offset="1" stop-color="#ec7e4f"/></linearGradient><linearGradient id="linear-gradient-2" x1="59.75" y1="80.13" x2="59.75" y2="-18.13" xlink:href="#linear-gradient"/><linearGradient id="linear-gradient-3" x1="7.2" y1="80.13" x2="7.2" y2="-18.13" xlink:href="#linear-gradient"/><linearGradient id="linear-gradient-4" x1="19.8" y1="80.13" x2="19.8" y2="-18.13" xlink:href="#linear-gradient"/></defs><title>logo-inverse-171x56</title><path class="cls-2" d="M80.54,23.46V4.56h4.11l6,10.83,6-10.83h4v18.9H96.26V13.19l-4.32,7.49H89.26L85,13.3V23.46Z"/><path class="cls-2" d="M104.19,23.46V4.56h13.35V8.37h-8.63V12h8v3.81h-8v3.89h8.63v3.8Z"/><path class="cls-2" d="M120.66,23.46V4.56h7.83q4.9,0,7.62,2.47a9,9,0,0,1,2.71,7,9.08,9.08,0,0,1-2.71,7q-2.72,2.46-7.62,2.46Zm4.94-4h2.57a5.7,5.7,0,0,0,4.16-1.34A5.62,5.62,0,0,0,133.69,14a5.51,5.51,0,0,0-1.36-4.1,5.72,5.72,0,0,0-4.16-1.35H125.6Z"/><path class="cls-2" d="M141.74,23.46V4.56h4.94v18.9Z"/><path class="cls-2" d="M78.83,52.25l-.3-3.94,2.2-.13a2.23,2.23,0,0,0,1.42-.46,1.83,1.83,0,0,0,.46-1.4V33.05h4.93V46.24c0,3.69-2,5.64-6,5.88Z"/><path class="cls-2" d="M99.33,52.25A8.87,8.87,0,0,1,93,50.16c-1.45-1.39-2.17-3.48-2.17-6.25V33.05h4.93V44a4.62,4.62,0,0,0,.92,3.11,3.87,3.87,0,0,0,5.28,0,4.62,4.62,0,0,0,.91-3.11V33.05h4.85V43.91c0,2.77-.71,4.86-2.14,6.25S102.08,52.25,99.33,52.25Z"/><path class="cls-2" d="M108.61,52l8.85-18.91h3.89L130.2,52h-4.93l-1.64-3.84h-8.45L113.55,52ZM119.37,38.2l-2.58,6.14H122l-2.57-6.14Z"/><path class="cls-2" d="M131.35,52V33.05H135l8.69,10.83V33.05h4.56V52h-3.59l-8.69-10.84V52Z"/><path class="cls-2" d="M149.39,52l8.85-18.91h3.88L171,52H166l-1.64-3.84H156L154.32,52ZM160.14,38.2l-2.57,6.14h5.2l-2.58-6.14Z"/><g class="cls-3"><path class="cls-4" d="M35.62,0,36,.94l1.72,3.68a97.88,97.88,0,0,1,6.93,20.14,91.74,91.74,0,0,1,7.77-6l3.26-2.34,3.08-2.23A29.43,29.43,0,0,0,35.62,0Z"/><path class="cls-5" d="M60.28,16.86l-.17,1.93-.36,4A78.39,78.39,0,0,1,56.61,38.1a48.22,48.22,0,0,1,5-.64A28.54,28.54,0,0,0,62.89,29,28,28,0,0,0,60.28,16.86Z"/><path class="cls-6" d="M6.94,18.79l-.18-2A28.88,28.88,0,0,0,4,29a30.63,30.63,0,0,0,1.25,8.49,49.5,49.5,0,0,1,5.09.64A73.25,73.25,0,0,1,7.23,22.83Z"/><path class="cls-7" d="M8.18,14.11l3.14,2.22,3.26,2.34c2.91,2,5.45,4.1,7.77,6A101.13,101.13,0,0,1,29.28,4.62L31,.94,31.42,0A29.67,29.67,0,0,0,8.18,14.11Z"/><path class="cls-8" d="M63.66,40.15A48.07,48.07,0,0,0,52.28,42,67.09,67.09,0,0,0,57,22.59l.36-4L54.12,21a78.91,78.91,0,0,0-11.2,9.31A89,89,0,0,0,35.21,5.74L33.49,2.05,31.77,5.74c-4.33,9.59-6.64,17.67-7.59,24.46A83.27,83.27,0,0,0,13,20.89L9.72,18.55l.36,4A71.32,71.32,0,0,0,14.82,42,48.59,48.59,0,0,0,3.44,40.09L0,40,1.78,42.9a45.61,45.61,0,0,0,5.57,6.85,18.78,18.78,0,0,0,13.4,5.56A49.4,49.4,0,0,1,7.29,44.13a44.5,44.5,0,0,1,12,3.39,18.77,18.77,0,0,1,6.52,4.74,9,9,0,0,0,6.76,3.05c-3.67-4.86-9.72-18.15,1-44.07,10.73,25.87,4.44,39.15.83,44.07h.06a8.85,8.85,0,0,0,6.7-3.1,17.84,17.84,0,0,1,6.16-4.51,45,45,0,0,1,12.45-3.57A47.46,47.46,0,0,1,46.35,55.31a18.64,18.64,0,0,0,13.34-5.56,38,38,0,0,0,5.57-6.85L67,40ZM24.48,45.94a15.3,15.3,0,0,1-7.41-8.42,66.1,66.1,0,0,1-2.73-11,62,62,0,0,1,9.43,8.72A42.71,42.71,0,0,0,24.48,45.94Zm18.14,0a43,43,0,0,0,.71-10.77,62.09,62.09,0,0,1,9.43-8.72,66.1,66.1,0,0,1-2.73,11A15.68,15.68,0,0,1,42.62,45.94Z"/></g></svg>