<svg width="70" height="69" viewBox="0 0 70 69" fill="none" xmlns="http://www.w3.org/2000/svg">
<g clip-path="url(#clip0)">
<path fill-rule="evenodd" clip-rule="evenodd" d="M49.9517 37.8934C50.8381 37.8934 51.5627 37.1652 51.5627 36.2803V33.0038C51.5627 32.1161 50.8382 31.3907 49.9517 31.3907H47.7754V37.8934H49.9517Z" fill="#B9BABA"/>
<path fill-rule="evenodd" clip-rule="evenodd" d="M51.5627 50.1521V46.8755C51.5627 45.9878 50.8382 45.2624 49.9517 45.2624H47.7754V51.7651H49.9517C50.8382 51.7652 51.5627 51.0397 51.5627 50.1521Z" fill="#B9BABA"/>
<path fill-rule="evenodd" clip-rule="evenodd" d="M32.3166 39.5171C34.1983 39.5171 35.7243 37.9891 35.7243 36.1024C35.7243 34.2183 34.1983 32.6902 32.3166 32.6902C30.4322 32.6902 28.9062 34.2183 28.9062 36.1024C28.9062 37.9891 30.4323 39.5171 32.3166 39.5171Z" fill="#EEEEEE"/>
<path fill-rule="evenodd" clip-rule="evenodd" d="M27.4351 59.0625H44.7153C46.3979 59.0625 47.7754 57.6832 47.7754 55.9958V54.311H24.375V55.9958C24.375 57.6832 25.7525 59.0625 27.4351 59.0625Z" fill="#EEEEEE"/>
<path fill-rule="evenodd" clip-rule="evenodd" d="M37.6074 28.0051H46.6549V25.3849C46.6549 24.2581 45.7366 23.3387 44.6113 23.3387H39.651C38.5257 23.3387 37.6074 24.2582 37.6074 25.3849V28.0051Z" fill="#EEEEEE"/>
<path fill-rule="evenodd" clip-rule="evenodd" d="M25.2402 22.3102H32.7245V28.0051H25.2402V22.3102Z" fill="white"/>
<path fill-rule="evenodd" clip-rule="evenodd" d="M25.2402 22.3103H32.7245V18.922C32.7245 18.441 32.3291 18.0477 31.8487 18.0477H31.3948H26.5699H26.116C25.633 18.0477 25.2402 18.441 25.2402 18.922V22.3103Z" fill="#B9BABA"/>
<path fill-rule="evenodd" clip-rule="evenodd" d="M26.5703 18.0477H31.3952V14.0643C31.3952 13.4451 30.8883 12.9375 30.27 12.9375H27.6956C27.0772 12.9375 26.5703 13.4451 26.5703 14.0643V18.0477Z" fill="#EEEEEE"/>
<path fill-rule="evenodd" clip-rule="evenodd" d="M47.7753 51.7652V45.2625V37.8935V31.3908V28.449C47.7753 28.2045 47.5762 28.0052 47.332 28.0052H46.6552H37.6078H32.7245H25.2402H24.8182C24.5741 28.0052 24.375 28.2045 24.375 28.449V54.3111H47.7753V51.7652ZM32.3157 32.6902C34.1974 32.6902 35.7234 34.2182 35.7234 36.1023C35.7234 37.9891 34.1974 39.517 32.3157 39.517C30.4313 39.517 28.9054 37.989 28.9054 36.1023C28.9054 34.2182 30.4314 32.6902 32.3157 32.6902Z" fill="#F3BBA4"/>
<path d="M36.6619 36.1023C36.6619 33.7039 34.7127 31.7527 32.3166 31.7527C29.9192 31.7527 27.9688 33.7039 27.9688 36.1023C27.9688 38.5022 29.9192 40.4546 32.3166 40.4546C34.7127 40.4547 36.6619 38.5022 36.6619 36.1023ZM29.8438 36.1023C29.8438 34.7378 30.9531 33.6277 32.3166 33.6277C33.6787 33.6277 34.7869 34.7378 34.7869 36.1023C34.7869 37.4682 33.6788 38.5796 32.3166 38.5796C30.9531 38.5797 29.8438 37.4683 29.8438 36.1023Z" fill="#3A3A3A"/>
<path d="M49.9516 38.8309C51.3568 38.8309 52.5001 37.6867 52.5001 36.2803V33.0037C52.5001 31.5974 51.3569 30.4532 49.9516 30.4532H48.7128V28.4489C48.7128 27.7765 48.2298 27.2155 47.5928 27.0931V25.385C47.5928 23.7397 46.2555 22.4012 44.6118 22.4012H39.6515C38.0078 22.4012 36.6704 23.7397 36.6704 25.385V27.0677H33.662V18.922C33.662 18.0906 33.0978 17.3899 32.3323 17.1777V14.0643C32.3324 12.926 31.4071 12 30.2696 12H27.6952C26.5578 12 25.6325 12.926 25.6325 14.0643V17.1777C24.867 17.39 24.3027 18.0906 24.3027 18.922V27.1685C23.7962 27.3733 23.4375 27.8696 23.4375 28.4489V41.3799C23.4375 41.8977 23.8573 42.3174 24.375 42.3174C24.8927 42.3174 25.3125 41.8977 25.3125 41.3799V28.9426H46.8378V53.3735H25.3126V49.8439C25.3126 49.3261 24.8928 48.9064 24.3751 48.9064C23.8574 48.9064 23.4376 49.3261 23.4376 49.8439V55.9958C23.4376 58.2038 25.2309 60 27.4352 60H44.7153C46.9195 60 48.7129 58.2038 48.7129 55.9958V52.7028H49.9517C51.3569 52.7028 52.5002 51.5586 52.5002 50.1522V46.8757C52.5002 45.4693 51.357 44.3251 49.9517 44.3251H48.7129V38.831H49.9516V38.8309ZM49.9516 32.3282C50.3229 32.3282 50.6251 32.6312 50.6251 33.0037V36.2804C50.6251 36.6466 50.3167 36.956 49.9516 36.956H48.7128V32.3283H49.9516V32.3282ZM38.5454 25.3849C38.5454 24.7735 39.0416 24.2761 39.6515 24.2761H44.6118C45.2216 24.2761 45.7178 24.7735 45.7178 25.3849V27.0676H38.5454V25.3849ZM26.1778 23.2477H31.7871V27.0676H26.1778V23.2477ZM26.1778 18.9852H31.7871V21.3727H26.1778V18.9852ZM27.6952 13.875H30.2696C30.3697 13.875 30.4574 13.9634 30.4574 14.0643V17.1103H27.5075V14.0643C27.5075 13.9634 27.5952 13.875 27.6952 13.875ZM44.7153 58.125H27.4352C26.2647 58.125 25.3126 57.1699 25.3126 55.9958V55.2486H46.8379V55.9958C46.8379 57.1699 45.8857 58.125 44.7153 58.125ZM49.9516 46.2C50.3229 46.2 50.6251 46.503 50.6251 46.8756V50.1521C50.6251 50.5247 50.3229 50.8277 49.9516 50.8277H48.7128V46.2H49.9516Z" fill="#3A3A3A"/>
<path d="M24.375 46.5733C24.8927 46.5733 25.3125 46.1523 25.3125 45.6345C25.3125 45.1167 24.8927 44.697 24.375 44.697C23.8573 44.697 23.4375 45.1167 23.4375 45.6345V45.6371C23.4375 46.1549 23.8573 46.5733 24.375 46.5733Z" fill="#3A3A3A"/>
</g>
<defs>
<clipPath id="clip0">
<rect width="48" height="48" fill="white" transform="translate(13.9688 12)"/>
</clipPath>
</defs>
</svg>
