<svg width="73" height="73" viewBox="0 0 73 73" fill="none" xmlns="http://www.w3.org/2000/svg">
<g clip-path="url(#clip0)">
<path d="M63.032 58.1525H69.5249V46.2488L59.7856 31.0986H47.8818V58.1525H52.2104" fill="#C5E7A3"/>
<path d="M15.417 58.1525H6.75977V23.5236H47.8816V58.1525H26.2385" fill="#F3BBA4"/>
<path d="M47.9807 51.6289H29.5841C28.9865 51.6289 28.502 52.1134 28.502 52.7111C28.502 53.3087 28.9865 53.7932 29.5841 53.7932H47.9807V51.6289Z" fill="#F46B27"/>
<path d="M69.6235 51.629H66.3771C65.7794 51.629 65.2949 52.1135 65.2949 52.7111C65.2949 53.3088 65.7794 53.7933 66.3771 53.7933H69.6235V51.629Z" fill="#DBDBDB"/>
<path d="M47.9808 25.6572H10.1055V27.8216H47.9808V25.6572Z" fill="#F46B27"/>
<path d="M20.9274 62.4506C23.9157 62.4506 26.3382 60.0281 26.3382 57.0398C26.3382 54.0515 23.9157 51.629 20.9274 51.629C17.9391 51.629 15.5166 54.0515 15.5166 57.0398C15.5166 60.0281 17.9391 62.4506 20.9274 62.4506Z" fill="#E0E0E0"/>
<path d="M57.7214 62.4506C60.7097 62.4506 63.1322 60.0281 63.1322 57.0398C63.1322 54.0515 60.7097 51.629 57.7214 51.629C54.733 51.629 52.3105 54.0515 52.3105 57.0398C52.3105 60.0281 54.733 62.4506 57.7214 62.4506Z" fill="#E0E0E0"/>
<path d="M19.8447 57.0397C19.8447 57.6374 20.3292 58.1219 20.9269 58.1219C21.5246 58.1219 22.0091 57.6374 22.0091 57.0397C22.0091 56.442 21.5246 55.9575 20.9269 55.9575C20.3292 55.9575 19.8447 56.442 19.8447 57.0397Z" fill="#DBDBDB"/>
<path d="M56.6377 57.0397C56.6377 57.6374 57.1222 58.1219 57.7199 58.1219C58.3175 58.1219 58.802 57.6374 58.802 57.0397C58.802 56.442 58.3175 55.9575 57.7199 55.9575C57.1222 55.9575 56.6377 56.442 56.6377 57.0397Z" fill="#DBDBDB"/>
<path d="M25.2556 17H10.1055V19.1643H25.2556V17Z" fill="#DBDBDB"/>
<path d="M7.94071 17H5.77637V19.1643H7.94071V17Z" fill="#DBDBDB"/>
<path d="M62.6648 34.3145H52.3086V44.0539H68.9305L62.6648 34.3145Z" fill="#EAFAFD"/>
<path d="M68.9305 44.0539L63.0544 34.9097C60.1662 38.3368 56.4748 40.9946 52.3086 42.647V44.0538H68.9305V44.0539Z" fill="#C6EAEF"/>
<path d="M60.793 29.4014C60.5939 29.0919 60.2519 28.9047 59.884 28.9037H49.0626V22.4108C49.0626 21.8135 48.5777 21.3287 47.9804 21.3287H6.85848C6.26118 21.3287 5.77637 21.8135 5.77637 22.4108V57.0397C5.77637 57.637 6.26118 58.1218 6.85848 58.1218H14.5309C15.1499 61.654 18.5143 64.0153 22.0464 63.3973C24.7399 62.9254 26.8501 60.8164 27.3219 58.1218H51.324C51.943 61.654 55.3074 64.0153 58.8396 63.3973C61.533 62.9254 63.6432 60.8164 64.1151 58.1218H69.6233C70.2206 58.1218 70.7054 57.637 70.7054 57.0397V45.136C70.7054 44.9283 70.6448 44.7259 70.5323 44.5516L60.793 29.4014ZM62.0483 35.3966L66.9504 42.9716H53.3911V35.3966H62.0483ZM20.9265 61.3683C18.5361 61.3683 16.598 59.4302 16.598 57.0397C16.598 54.6492 18.5361 52.7111 20.9265 52.7111C23.317 52.7111 25.2551 54.6492 25.2551 57.0397C25.2551 59.4302 23.317 61.3683 20.9265 61.3683ZM20.9265 50.5468C17.7601 50.5501 15.0591 52.8356 14.531 55.9576H7.94071V53.7932H12.2694C12.867 53.7932 13.3515 53.3087 13.3515 52.7111C13.3515 52.1134 12.867 51.6289 12.2693 51.6289H7.94071V23.4929H46.8982V25.6572H11.1871C10.5894 25.6572 10.1049 26.1417 10.1049 26.7394C10.1049 27.3371 10.5894 27.8216 11.1871 27.8216H46.8981V51.6289H29.5837C28.9861 51.6289 28.5016 52.1134 28.5016 52.7111C28.5016 53.3087 28.9861 53.7932 29.5837 53.7932H46.8982V55.9576H27.3221C26.7939 52.8366 24.0929 50.55 20.9265 50.5468ZM57.7197 61.3683C55.3292 61.3683 53.3911 59.4302 53.3911 57.0397C53.3911 54.6492 55.3292 52.7111 57.7197 52.7111C60.1102 52.7111 62.0483 54.6492 62.0483 57.0397C62.0483 59.4302 60.1102 61.3683 57.7197 61.3683ZM64.1152 55.9575C63.4962 52.4253 60.1318 50.064 56.5997 50.682C53.9062 51.1539 51.796 53.2629 51.3242 55.9575H49.0624V31.068H59.2888L60.6847 33.2324H52.3089C51.7116 33.2324 51.2268 33.7172 51.2268 34.3145V44.0539C51.2268 44.6512 51.7116 45.136 52.3089 45.136H68.3356L68.5412 45.4499V51.6289H66.3769C65.7792 51.6289 65.2947 52.1134 65.2947 52.7111C65.2947 53.3087 65.7792 53.7932 66.3769 53.7932H68.5412V55.9576L64.1152 55.9575Z" fill="#3A3A3A"/>
<path d="M19.8438 57.0396C19.8438 57.6373 20.3283 58.1218 20.9259 58.1218C21.5236 58.1218 22.0081 57.6373 22.0081 57.0396C22.0081 56.442 21.5236 55.9575 20.9259 55.9575C20.3283 55.9575 19.8438 56.442 19.8438 57.0396Z" fill="black"/>
<path d="M56.6377 57.0396C56.6377 57.6373 57.1222 58.1218 57.7199 58.1218C58.3175 58.1218 58.802 57.6373 58.802 57.0396C58.802 56.442 58.3175 55.9575 57.7199 55.9575C57.1222 55.9575 56.6377 56.442 56.6377 57.0396Z" fill="black"/>
<path d="M24.1735 17H11.1876C10.59 17 10.1055 17.4845 10.1055 18.0822C10.1055 18.6798 10.59 19.1643 11.1876 19.1643H24.1735C24.7711 19.1643 25.2556 18.6798 25.2556 18.0822C25.2556 17.4845 24.7711 17 24.1735 17Z" fill="#3A3A3A"/>
<path d="M5.77637 18.0822C5.77637 18.6798 6.26087 19.1643 6.85854 19.1643C7.45621 19.1643 7.94071 18.6798 7.94071 18.0822C7.94071 17.4845 7.45621 17 6.85854 17C6.26087 17 5.77637 17.4845 5.77637 18.0822Z" fill="#3A3A3A"/>
</g>
<defs>
<clipPath id="clip0">
<rect width="73" height="73" fill="white"/>
</clipPath>
</defs>
</svg>
