<svg width="73" height="73" viewBox="0 0 73 73" fill="none" xmlns="http://www.w3.org/2000/svg">
<path fill-rule="evenodd" clip-rule="evenodd" d="M37.9817 5.70447C40.9468 10.7282 41.5638 15.3805 39.8766 19.6236H40.1221C42.3444 16.5766 45.3913 14.8076 49.3449 14.4362C48.0669 17.1936 46.172 19.2144 43.7042 20.4924C44.6485 20.8638 45.5991 21.3548 46.5875 21.934C44.3211 23.0483 41.4819 23.3757 37.9817 22.9224C34.5192 23.3757 31.6422 23.0483 29.4136 21.934C30.3579 21.3548 31.3463 20.8638 32.2969 20.4924C29.8228 19.2144 27.9342 17.1999 26.6562 14.4362C30.6098 14.8076 33.6567 16.5766 35.879 19.6236H36.0868C34.4374 15.3868 35.0543 10.7282 37.9817 5.70447Z" fill="#8EB360"/>
<path d="M37.9815 28.8903C37.5912 28.8903 37.2827 28.5756 37.2827 28.1916V22.9223C37.2827 22.532 37.5975 22.2235 37.9815 22.2235C38.3655 22.2235 38.6803 22.5383 38.6803 22.9223V28.1916C38.6803 28.5819 38.3655 28.8903 37.9815 28.8903Z" fill="#424952"/>
<path d="M41.6012 21.9717C41.2991 21.9717 41.0221 21.7766 40.9339 21.4744C40.8206 21.1029 41.0284 20.7126 41.3998 20.5993C44.3334 19.7117 46.5242 17.9678 48.0603 15.286C46.0395 15.6826 44.3145 16.4569 42.9107 17.609C42.6211 17.8545 42.1741 17.8105 41.9286 17.5146C41.6831 17.2187 41.7271 16.778 42.023 16.5325C43.9305 14.9649 46.3543 14.008 49.225 13.6996C49.4768 13.6744 49.7223 13.7814 49.8671 13.9891C50.0119 14.1906 50.0434 14.4613 49.9363 14.6879C48.2429 18.3833 45.5044 20.8259 41.8027 21.9465C41.7397 21.9654 41.6705 21.9717 41.6012 21.9717ZM39.2153 21.6884C39.102 21.6884 38.9886 21.6569 38.8816 21.6003C38.5417 21.4177 38.4158 20.9896 38.5983 20.6497C40.9339 16.3247 40.5247 11.4143 37.377 6.05694C37.1819 5.72329 37.2889 5.2952 37.6225 5.10004C37.9562 4.89859 38.3843 5.0119 38.5794 5.34556C41.9978 11.1499 42.4133 16.5262 39.8259 21.3107C39.7063 21.5499 39.4608 21.6884 39.2153 21.6884Z" fill="#424952"/>
<path d="M40.8703 23.8162C39.9323 23.8162 38.9376 23.747 37.8863 23.6148C37.5022 23.5644 37.2315 23.2119 37.2819 22.8341C37.3323 22.4501 37.6848 22.1731 38.0625 22.2298C41.4369 22.6642 44.1187 22.362 46.2717 21.3043C46.618 21.1344 47.0398 21.2792 47.2097 21.6254C47.3797 21.9717 47.2349 22.3934 46.8887 22.5634C45.1826 23.4007 43.1933 23.8162 40.8703 23.8162Z" fill="#424952"/>
<path d="M41.236 25.9693C41.2109 25.9693 41.192 25.9693 41.1668 25.9693C40.7198 25.9252 40.3169 25.8371 39.9581 25.7489C39.5804 25.6545 39.3537 25.2768 39.4482 24.8991C39.5426 24.5213 39.914 24.2947 40.298 24.3891C40.6002 24.4647 40.9339 24.5402 41.3116 24.578C41.6956 24.6158 41.9789 24.962 41.9411 25.346C41.8908 25.6986 41.5886 25.9693 41.236 25.9693Z" fill="#424952"/>
<path d="M34.3987 21.9717C34.3294 21.9717 34.2665 21.9591 34.1972 21.9402C30.4955 20.8196 27.757 18.377 26.0636 14.6816C25.9565 14.4487 25.988 14.1843 26.1328 13.9829C26.2776 13.7751 26.5231 13.6681 26.7749 13.6933C29.6393 14.0017 31.9938 14.9272 33.9769 16.5199C34.2791 16.7591 34.3231 17.1998 34.0839 17.502C33.8447 17.8042 33.3977 17.8545 33.1018 17.609C31.6476 16.4381 29.9478 15.67 27.9459 15.2797C29.482 17.9615 31.6665 19.7054 34.6064 20.593C34.9779 20.7063 35.1856 21.0966 35.0723 21.4681C34.9715 21.7765 34.6946 21.9717 34.3987 21.9717ZM36.7846 21.6884C36.5391 21.6884 36.2936 21.5562 36.1677 21.3233C33.5866 16.5451 33.9895 11.1751 37.3701 5.35816C37.5653 5.0245 37.9933 4.91118 38.327 5.10634C38.6607 5.3015 38.774 5.72958 38.5788 6.06324C35.4626 11.4332 35.0597 16.3436 37.3953 20.656C37.5778 20.9959 37.4519 21.424 37.112 21.6066C37.0113 21.6569 36.8979 21.6884 36.7846 21.6884Z" fill="#424952"/>
<path d="M35.1239 23.8162C32.7946 23.8162 30.7738 23.3945 29.0992 22.5572C28.7529 22.3872 28.6144 21.9654 28.7844 21.6192C28.9544 21.2729 29.3825 21.1344 29.7224 21.3044C31.8125 22.3494 34.5573 22.6579 37.8876 22.2235C38.2653 22.1731 38.6241 22.4376 38.6745 22.8279C38.7248 23.2119 38.4542 23.5644 38.0701 23.6148C37.0377 23.747 36.0556 23.8162 35.1239 23.8162Z" fill="#424952"/>
<path d="M34.7642 25.9693C34.4117 25.9693 34.1032 25.6986 34.0717 25.3397C34.034 24.9557 34.3173 24.6094 34.7013 24.5717C35.0727 24.5339 35.4126 24.4584 35.7148 24.3828C36.0926 24.2821 36.4703 24.515 36.5647 24.8927C36.6591 25.2705 36.4325 25.6482 36.0548 25.7426C35.696 25.8308 35.293 25.9189 34.8461 25.963C34.8146 25.9693 34.7894 25.9693 34.7642 25.9693Z" fill="#424952"/>
<path d="M45.25 31.75H30.75V35.375H45.25V31.75Z" fill="#C7DEE4"/>
<path d="M36.1875 31.75H30.75V35.375H36.1875V31.75Z" fill="#CFE6EC"/>
<path d="M45.25 33.5625H30.75V35.375H45.25V33.5625Z" fill="#CFE6EC"/>
<path d="M38 65.1504C34.9969 65.1504 32.5625 62.716 32.5625 59.7129V35.375H43.4375V59.7129C43.4375 62.716 41.0031 65.1504 38 65.1504Z" fill="#C7DEE4"/>
<path d="M35.2812 35.375H32.5625V53.5H35.2812V35.375Z" fill="#CFE6EC"/>
<path d="M43.4375 35.375H32.5625V37.1875H43.4375V35.375Z" fill="#CFE6EC"/>
<path d="M38 65.1504C34.9969 65.1504 32.5625 62.716 32.5625 59.7129V53.5H43.4375V59.7129C43.4375 62.716 41.0031 65.1504 38 65.1504Z" fill="#E3B29D"/>
<path d="M35.2812 61.7129V53.5H32.5625V59.7129C32.5625 62.716 34.9969 64.1504 38 64.1504C38.4797 64.1504 38.9163 64.0876 39.3594 63.9711C37.0286 63.3575 35.2812 64.2362 35.2812 61.7129Z" fill="#F3BBA4"/>
<path d="M36.1875 48.1758H34.375V49.875H36.1875V48.1758Z" fill="white"/>
<path d="M36.1875 44.5508H34.375V46.25H36.1875V44.5508Z" fill="white"/>
<path d="M36.1875 40.9258H34.375V42.625H36.1875V40.9258Z" fill="white"/>
<path d="M29.8438 34.4688C29.8438 35.4698 30.6552 36.2812 31.6562 36.2812V58.7129C31.6562 62.1796 34.4766 65 37.9434 65C41.4101 65 44.2305 62.1796 44.2305 58.7129V39.8496C44.2305 39.3804 43.8501 39 43.3809 39C42.9116 39 42.5312 39.3804 42.5312 39.8496V58.7129C42.5312 61.2427 40.4732 63.3008 37.9434 63.3008C35.4136 63.3008 33.3555 61.2427 33.3555 58.7129V54.4062H38.9629C39.4321 54.4062 39.8125 54.0259 39.8125 53.5566C39.8125 53.0874 39.4321 52.707 38.9629 52.707H33.3555V36.2812H43.3809C44.8511 36.2812 46.043 35.0894 46.043 33.6191C46.043 32.1489 44.8511 30.957 43.3809 30.957H32.5059C31.0356 30.957 29.8438 32.1489 29.8438 33.6191V34.4688ZM31.543 33.6191C31.543 33.0874 31.9741 32.6562 32.5059 32.6562H43.3809C43.9126 32.6562 44.3438 33.0874 44.3438 33.6191C44.3438 34.1509 43.9126 34.582 43.3809 34.582H32.5059C31.9741 34.582 31.543 34.1509 31.543 33.6191Z" fill="#3A3A3A"/>
<path d="M56.0996 43.4746C57.1006 43.4746 57.9121 42.6631 57.9121 41.6621C57.9121 40.6611 57.1006 39.8496 56.0996 39.8496C55.0986 39.8496 54.2871 40.6611 54.2871 41.6621C54.2871 42.6631 55.0986 43.4746 56.0996 43.4746Z" fill="#C5E7A3"/>
<path d="M61.5371 50.7246C62.5381 50.7246 63.3496 49.9131 63.3496 48.9121C63.3496 47.9111 62.5381 47.0996 61.5371 47.0996C60.5361 47.0996 59.7246 47.9111 59.7246 48.9121C59.7246 49.9131 60.5361 50.7246 61.5371 50.7246Z" fill="#FF5A6E"/>
<path d="M50.6621 50.7246C51.6631 50.7246 52.4746 49.9131 52.4746 48.9121C52.4746 47.9111 51.6631 47.0996 50.6621 47.0996C49.6611 47.0996 48.8496 47.9111 48.8496 48.9121C48.8496 49.9131 49.6611 50.7246 50.6621 50.7246Z" fill="white"/>
<path d="M61.5371 46.25C61.2459 46.25 60.9657 46.2977 60.7031 46.3846L58.2923 43.1694C58.5881 42.7405 58.7617 42.2214 58.7617 41.6621C58.7617 40.1942 57.5675 39 56.0996 39C54.6317 39 53.4375 40.1942 53.4375 41.6621C53.4375 42.2213 53.6112 42.7405 53.9069 43.1694L51.4961 46.3846C51.2336 46.2977 50.9534 46.25 50.6621 46.25C49.1942 46.25 48 47.4442 48 48.9121C48 50.38 49.1942 51.5742 50.6621 51.5742C52.13 51.5742 53.3242 50.38 53.3242 48.9121C53.3242 48.353 53.1506 47.8337 52.8548 47.4048L55.2656 44.1896C55.5281 44.2765 55.8084 44.3242 56.0996 44.3242C56.3909 44.3242 56.671 44.2765 56.9336 44.1896L59.3444 47.4331C59.2058 47.6342 59.0944 47.7793 59.0148 48.1191H55.1367C54.6675 48.1191 54.2871 48.4995 54.2871 48.9688C54.2871 49.438 54.6675 49.8184 55.1367 49.8184H59.0148C59.3703 50.8379 60.3662 51.6025 61.5371 51.6025C63.005 51.6025 64.1992 50.3942 64.1992 48.9263C64.1992 47.4584 63.005 46.25 61.5371 46.25ZM50.6621 49.875C50.1313 49.875 49.6992 49.4431 49.6992 48.9121C49.6992 48.3812 50.1313 47.9492 50.6621 47.9492C51.1929 47.9492 51.625 48.3812 51.625 48.9121C51.625 49.4431 51.1929 49.875 50.6621 49.875ZM56.0996 42.625C55.5688 42.625 55.1367 42.1931 55.1367 41.6621C55.1367 41.1312 55.5688 40.6992 56.0996 40.6992C56.6304 40.6992 57.0625 41.1312 57.0625 41.6621C57.0625 42.1931 56.6304 42.625 56.0996 42.625ZM61.5371 49.875C61.0063 49.875 60.5742 49.4431 60.5742 48.9121C60.5742 48.3812 61.0063 47.9492 61.5371 47.9492C62.0679 47.9492 62.5 48.3812 62.5 48.9121C62.5 49.4431 62.0679 49.875 61.5371 49.875Z" fill="#3A3A3A"/>
<path d="M19.0996 38.7246C20.1006 38.7246 20.9121 37.9131 20.9121 36.9121C20.9121 35.9111 20.1006 35.0996 19.0996 35.0996C18.0986 35.0996 17.2871 35.9111 17.2871 36.9121C17.2871 37.9131 18.0986 38.7246 19.0996 38.7246Z" fill="#FF5A6E"/>
<path d="M13.6621 31.4746C14.6631 31.4746 15.4746 30.6631 15.4746 29.6621C15.4746 28.6611 14.6631 27.8496 13.6621 27.8496C12.6611 27.8496 11.8496 28.6611 11.8496 29.6621C11.8496 30.6631 12.6611 31.4746 13.6621 31.4746Z" fill="#C5E7A3"/>
<path d="M24.5371 31.4746C25.5381 31.4746 26.3496 30.6631 26.3496 29.6621C26.3496 28.6611 25.5381 27.8496 24.5371 27.8496C23.5361 27.8496 22.7246 28.6611 22.7246 29.6621C22.7246 30.6631 23.5361 31.4746 24.5371 31.4746Z" fill="white"/>
<path d="M24.5371 27C23.0692 27 21.875 28.1942 21.875 29.6621C21.875 30.2213 22.0487 30.7405 22.3444 31.1694L19.9335 34.3846C19.671 34.2978 19.3909 34.2501 19.0996 34.2501C18.8084 34.2501 18.5282 34.2978 18.2657 34.3846L15.8548 31.1977C15.9934 30.9967 16.1048 30.7949 16.1844 30.5684H20.0625C20.5317 30.5684 20.9121 30.188 20.9121 29.7187C20.9121 29.2495 20.5317 28.8691 20.0625 28.8691H16.1844C15.829 27.7363 14.833 27.0283 13.6621 27.0283C12.1942 27.0283 11 28.2084 11 29.6763C11 31.1442 12.1942 32.3314 13.6621 32.3314C13.9534 32.3314 14.2335 32.2802 14.496 32.1933L16.9069 35.4066C16.6112 35.8355 16.4375 36.3537 16.4375 36.913C16.4375 38.3809 17.6317 39.5747 19.0996 39.5747C20.5675 39.5747 21.7617 38.3802 21.7617 36.9123C21.7617 36.3531 21.5881 35.8338 21.2923 35.4049L23.7032 32.1898C23.9657 32.2765 24.2459 32.3242 24.5371 32.3242C26.005 32.3242 27.1992 31.13 27.1992 29.6621C27.1992 28.1942 26.005 27 24.5371 27ZM13.6621 30.625C13.1312 30.625 12.6992 30.1931 12.6992 29.6621C12.6992 29.1312 13.1312 28.6992 13.6621 28.6992C14.1931 28.6992 14.625 29.1312 14.625 29.6621C14.625 30.1931 14.1931 30.625 13.6621 30.625ZM19.0996 37.875C18.5687 37.875 18.1367 37.4431 18.1367 36.9121C18.1367 36.3812 18.5687 35.9492 19.0996 35.9492C19.6306 35.9492 20.0625 36.3812 20.0625 36.9121C20.0625 37.4431 19.6306 37.875 19.0996 37.875ZM24.5371 30.625C24.0062 30.625 23.5742 30.1931 23.5742 29.6621C23.5742 29.1312 24.0062 28.6992 24.5371 28.6992C25.0681 28.6992 25.5 29.1312 25.5 29.6621C25.5 30.1931 25.0681 30.625 24.5371 30.625Z" fill="#3A3A3A"/>
</svg>
